<svg width="718" height="623" viewBox="0 0 718 623" fill="none" xmlns="http://www.w3.org/2000/svg">
<g clip-path="url(#clip0_1801_2585)">
<path d="M407.566 70.6795C406.619 72.129 405.973 73.722 405.628 75.3723L403 75.6163V80.6966L405.628 80.9406C405.973 82.591 406.604 84.184 407.566 85.6335L405.886 87.657L409.476 91.2448L411.501 89.5657C412.951 90.5129 414.545 91.1587 416.197 91.5031L416.441 94.1294H421.524L421.768 91.5031C423.42 91.1587 425.014 90.5129 426.464 89.5657L428.489 91.2448L432.079 87.657L430.399 85.6335C431.347 84.184 431.993 82.591 432.337 80.9406L434.965 80.6966V75.6163L432.337 75.3723C431.993 73.722 431.347 72.129 430.399 70.6795L432.079 68.656L428.489 65.0682L426.464 66.7473C425.014 65.8001 423.42 65.1543 421.768 64.8099L421.524 62.1836H416.441L416.197 64.8099C414.545 65.1543 412.951 65.8001 411.501 66.7473L409.476 65.0682L405.886 68.656L407.566 70.6795ZM423.851 73.3058C426.536 75.9895 426.536 80.3379 423.851 83.0215C421.165 85.7052 416.814 85.7052 414.129 83.0215C411.444 80.3379 411.444 75.9895 414.129 73.3058C416.814 70.6221 421.165 70.6221 423.851 73.3058Z" fill="#E0E0E0"/>
<path d="M616.676 146.382C615.728 147.832 615.082 149.425 614.737 151.075L612.109 151.319V156.399L614.737 156.643C615.082 158.294 615.714 159.887 616.676 161.336L614.996 163.36L618.586 166.947L620.61 165.268C622.061 166.216 623.655 166.861 625.306 167.206L625.55 169.832H630.634L630.878 167.206C632.529 166.861 634.123 166.216 635.574 165.268L637.598 166.947L641.188 163.36L639.508 161.336C640.456 159.887 641.102 158.294 641.447 156.643L644.075 156.399V151.319L641.447 151.075C641.102 149.425 640.456 147.832 639.508 146.382L641.188 144.359L637.598 140.771L635.574 142.45C634.123 141.503 632.529 140.857 630.878 140.513L630.634 137.886H625.55L625.306 140.513C623.655 140.857 622.061 141.503 620.61 142.45L618.586 140.771L614.996 144.359L616.676 146.382ZM632.96 149.008C635.645 151.692 635.645 156.04 632.96 158.724C630.275 161.408 625.924 161.408 623.238 158.724C620.553 156.04 620.553 151.692 623.238 149.008C625.924 146.325 630.275 146.325 632.96 149.008Z" fill="#E0E0E0"/>
<path d="M90.4825 143.483C89.5347 144.933 88.8885 146.526 88.5439 148.176L85.916 148.42V153.5L88.5439 153.744C88.8885 155.395 89.5347 156.988 90.4825 158.437L88.8024 160.461L92.3924 164.048L94.4171 162.369C95.8675 163.317 97.4614 163.962 99.1128 164.307L99.357 166.933H104.44L104.685 164.307C106.336 163.962 107.93 163.317 109.38 162.369L111.405 164.048L114.995 160.461L113.315 158.437C114.263 156.988 114.909 155.395 115.253 153.744L117.881 153.5V148.42L115.253 148.176C114.909 146.526 114.263 144.933 113.315 143.483L114.995 141.46L111.405 137.872L109.38 139.551C107.93 138.604 106.336 137.958 104.685 137.614L104.44 134.987H99.357L99.1128 137.614C97.4614 137.958 95.8675 138.604 94.4171 139.551L92.3924 137.872L88.8024 141.46L90.4825 143.483ZM106.767 146.109C109.452 148.793 109.452 153.142 106.767 155.825C104.081 158.509 99.7303 158.509 97.045 155.825C94.3597 153.142 94.3597 148.793 97.045 146.109C99.7303 143.426 104.081 143.426 106.767 146.109Z" fill="#E0E0E0"/>
<path d="M637.468 421.968H377.911C373.273 421.968 369.496 418.194 369.496 413.559V35.7345C369.496 31.0991 373.273 27.3247 377.911 27.3247H637.468C642.106 27.3247 645.883 31.0991 645.883 35.7345V413.559C645.883 418.194 642.106 421.968 637.468 421.968ZM377.911 27.6835C373.474 27.6835 369.855 31.3 369.855 35.7345V413.559C369.855 417.993 373.474 421.61 377.911 421.61H637.468C641.905 421.61 645.524 417.993 645.524 413.559V35.7345C645.524 31.3 641.905 27.6835 637.468 27.6835H377.911Z" fill="#E0E0E0"/>
<path d="M338.163 421.968H78.62C73.9818 421.968 70.2051 418.194 70.2051 413.559V35.7345C70.2051 31.0991 73.9818 27.3247 78.62 27.3247H338.177C342.815 27.3247 346.592 31.0991 346.592 35.7345V413.559C346.592 418.194 342.815 421.968 338.177 421.968H338.163ZM78.62 27.6835C74.1828 27.6835 70.5641 31.3 70.5641 35.7345V413.559C70.5641 417.993 74.1828 421.61 78.62 421.61H338.177C342.614 421.61 346.233 417.993 346.233 413.559V35.7345C346.233 31.3 342.614 27.6835 338.177 27.6835H78.62Z" fill="#E0E0E0"/>
<path d="M718 509.611H0V509.97H718V509.611Z" fill="#E0E0E0"/>
<path d="M97.2594 530.09H74.1973V530.449H97.2594V530.09Z" fill="#E0E0E0"/>
<path d="M321.492 526.201H244.623V526.56H321.492V526.201Z" fill="#E0E0E0"/>
<path d="M150.75 543.423H98.6953V543.781H150.75V543.423Z" fill="#E0E0E0"/>
<path d="M605.331 526.015H543.311V526.373H605.331V526.015Z" fill="#E0E0E0"/>
<path d="M627.217 526.015H618.127V526.373H627.217V526.015Z" fill="#E0E0E0"/>
<path d="M531.464 534.955H454.078V535.314H531.464V534.955Z" fill="#E0E0E0"/>
<path d="M604.024 380.709C602.846 382.502 602.056 384.469 601.626 386.506L598.395 386.808V393.079L601.64 393.381C602.056 395.419 602.861 397.385 604.038 399.179L601.97 401.676L606.407 406.11L608.906 404.044C610.701 405.22 612.668 406.01 614.708 406.44L615.009 409.684H621.284L621.586 406.44C623.625 406.024 625.592 405.22 627.387 404.044L629.886 406.11L634.323 401.676L632.255 399.179C633.433 397.385 634.223 395.419 634.654 393.381L637.885 393.079V386.808L634.654 386.506C634.237 384.469 633.433 382.502 632.255 380.709L634.323 378.211L629.886 373.777L627.387 375.844C625.592 374.667 623.625 373.877 621.586 373.447L621.284 370.203H615.009L614.708 373.447C612.668 373.863 610.701 374.667 608.906 375.844L606.407 373.777L601.97 378.211L604.038 380.709H604.024ZM624.128 383.938C627.445 387.253 627.445 392.62 624.128 395.935C620.811 399.25 615.44 399.25 612.123 395.935C608.806 392.62 608.806 387.253 612.123 383.938C615.44 380.622 620.811 380.622 624.128 383.938Z" fill="#E0E0E0"/>
<path d="M101.238 374.279C100.291 375.729 99.6444 377.322 99.2998 378.972L96.6719 379.216V384.296L99.2998 384.54C99.6444 386.191 100.291 387.784 101.238 389.233L99.5582 391.257L103.148 394.845L105.173 393.165C106.623 394.113 108.217 394.758 109.869 395.103L110.113 397.729H115.196L115.44 395.103C117.092 394.758 118.686 394.113 120.136 393.165L122.161 394.845L125.751 391.257L124.071 389.233C125.019 387.784 125.665 386.191 126.009 384.54L128.637 384.296V379.216L126.009 378.972C125.665 377.322 125.019 375.729 124.071 374.279L125.751 372.256L122.161 368.668L120.136 370.347C118.686 369.4 117.092 368.754 115.44 368.41L115.196 365.783H110.113L109.869 368.41C108.217 368.754 106.623 369.385 105.173 370.347L103.148 368.668L99.5582 372.256L101.238 374.279ZM117.523 376.906C120.208 379.589 120.208 383.938 117.523 386.621C114.837 389.305 110.486 389.305 107.801 386.621C105.116 383.938 105.116 379.589 107.801 376.906C110.486 374.222 114.837 374.222 117.523 376.906Z" fill="#E0E0E0"/>
<path d="M87.3672 45.4215C60.1119 57.9788 41.4583 75.5734 45.6801 84.7295C49.9019 93.8855 75.4197 91.1301 102.661 78.5728C129.901 66.0155 148.569 48.4066 144.348 39.2649C140.126 30.1232 114.608 32.8642 87.3672 45.4215ZM100.808 74.5401C76.9705 85.5188 54.8561 88.3603 51.4097 80.8977C47.9633 73.4207 64.4917 58.4811 88.3149 47.5025C112.138 36.5238 134.253 33.6679 137.713 41.1305C141.174 48.6075 124.631 63.5614 100.808 74.5401Z" fill="#E0E0E0"/>
<path d="M126.79 70.1634C132.532 54.0926 124.151 36.4127 108.07 30.6744C91.9893 24.936 74.2986 33.3121 68.5568 49.3829C62.8149 65.4537 71.1961 83.1336 87.2768 88.8719C103.357 94.6103 121.048 86.2342 126.79 70.1634Z" fill="#E6E6E6"/>
<g opacity="0.2">
<path d="M123.239 77.1377C116.935 86.4516 106.065 91.5894 94.8638 90.5561C91.8482 90.2977 88.89 89.5658 86.0898 88.4034C95.9552 87.7432 110.473 86.0785 123.239 77.1377Z" fill="#FAFAFA"/>
<path d="M98.2671 53.7309C104.858 51.1908 118.199 48.2201 124.187 43.9578C124.46 44.3596 124.704 44.7758 124.919 45.2207C121.588 47.5169 118.472 50.1144 115.6 52.9703C108.98 59.0122 105.663 64.5804 94.6628 65.011C83.663 65.4415 90.9292 56.6155 98.2671 53.7453V53.7309Z" fill="#FAFAFA"/>
<path d="M78.8809 84.3133C88.5595 83.0935 111.923 78.9316 127.92 66.3169C127.662 67.4219 127.36 68.4839 127.016 69.589C116.863 74.7554 97.9653 84.7438 82.0257 86.3942C80.9343 85.7771 79.8861 85.0883 78.8809 84.3277V84.3133Z" fill="#FAFAFA"/>
<path d="M71.5 76.1763C77.761 75.3008 83.9645 74.0092 90.0531 72.3014C102.503 68.5845 119.821 59.8015 127.806 52.9417C128.222 54.7068 128.466 56.5008 128.524 58.309C118.572 64.968 94.5047 79.6062 74.4869 80.1228C73.3812 78.903 72.376 77.5683 71.5 76.1763Z" fill="#FAFAFA"/>
<path d="M71.041 44.1873C71.4575 43.3837 71.9313 42.6231 72.477 41.9055C81.811 39.1357 99.7897 34.8447 107.975 30.6829C109.21 31.099 110.416 31.6157 111.579 32.2184C101.369 34.5577 80.2027 42.049 71.041 44.2017V44.1873Z" fill="#FAFAFA"/>
<path d="M68.6426 49.1528C75.7221 46.8567 83.0601 45.4072 90.4985 44.8331C95.4958 44.8331 110.301 39.0209 115.528 34.572C115.944 34.8447 116.332 35.1461 116.706 35.4761C103.882 40.8722 88.2584 54.2188 81.0497 58.0793C76.5981 60.5046 71.9311 62.4995 67.1061 64.0207C66.7471 61.6814 66.6753 59.2991 66.8907 56.9312C67.1492 54.2619 67.7379 51.65 68.657 49.1241L68.6426 49.1528Z" fill="#FAFAFA"/>
</g>
<path d="M67.4922 66.3313C69.7467 65.8003 71.9725 65.1545 74.1552 64.3939C82.6133 61.5236 97.8779 49.196 111.391 43.5272C116.46 41.4176 119.375 40.1978 121.069 39.5376C121.586 40.1547 122.089 40.7718 122.563 41.475C118.7 43.7281 114.679 45.7373 110.558 47.4738C101.956 51.076 92.7801 55.9554 87.4813 60.3612C83.4318 63.705 73.2075 68.1108 68.4399 69.7325C68.0379 68.6275 67.7219 67.4794 67.4922 66.3313Z" fill="#E0E0E0"/>
<path d="M69.2168 71.799C76.9999 69.876 84.8979 68.4121 92.8677 67.4506C106.266 65.9007 111.349 59.9593 116.835 54.3049C119.563 51.6356 122.679 49.4112 126.097 47.7034C126.599 48.8515 127.03 50.0283 127.36 51.2194C121.2 56.3428 114.393 60.6625 107.113 64.0494C94.4186 69.9908 76.7989 72.8754 70.1933 73.8225C69.8199 73.1767 69.4896 72.4879 69.2312 71.7847L69.2168 71.799Z" fill="#E0E0E0"/>
<path d="M76.2097 81.9598C87.8269 80.4672 99.1282 77.0803 109.654 71.957C118.27 67.7234 124.416 64.3652 128.494 62.0403C128.509 62.2268 128.509 62.4278 128.494 62.6143C128.394 63.5185 128.293 64.3939 128.121 65.2693C118.442 70.4357 96.0408 81.0987 76.4825 82.1894C76.3533 82.175 76.2671 82.0602 76.1953 81.9598H76.2097Z" fill="#E0E0E0"/>
<path d="M75.2051 38.5617C81.7389 31.6731 91.0729 28.1714 100.522 29.0325C101.254 29.0325 102.015 29.2047 102.733 29.3195C96.142 32.3763 83.9216 37.3705 75.2051 38.5473V38.5617Z" fill="#F0F0F0"/>
<path d="M84.3652 87.6283C92.1196 85.7913 111.908 80.8115 120.337 76.2047C121.902 75.3149 123.511 74.54 125.176 73.8655C124.688 74.8701 124.128 75.8459 123.496 76.7644C117.465 79.3907 105.833 84.2127 99.2709 85.289C93.4551 86.2219 88.2712 87.2264 85.155 87.9727C84.8822 87.8866 84.6237 87.7718 84.3796 87.6283H84.3652Z" fill="#E0E0E0"/>
<path d="M110.515 34.6868C110.515 34.6868 99.1851 41.6902 94.0873 42.5512C90.9999 43.0822 87.8694 43.3692 84.7246 43.4267C84.7246 43.4267 101.109 35.0312 110.501 34.7011L110.515 34.6868Z" fill="#E0E0E0"/>
<path d="M134.282 38.1598C135.775 38.7052 137.01 39.7959 137.714 41.2166C141.16 48.6936 124.632 63.6476 100.809 74.6262C76.9856 85.6049 54.8569 88.4464 51.4105 80.9838C50.8361 79.5343 50.8361 77.9127 51.4105 76.4488L45.5803 79.1325C44.9198 80.9838 44.9628 83.0073 45.7096 84.8156C49.9314 93.9716 75.4491 91.2162 102.69 78.6589C129.931 66.1016 148.599 48.4927 144.377 39.351C143.487 37.6001 141.979 36.2511 140.141 35.5623L134.296 38.1598H134.282Z" fill="#E0E0E0"/>
<path d="M326.001 134.887C330.537 134.887 334.215 131.212 334.215 126.678C334.215 122.144 330.537 118.469 326.001 118.469C321.465 118.469 317.787 122.144 317.787 126.678C317.787 131.212 321.465 134.887 326.001 134.887Z" fill="#E0E0E0"/>
<path d="M432.623 158.322C435.708 158.322 438.209 155.823 438.209 152.74C438.209 149.656 435.708 147.157 432.623 147.157C429.538 147.157 427.037 149.656 427.037 152.74C427.037 155.823 429.538 158.322 432.623 158.322Z" fill="#E0E0E0"/>
<path d="M577.688 271.855C580.773 271.855 583.274 269.355 583.274 266.272C583.274 263.189 580.773 260.689 577.688 260.689C574.603 260.689 572.102 263.189 572.102 266.272C572.102 269.355 574.603 271.855 577.688 271.855Z" fill="#E0E0E0"/>
<path d="M472.444 403.929C474.157 403.929 475.545 402.541 475.545 400.829C475.545 399.117 474.157 397.729 472.444 397.729C470.731 397.729 469.342 399.117 469.342 400.829C469.342 402.541 470.731 403.929 472.444 403.929Z" fill="#E0E0E0"/>
<path d="M386.385 117.278C388.098 117.278 389.487 115.89 389.487 114.178C389.487 112.466 388.098 111.078 386.385 111.078C384.672 111.078 383.283 112.466 383.283 114.178C383.283 115.89 384.672 117.278 386.385 117.278Z" fill="#E0E0E0"/>
<path d="M590.756 347.112C590.756 349.179 589.076 350.858 587.008 350.858C584.94 350.858 583.26 349.179 583.26 347.112C583.26 345.046 584.94 343.367 587.008 343.367C589.076 343.367 590.756 345.046 590.756 347.112Z" fill="#E0E0E0"/>
<path d="M382.637 413.027C384.707 413.027 386.385 411.35 386.385 409.282C386.385 407.213 384.707 405.536 382.637 405.536C380.567 405.536 378.889 407.213 378.889 409.282C378.889 411.35 380.567 413.027 382.637 413.027Z" fill="#E0E0E0"/>
<path d="M138.99 333.565C138.99 335.631 137.31 337.311 135.242 337.311C133.174 337.311 131.494 335.631 131.494 333.565C131.494 331.498 133.174 329.819 135.242 329.819C137.31 329.819 138.99 331.498 138.99 333.565Z" fill="#E0E0E0"/>
<path d="M266.564 424.451C268.634 424.451 270.312 422.774 270.312 420.705C270.312 418.637 268.634 416.96 266.564 416.96C264.494 416.96 262.816 418.637 262.816 420.705C262.816 422.774 264.494 424.451 266.564 424.451Z" fill="#E0E0E0"/>
<path d="M326.215 128.357L585.485 345.806L386.384 409.282L135.256 334.383L326.215 128.357Z" stroke="#E0E0E0" stroke-miterlimit="10"/>
<path d="M382.636 409.784L218.357 222.056L432.853 152.74L585.485 345.806L382.636 409.784Z" stroke="#E0E0E0" stroke-miterlimit="10"/>
<path d="M382.635 409.784L524.096 230.983L231.611 147.86C232.875 149.87 265.027 421.208 265.027 421.208L382.635 409.784Z" stroke="#E0E0E0" stroke-miterlimit="10"/>
<path d="M190.399 253.055C189.365 255.982 254.229 382.632 254.229 382.632L473.564 400.671L577.3 266.258L432.868 152.711L190.413 253.04L190.399 253.055Z" stroke="#E0E0E0" stroke-miterlimit="10"/>
<path d="M196.271 357.689L386.384 113.288L441.44 201.189L417.918 425.728L196.271 357.689Z" stroke="#E0E0E0" stroke-miterlimit="10"/>
<path d="M364.873 461.075C363.15 463.702 361.987 466.572 361.37 469.543L356.631 469.987V479.144L361.37 479.588C361.987 482.559 363.15 485.444 364.873 488.056L361.844 491.701L368.32 498.173L371.967 495.145C374.595 496.867 377.467 498.03 380.44 498.647L380.885 503.383H390.047L390.492 498.647C393.464 498.03 396.351 496.867 398.964 495.145L402.612 498.173L409.102 491.701L406.072 488.056C407.796 485.429 408.959 482.559 409.576 479.588L414.315 479.144V469.987L409.576 469.543C408.959 466.572 407.796 463.687 406.072 461.075L409.102 457.43L402.626 450.958L398.978 453.986C396.351 452.264 393.479 451.101 390.506 450.484L390.061 445.748H380.885L380.44 450.484C377.467 451.101 374.581 452.264 371.967 453.986L368.32 450.958L361.844 457.445L364.873 461.09V461.075ZM394.268 465.811C399.122 470.662 399.122 478.512 394.268 483.348C389.415 488.199 381.56 488.199 376.72 483.348C371.881 478.498 371.867 470.648 376.72 465.811C381.574 460.961 389.429 460.961 394.268 465.811Z" fill="#E0E0E0"/>
<path d="M651.111 602.894C651.111 607.759 516.816 611.691 351.174 611.691C185.531 611.691 51.2363 607.745 51.2363 602.894C51.2363 598.043 185.531 594.097 351.174 594.097C516.816 594.097 651.111 598.043 651.111 602.894Z" fill="#F5F5F5"/>
<path d="M254.875 1.27716C283.265 -5.06607 311.425 12.7725 317.772 41.1448C324.119 69.5171 306.27 97.6598 277.88 104.003C249.49 110.346 221.33 92.5077 214.983 64.1354C214.983 64.078 214.954 64.0063 214.94 63.9489C208.708 35.6339 226.557 7.60604 254.875 1.27716Z" fill="#407BFF"/>
<path opacity="0.5" d="M254.875 1.27716C283.265 -5.06607 311.425 12.7725 317.772 41.1448C324.119 69.5171 306.27 97.6598 277.88 104.003C249.49 110.346 221.33 92.5077 214.983 64.1354C214.983 64.078 214.954 64.0063 214.94 63.9489C208.708 35.6339 226.557 7.60604 254.875 1.27716Z" fill="white"/>
<path opacity="0.1" d="M313.565 29.4917C312.603 31.0272 311.77 28.9176 308.381 30.6398C305.064 32.1179 301.503 32.9646 297.884 33.1369L297.123 34.6007C296.419 36.1363 289.957 33.6392 289.957 31.142C289.957 28.6449 289.957 31.142 294.955 29.6782C299.952 28.2144 294.955 29.6782 295.4 26.0904C295.845 22.5026 293.993 24.11 291.939 21.6128C290.833 20.149 288.737 19.862 287.272 20.967C285.736 21.8568 285.922 23.5933 284.458 23.9664C282.979 24.3539 283.625 25.2437 282.979 25.6886C282.332 26.1335 281.313 25.6886 280.48 25.6886C279.647 25.6886 278.556 24.9854 278.053 25.6886C277.536 26.3918 277.665 26.5784 277.536 26.9658C276.99 27.0233 276.43 27.0233 275.87 26.9658C275.483 26.9658 275.037 26.4492 275.037 26.1335C274.994 25.9182 274.994 25.7029 275.037 25.4877C275.31 24.8562 275.669 24.2678 276.129 23.7655C276.574 23.2202 277.321 23.0193 277.981 23.2489C278.125 22.6461 277.924 22.0147 277.464 21.5841H279.518C280.035 21.5841 281.499 17.3649 281.629 16.7191C281.643 16.1737 281.385 15.6715 280.925 15.3701C280.351 15.0543 279.647 15.3701 278.943 15.3701C278.24 15.3701 276.761 13.3896 275.425 13.5762C275.081 13.6766 274.765 13.8201 274.463 14.0211L272.869 15.1692C272.596 15.284 272.352 15.4562 272.165 15.6858C272.137 16.0302 272.137 16.3747 272.165 16.7047C272.108 17.0061 271.893 17.2501 271.591 17.3505C272.812 17.3505 271.146 18.5704 270.887 18.6278C269.609 19.0727 267.111 18.1829 265.646 18.0537C265.402 18.1542 265.129 18.1542 264.885 18.0537C264.856 17.8672 264.856 17.6663 264.885 17.4797C264.497 16.5899 264.181 15.6284 263.865 14.7243C263.549 13.8345 262.846 10.5624 264.44 9.67265C266.034 8.78287 267.829 9.67265 268.346 8.00791C268.403 7.80699 268.518 7.63478 268.662 7.49126C269.107 7.10378 269.624 8.00791 269.552 8.63936C269.365 9.6583 269.365 10.6916 269.552 11.7105C269.94 12.7295 271.275 13.3753 272.051 12.7295C271.534 11.9688 272.568 11.0647 273.458 11.0647C274.348 11.0647 275.382 11.5096 276.215 11.0647C276.947 10.6055 277.306 9.73005 277.105 8.88333C276.919 8.05096 276.545 7.26165 276.014 6.58714C274.923 7.01768 273.688 6.85981 272.754 6.14225C271.993 5.5682 271.218 4.54927 270.327 4.9224C270.715 4.50622 271.045 4.06133 271.347 3.57339C270.773 3.28636 270.169 3.02804 269.552 2.81277C268.978 2.49705 268.403 1.85124 268.719 1.21979C268.82 1.03322 268.978 0.875361 269.164 0.774902C272.539 0.875361 275.885 1.37765 279.144 2.25308C278.125 4.17614 277.866 7.69218 282.663 9.41433C289.642 11.9114 282.663 9.41433 289.067 5.95569C294.108 8.35234 298.731 11.5527 302.767 15.4275L299.952 17.4797C297.008 19.4602 300.914 20.4791 300.914 20.4791H304.949C307.132 20.4791 306.931 20.4791 307.06 20.0342C309.588 22.9045 311.785 26.0617 313.594 29.4343L313.565 29.4917Z" fill="black"/>
<path opacity="0.2" d="M234.714 32.8786C234.743 33.137 234.743 33.3953 234.714 33.6392C234.326 34.9883 232.345 34.529 231.009 34.9165C228.195 35.8063 228.898 40.7431 226.141 42.0203C224.791 42.5944 223.197 42.0203 221.847 42.5944C220.943 43.2402 220.124 43.9865 219.421 44.8332C217.97 46.1248 216.017 46.6845 214.107 46.3688C215.213 36.4521 219.191 27.0664 225.567 19.3742C226.069 19.288 226.601 19.288 227.103 19.3742C228.108 19.7329 228.826 20.6227 228.956 21.6703C229.142 22.7323 229.142 23.8087 228.956 24.8707L231.009 23.3351C231.928 23.9378 232.172 25.172 231.569 26.0762C231.555 26.1049 231.54 26.1192 231.526 26.1479C230.88 27.0377 229.602 27.1669 228.453 27.3678C227.304 27.5543 226.026 28.2001 225.954 29.2908C225.897 30.3815 226.601 31.013 227.175 31.7162C227.749 32.4194 228.324 33.5101 227.821 34.2707L232.302 31.6444C232.56 31.4866 232.847 31.3861 233.134 31.3287C233.967 31.3861 234.642 32.0319 234.728 32.8643L234.714 32.8786Z" fill="black"/>
<path opacity="0.2" d="M237.974 25.9039L237.587 27.1238C238.721 27.5399 239.97 27.5399 241.105 27.1238C241.478 26.9659 241.809 26.7219 242.067 26.4205C242.512 25.8321 242.785 25.1146 242.828 24.3683C242.957 23.4068 242.957 22.4453 242.828 21.4837C242.713 20.5222 242.139 19.6611 241.292 19.1875C240.401 18.6996 239.296 19.0153 238.793 19.8907C238.405 20.7231 238.793 21.7421 238.348 22.5744C237.903 23.4068 237.07 23.5934 236.811 24.2966C236.639 24.9854 237.041 25.6743 237.73 25.8609C237.802 25.8752 237.888 25.8896 237.96 25.9039H237.974Z" fill="black"/>
<path opacity="0.2" d="M260.318 4.29096C258.724 5.63997 256.154 3.84607 254.244 4.73584C252.32 5.62562 252.708 6.58715 251.616 6.78807C251.013 6.81677 250.424 6.81677 249.821 6.78807C249.175 6.78807 248.543 7.23295 248.601 7.807C248.672 8.07967 248.83 8.32364 249.046 8.51021L250.64 9.97403C250.826 10.1749 250.999 10.3902 251.157 10.6198C251.401 11.323 251.027 12.0837 250.324 12.3276C250.309 12.3276 250.281 12.3276 250.266 12.342C249.577 12.5572 248.845 12.5572 248.155 12.342C247.71 12.2989 247.279 12.1985 246.877 12.0263C246.49 12.0263 246.231 11.1939 246.49 10.8064L246.935 10.3615C247.351 9.95968 247.538 9.38563 247.452 8.82594C247.38 8.20884 246.863 7.73525 246.231 7.73525L245.398 8.12273L242.641 9.78747C241.363 10.4907 239.755 11.2656 238.477 10.6198C238.233 10.6055 238.017 10.462 237.902 10.2324V9.39999C238.003 9.06991 238.003 8.71113 237.902 8.38105C243.072 4.99417 248.816 2.59751 254.861 1.2772C256.829 0.832317 258.81 0.502239 260.807 0.315674C261.194 1.79385 261.323 3.44424 260.29 4.27661L260.318 4.29096Z" fill="black"/>
<path opacity="0.2" d="M249.504 17.652C248.944 17.4367 248.313 17.7237 248.097 18.2834C248.054 18.3839 248.04 18.4987 248.025 18.6135L248.672 19.6324V19.0584C248.672 19.6324 249.375 20.2065 249.892 19.7616C250.352 19.2449 250.352 18.4843 249.892 17.9677L249.504 17.652Z" fill="black"/>
<path opacity="0.2" d="M272.725 32.7495C271.892 31.8597 270.428 32.1754 269.135 32.3046C267.857 32.4337 266.249 31.7879 266.321 30.5824C266.378 29.3626 267.671 29.0468 268.748 28.9894C268.848 27.2242 267.513 25.7174 265.746 25.6026C265.631 25.6026 265.531 25.6026 265.416 25.6026C265.861 26.6215 265.861 27.7839 265.416 28.8029C265.014 29.7788 263.894 30.2523 262.917 29.8505C262.86 29.8218 262.788 29.7931 262.731 29.7644C261.137 28.5446 263.118 25.3586 261.582 24.067C260.749 23.6795 259.787 23.6795 258.954 24.067C255.881 24.7702 252.55 25.8609 251.343 28.8029C251.343 29.1186 248.787 28.8029 248.012 28.8029C247.236 28.8029 246.791 31.1708 246.662 32.0032C246.475 32.4481 246.475 32.9647 246.662 33.4096C246.662 33.9263 247.495 34.4285 247.236 34.9452C246.978 35.4618 246.59 35.3327 246.346 35.6484C246.088 35.9641 248.012 38.8487 248.644 39.1644C249.29 39.4802 251.07 39.1644 252.291 39.7385C253.196 40.3986 253.627 41.5324 253.382 42.6231H252.234C252.851 44.2017 252.32 45.9813 250.956 46.9715C252.607 46.6414 254.316 47.1724 255.493 48.3779C255.493 48.3779 256.068 49.0237 256.455 49.0237C256.714 48.9807 256.958 48.8802 257.159 48.708C258.451 47.9474 259.371 46.6988 259.715 45.2494H260.993C260.993 44.5461 260.993 43.398 260.232 43.6564C259.471 43.9147 260.232 43.6564 259.787 44.0439C259.342 44.4313 258.121 44.0439 258.064 42.9532C258.107 42.1064 258.423 41.3028 258.954 40.657C259.27 40.2695 259.528 39.8246 259.844 39.3797C260.433 38.3321 261.395 37.5284 262.53 37.1409C264.511 36.696 266.12 38.8057 267.067 40.5996C267.455 41.3602 267.642 42.58 267.067 42.7092C266.493 42.8384 266.177 42.3935 265.847 42.7092C265.531 43.0249 265.847 43.7281 265.201 44.0582C264.554 44.3883 264.497 44.0582 264.181 44.0582C263.865 44.0582 263.477 45.522 264.181 46.297C264.885 47.0576 265.143 45.8521 265.646 45.5364C266.163 45.2206 268.073 46.053 269.236 45.5364C270.385 45.0197 270.198 44.5748 270.643 44.13C271.088 43.6851 274.104 42.6661 274.291 41.0014C274.477 39.3367 273.644 39.2075 273.458 38.246C273.271 37.2844 273.903 34.0267 272.697 32.8069L272.725 32.7495Z" fill="black"/>
<path opacity="0.1" d="M234.972 45.2205C235.503 45.3497 236.049 45.3497 236.566 45.2205C237.327 45.2205 239.826 45.9237 238.806 47.3302C237.787 48.7366 236.178 45.7372 234.843 46.4978C235.604 46.4978 235.546 47.976 235.159 48.7366C234.771 49.4972 234.326 50.4587 234.843 51.1619C235.862 50.7171 236.896 51.6786 238.045 51.9226C239.194 52.1809 240.932 51.0902 242.396 51.3485V49.6838C242.396 49.1097 243.488 49.2389 243.99 48.8514C244.507 48.4639 245.139 48.019 245.656 48.4065C246.173 48.794 245.656 47.1292 245.656 46.5552C245.153 46.1103 244.708 45.6224 244.306 45.0914C243.99 44.5173 244.306 43.6132 244.694 43.4266C245.082 43.2401 245.914 43.4266 246.417 43.4266C246.833 43.1683 247.078 42.7091 247.063 42.2068C247.035 41.7188 247.035 41.2309 247.063 40.7286H245.843C245.972 41.2596 245.656 41.7906 245.139 41.9485C244.636 42.0776 244.105 42.0776 243.602 41.9485C243.803 40.4559 243.602 38.9347 243.028 37.5426H241.434C241.434 38.1884 240.73 38.5616 240.084 38.5616C239.481 38.4324 238.935 38.1454 238.49 37.7292C238.174 37.4135 237.787 37.0834 237.341 37.2126C236.896 37.3417 236.509 38.0449 236.58 38.6764C236.58 40.9726 235.618 40.3985 234.656 41.6758C233.809 42.7521 233.953 44.2877 234.972 45.1918V45.2205Z" fill="black"/>
<path opacity="0.1" d="M236.065 67.3501C234.786 67.5654 233.465 67.3932 232.288 66.8335C231.771 66.5177 231.139 66.1303 230.565 66.446C230.048 66.7761 229.804 67.3932 229.918 67.9816C229.918 68.4982 230.493 69.0005 230.68 69.5745C231.412 71.0671 231.412 72.8179 230.68 74.3104C228.167 74.7984 225.553 74.1956 223.514 72.6457C223.298 72.4304 223.112 72.1865 222.939 71.9425C222.494 70.9236 223.902 69.7611 223.643 68.7422C223.385 67.7232 221.403 66.9483 222.049 65.9867C222.695 65.0252 223.27 65.5993 223.844 65.3409C224.505 65.0109 224.778 64.2072 224.447 63.547C224.447 63.5327 224.433 63.504 224.419 63.4896C222.882 62.7721 221.058 63.2887 220.125 64.7095C219.034 64.7095 218.718 63.1165 218.66 62.0832C218.603 61.0643 217.899 59.5287 216.808 59.9018C216.42 60.074 216.162 60.4472 216.104 60.8634C215.271 63.2887 217.253 65.5993 219.048 67.264C219.522 67.6228 219.852 68.1538 219.938 68.7278C219.938 69.3736 219.551 70.0768 218.919 69.9477L221.159 72.4448C221.346 72.6888 221.446 72.9758 221.475 73.2772C221.518 73.4637 221.518 73.6646 221.475 73.8512C220.857 74.6692 220.283 75.5303 219.752 76.4057C217.626 72.373 216.075 68.0677 215.142 63.6188C214.266 59.5574 213.864 55.4243 213.921 51.2768C214.28 50.7314 214.754 50.3009 215.329 49.9995C216.032 49.9995 216.865 49.9995 217.511 49.612C219.105 49.1671 219.809 47.1149 221.417 46.4835C222.71 46.0386 224.131 46.4548 225.007 47.5024C225.826 48.6218 226.113 50.0569 225.768 51.4059C225.366 52.4249 225.237 53.5155 225.381 54.6062C226.027 56.4575 228.324 56.6585 230.249 56.5867C230.048 57.7635 230.636 58.9403 231.713 59.4713C232.719 59.8014 233.81 59.2417 234.126 58.2371C234.169 58.1223 234.183 57.9931 234.212 57.8783C235.433 57.8783 236.969 58.6389 236.969 59.9305C236.739 60.7198 236.237 61.3944 235.562 61.8536C235.045 62.4994 234.6 63.4466 235.117 64.0924C235.634 64.7382 237.357 64.0924 237.802 65.1831C238.247 66.2738 236.912 67.2353 236.079 67.3645L236.065 67.3501Z" fill="black"/>
<path opacity="0.2" d="M277.779 104.06H276.113C275.769 103.042 275.884 101.922 276.429 100.989C277.133 99.9704 278.411 99.2672 278.985 98.1047C279.244 97.3298 279.588 96.5692 280.005 95.866C281.096 94.1438 283.652 94.273 285.706 94.5887C285.189 93.6272 285.562 92.4217 286.524 91.905C287.544 91.5175 288.635 91.3453 289.727 91.3884C290.789 91.5032 291.852 91.1731 292.67 90.4986C292.67 90.1829 293.187 89.738 293.561 89.6088H294.451L300.209 90.312C300.209 88.9056 298.673 88.1307 297.323 88.0159C295.973 87.8867 294.379 88.0158 293.733 86.6094C292.211 89.0778 289.21 90.1972 286.438 89.3649C286.28 89.4366 286.094 89.4366 285.921 89.3649C285.347 88.6042 287.329 87.6427 286.682 86.9969L283.925 85.9062C283.537 85.9062 283.092 85.5905 282.906 85.203C282.719 84.8155 282.906 83.7966 283.48 83.0934C284.054 82.3902 283.164 80.2805 282.776 78.8741C282.389 77.4677 282.776 75.4155 284.37 75.4155H285.332C285.591 75.4155 285.979 74.3966 286.094 73.8225C286.481 72.1004 288.204 71.0671 289.684 70.0481C290.114 69.7037 290.531 69.3162 290.904 68.9C292.283 67.5941 293.101 65.8145 293.202 63.9058C291.952 64.6664 290.875 65.6997 290.071 66.9052C289.052 68.0533 287.515 69.0149 286.165 68.3116C286.409 70.163 285.318 71.9425 283.537 72.5309C281.714 72.9471 279.861 71.9712 279.186 70.2347C278.842 69.7324 278.842 69.0723 279.186 68.57C279.703 68.4121 280.263 68.4121 280.78 68.57C282.489 68.6848 284.112 67.8524 285.002 66.3886C283.021 66.4173 281.139 65.4558 280.005 63.8341C279 62.0689 279.531 59.8301 281.226 58.7107H279.947C280.335 57.089 281.642 55.8692 283.279 55.5821H285.648C286.438 55.4386 287.041 54.7928 287.127 53.9891C286.223 53.4151 285.72 52.3675 285.849 51.3055C286.065 50.4157 286.682 49.6838 287.515 49.325C287.041 49.3107 286.639 48.9662 286.553 48.4926C286.553 47.8325 286.998 47.2584 287.644 47.0862C288.319 46.9284 289.023 46.9284 289.698 47.0862C291.435 47.201 293.058 47.9903 294.236 49.2676C294.824 50.387 295.069 51.6499 294.939 52.9128V57.907C294.724 59.5431 295.27 61.1935 296.418 62.3846C297.194 62.8725 298.127 63.1022 299.046 63.0304C301.732 63.0448 304.388 62.4994 306.858 61.4374C308.165 60.9782 309.285 60.0741 309.989 58.8829C310.563 57.6631 310.778 56.314 310.635 54.9794C310.635 52.2957 311.152 48.0047 308.395 46.34C307.59 45.8233 306.571 45.8233 305.767 46.34C305.25 46.7274 304.876 47.3015 304.302 47.4881C303.728 47.6746 302.45 47.1723 301.674 47.4881C300.913 47.8038 300.971 48.3204 300.583 48.8371C300.324 49.3968 299.692 49.6694 299.104 49.4829C298.529 49.1671 299.104 48.2056 299.104 47.5024C299.104 46.7992 298.012 44.747 298.271 43.3406C298.529 41.9341 299.865 41.1592 300.769 40.1402C301.617 39.1931 302.335 38.1454 302.88 37.0117C303.713 36.6242 304.675 37.0117 305.436 37.7723C306.154 38.3894 307.16 38.5903 308.064 38.2889C308.768 39.1787 307.677 40.8434 308.711 41.5467H309.156C309.285 41.8911 309.285 42.2786 309.156 42.6373C309.156 43.9146 309.802 45.4502 311.08 45.8377H311.597C311.597 45.8377 311.597 45.8377 311.597 45.4502C311.884 43.7711 311.496 42.0489 310.506 40.6569C310.333 40.3555 310.175 40.0254 310.06 39.6954C309.974 39.3796 309.974 39.0495 310.06 38.7338C310.147 38.3607 310.276 37.9876 310.448 37.6431C310.405 37.4279 310.405 37.2126 310.448 36.9973C310.893 36.6098 311.539 36.9973 312.042 36.9973C312.545 36.8969 313.019 36.7103 313.449 36.4233C314.096 36.1363 314.842 36.1363 315.503 36.4233C315.948 37.9589 316.393 39.5518 316.781 41.1592C323.229 69.2875 305.81 97.3585 277.75 104.089L277.779 104.06Z" fill="black"/>
<path opacity="0.2" d="M269.982 87.4991C269.753 88.5467 269.753 89.6374 269.982 90.6994C268.762 91.4457 267.283 91.6753 265.89 91.3452C264.87 94.0863 266.077 97.1574 268.704 98.4491C267.843 99.1523 266.694 99.3675 265.631 99.0231C264.641 98.5926 263.736 97.9755 262.946 97.2292L256.541 92.3067C255.522 92.6942 256.154 94.2872 257.188 94.8038C258.207 95.3205 259.428 95.3779 259.945 96.3394C260.462 97.301 259.945 99.224 260.519 100.243C261.036 100.616 261.596 100.932 262.185 101.204C263.147 101.936 263.578 103.171 263.276 104.333V105.165C255.22 104.778 247.365 102.482 240.372 98.4491C240.401 98.0472 240.401 97.6454 240.372 97.2292C240.372 95.3061 242.167 94.0289 243.632 92.8808C245.283 91.9049 246.332 90.1828 246.446 88.2741C243.948 88.9199 242.986 92.0484 240.875 93.3974C240.315 93.7562 239.712 94.0289 239.08 94.2298C238.017 94.7752 237.012 95.4066 236.078 96.1529C230.895 92.6368 226.4 88.188 222.824 83.0359C223.858 81.6582 224.361 79.9504 224.231 78.2426C224.806 77.5394 225.696 78.8166 226.529 78.8884C227.362 78.9601 227.994 77.6685 228.956 77.6111C229.918 77.5537 230.306 80.3665 231.77 80.8688C233.235 81.3855 233.695 80.0365 234.714 79.9073C235.734 79.7781 236.954 80.7397 238.175 80.3522C241.693 79.2615 239.065 75.4297 239.582 73.2483C239.898 72.2294 241.176 72.0285 242.009 71.5262C243.244 70.6938 243.977 69.3018 243.991 67.8236C243.948 66.3885 243.718 64.9677 243.287 63.6043C242.742 62.284 242.856 60.7915 243.603 59.5717C244.953 58.1078 247.566 59.055 249.433 58.1078C251.286 57.1463 251.286 55.3524 252.636 54.3335C253.856 53.4867 255.307 53.0562 256.8 53.1136C257.188 53.0562 257.575 53.0562 257.949 53.1136C258.652 53.5011 258.523 54.5774 258.394 55.295C257.934 57.4907 257.274 59.6291 256.412 61.6956C258.078 62.4562 260.376 63.1595 261.596 61.6956C261.812 61.2938 262.099 60.9207 262.429 60.6049C263.118 60.2462 263.923 60.2462 264.612 60.6049C265.186 61.8822 265.832 63.102 266.464 64.2501C263.176 64.0492 260.132 66.0153 258.983 69.1152C258.911 69.5744 258.739 70.005 258.466 70.3925C258.021 70.9091 257.36 71.1961 256.671 71.1531C254.56 70.8661 252.521 70.2059 250.654 69.1726C248.6 68.5268 245.728 69.1726 245.211 70.9665C246.877 70.3925 248.284 72.1146 249.878 72.7604C250.812 73.0618 251.774 73.234 252.765 73.2771C255.149 73.4923 257.489 74.0951 259.672 75.071C261.309 74.4108 262.429 72.8752 262.558 71.11C264.124 73.3058 266.637 74.6404 269.336 74.6978C268.704 76.7787 268.704 79.0032 269.336 81.0985C270.097 82.634 271.634 84.0404 271.576 85.7626C270.758 86.0353 270.155 86.7098 269.982 87.5565V87.4991Z" fill="black"/>
<path d="M283.625 580.277C279.016 574.493 271.132 571.494 263.823 572.757C263.981 564.375 260.391 555.994 254.23 550.311C248.07 544.628 239.425 541.729 231.082 542.547C230.795 529.114 217.627 517.504 204.286 518.609V396.151H132.644V518.609C119.304 517.504 106.136 529.114 105.848 542.547C97.5053 541.729 88.8606 544.628 82.7001 550.311C76.5397 555.994 72.964 564.375 73.1076 572.757C65.8128 571.494 57.9291 574.479 53.3052 580.277C48.6956 586.06 47.5325 594.413 50.4045 601.244H286.512C289.384 594.413 288.22 586.074 283.611 580.277H283.625Z" fill="#407BFF"/>
<path opacity="0.8" d="M283.625 580.277C279.016 574.493 271.132 571.494 263.823 572.757C263.981 564.375 260.391 555.994 254.23 550.311C248.07 544.628 239.425 541.729 231.082 542.547C230.795 529.114 217.627 517.504 204.286 518.609V396.151H132.644V518.609C119.304 517.504 106.136 529.114 105.848 542.547C97.5053 541.729 88.8606 544.628 82.7001 550.311C76.5397 555.994 72.964 564.375 73.1076 572.757C65.8128 571.494 57.9291 574.479 53.3052 580.277C48.6956 586.06 47.5325 594.413 50.4045 601.244H286.512C289.384 594.413 288.22 586.074 283.611 580.277H283.625Z" fill="white"/>
<path d="M103.449 203.285C103.449 203.285 68.6121 220.836 58.1293 264.794C50.4897 296.854 52.8017 357.359 66.5729 362.224C80.3442 367.089 81.8807 329.618 81.9956 316.3C82.1105 302.982 94.6037 286.723 105.733 285.747C105.733 285.747 107.915 215.44 103.449 203.285Z" fill="#407BFF"/>
<path opacity="0.2" d="M108.662 211.996C100.419 215.139 93.6557 221.152 88.1702 227.897C82.3256 235.302 77.515 243.482 73.882 252.179C69.8468 261.479 66.903 271.223 65.1224 281.197C63.4566 291.717 62.6381 302.337 62.6812 312.985C62.4945 326.002 62.1786 339.564 67.262 351.834C67.463 352.322 68.2672 352.107 68.0662 351.619C63.672 340.927 63.3992 329.245 63.4853 317.85C63.5715 307.101 63.7438 296.295 65.266 285.632C67.9944 266.688 74.9015 247.53 86.1454 231.944C91.9756 223.864 99.4571 216.402 108.92 212.8C109.423 212.599 109.208 211.809 108.705 211.996H108.676H108.662Z" fill="black"/>
<path d="M222.781 203.285C222.781 203.285 257.618 220.836 268.101 264.794C275.74 296.854 273.428 357.359 259.657 362.224C245.886 367.075 244.349 329.618 244.235 316.3C244.12 302.982 231.626 286.723 220.512 285.747C220.512 285.747 218.329 215.44 222.795 203.285H222.781Z" fill="#407BFF"/>
<path opacity="0.2" d="M217.354 212.785C225.639 215.943 232.403 222.085 237.86 228.945C243.561 236.307 248.242 244.387 251.789 252.997C255.767 262.254 258.653 271.941 260.391 281.858C262.214 292.305 262.573 302.911 262.688 313.502C262.861 326.289 263.133 339.564 258.179 351.619C257.978 352.107 258.782 352.322 258.983 351.834C263.435 340.999 263.665 329.145 263.564 317.592C263.478 306.7 263.277 295.764 261.697 284.972C260.175 274.696 257.418 264.636 253.498 255.007C250.095 246.31 245.586 238.087 240.086 230.538C234.27 222.673 226.86 215.555 217.584 212.01C217.081 211.809 216.865 212.613 217.368 212.814L217.354 212.785Z" fill="black"/>
<path d="M210.805 336.88H114.55C114.55 336.88 96.9305 269.2 103.838 193.311C105.704 173.205 110.802 153.529 118.959 135.045C119.074 134.758 119.203 134.471 119.332 134.198C121.342 129.62 123.468 125.3 125.65 121.196C134.195 105.022 144.864 90.0539 157.357 76.6785C160.129 73.5213 164.939 73.2055 168.113 75.9753C168.357 76.1906 168.601 76.4346 168.817 76.6785C181.712 90.47 192.654 105.969 201.342 122.732C203.525 126.936 205.636 131.371 207.646 136.021L208.005 136.839C215.688 154.806 220.541 173.851 222.351 193.311C229.243 269.243 210.82 336.88 210.82 336.88H210.805Z" fill="#407BFF"/>
<g opacity="0.5">
<path d="M210.805 336.88H114.55C114.55 336.88 96.9305 269.2 103.838 193.311C105.704 173.205 110.802 153.529 118.959 135.045C119.074 134.758 119.203 134.471 119.332 134.198C121.342 129.62 123.468 125.3 125.65 121.196C134.195 105.022 144.864 90.0539 157.357 76.6785C160.129 73.5213 164.939 73.2055 168.113 75.9753C168.357 76.1906 168.601 76.4346 168.817 76.6785C181.712 90.47 192.654 105.969 201.342 122.732C203.525 126.936 205.636 131.371 207.646 136.021L208.005 136.839C215.688 154.806 220.541 173.851 222.351 193.311C229.243 269.243 210.82 336.88 210.82 336.88H210.805Z" fill="white"/>
</g>
<path d="M200.164 327.236H127.99V328.341H200.164V327.236Z" fill="#407BFF"/>
<path d="M213.001 362.655H115.712C108.776 352.681 116.114 336.895 116.114 336.895H211.034C211.034 336.895 218.329 349.782 213.001 362.655Z" fill="#2E353A"/>
<path d="M188.418 371.696H139.766C136.334 366.702 139.967 358.809 139.967 358.809H187.427C187.427 358.809 191.074 365.238 188.418 371.696Z" fill="#2E353A"/>
<path d="M188.445 371.696H139.937C130.115 376.906 105.689 389.348 109.106 410.416H220.54C223.958 389.348 198.282 376.891 188.46 371.696H188.445Z" fill="#407BFF"/>
<path d="M223.887 405.952H104.914V415.123H223.887V405.952Z" fill="#2E353A"/>
<path d="M201.326 122.746C192.552 129.017 179.126 136.049 163.086 136.049C149.171 135.963 135.802 130.653 125.635 121.167C126.554 119.431 127.473 117.752 128.406 116.101L128.851 115.341C136.792 101.377 146.356 88.3891 157.342 76.6641C160.113 73.5069 164.924 73.1911 168.097 75.9609C168.341 76.1762 168.586 76.4202 168.801 76.6641C179.815 88.4178 189.393 101.449 197.349 115.455L197.794 116.245C199 118.354 200.163 120.536 201.326 122.76V122.746Z" fill="#407BFF"/>
<path opacity="0.2" d="M197.808 116.259C194.994 118.283 192.007 120.048 188.876 121.555C177.876 126.865 165.498 128.644 153.436 126.635C144.403 125.085 135.83 121.483 128.406 116.13L128.851 115.369C131.867 117.565 135.098 119.459 138.473 121.038C149.458 126.219 161.793 127.812 173.741 125.616C182.256 124.009 190.327 120.55 197.363 115.484L197.808 116.259Z" fill="black"/>
<path d="M209.21 205.438C204.801 160.92 201.355 143.096 200.953 141.144C202.619 140.24 204.17 139.322 205.534 138.432C206.367 137.915 207.171 137.384 207.946 136.867L207.587 136.049C206.769 136.595 205.936 137.198 205.06 137.7C195.898 143.483 181.165 150.386 163.43 150.386C149.458 150.386 135.802 146.11 124.342 138.116C122.447 136.81 120.767 135.49 119.273 134.241C119.144 134.514 119.015 134.801 118.9 135.088C120.35 136.308 121.987 137.556 123.811 138.834C124.96 139.637 126.252 140.47 127.616 141.302C127.128 143.77 123.725 161.738 119.388 205.423C115.956 239.55 119.087 273.505 122.275 295.979C124.17 309.771 126.769 323.462 130.086 336.981C130.129 337.167 130.302 337.296 130.488 337.296H130.589C130.804 337.239 130.934 337.009 130.891 336.794C127.588 323.29 124.989 309.642 123.093 295.864C119.905 273.448 116.832 239.565 120.207 205.524C124.4 163.216 127.717 145.076 128.363 141.718C138.99 148.018 151.109 151.348 163.473 151.333C176.311 151.176 188.905 147.846 200.134 141.646C200.709 144.56 204.069 162.599 208.334 205.595C211.709 239.636 208.636 273.505 205.448 295.936C203.566 309.699 200.967 323.361 197.65 336.866C197.593 337.081 197.736 337.311 197.952 337.368H198.052C198.239 337.368 198.411 337.239 198.454 337.052C201.771 323.534 204.371 309.843 206.266 296.051C209.497 273.534 212.585 239.579 209.196 205.466L209.21 205.438Z" fill="#407BFF"/>
<path d="M163.489 252.696C145.884 252.696 131.596 238.445 131.596 220.836C131.596 203.242 145.855 188.962 163.475 188.962C181.08 188.962 195.368 203.213 195.368 220.822V220.851C195.354 238.431 181.095 252.696 163.489 252.71V252.696ZM163.489 189.809C146.343 189.809 132.443 203.701 132.443 220.836C132.443 237.972 146.343 251.864 163.489 251.864C180.635 251.864 194.536 237.972 194.536 220.836C194.521 203.701 180.621 189.823 163.489 189.809Z" fill="#407BFF"/>
<path d="M187.628 220.822C187.628 234.154 176.815 244.946 163.489 244.946H162.929C158.836 244.86 154.844 243.741 151.326 241.674C148.598 240.081 146.214 237.972 144.29 235.475C141.073 231.27 139.335 226.132 139.35 220.836C139.35 219.904 139.407 218.956 139.508 218.038C140.829 206.944 149.574 198.204 160.674 196.884C161.608 196.784 162.555 196.726 163.489 196.726C176.6 196.741 187.298 207.188 187.614 220.277C187.614 220.463 187.614 220.65 187.614 220.822H187.628Z" fill="#407BFF"/>
<path opacity="0.1" d="M178.122 201.692L144.29 235.503C141.073 231.298 139.335 226.16 139.35 220.865C139.35 219.932 139.407 218.985 139.508 218.066L160.674 196.913C161.608 196.812 162.555 196.755 163.489 196.755C168.773 196.755 173.914 198.477 178.122 201.692Z" fill="white"/>
<path opacity="0.1" d="M187.613 220.262L162.913 244.946C158.821 244.86 154.829 243.741 151.311 241.674L184.324 208.695C186.392 212.211 187.526 216.201 187.613 220.277V220.262Z" fill="white"/>
<path d="M237.084 468.595H98.3809V601.545H237.084V468.595Z" fill="#407BFF"/>
<path opacity="0.4" d="M237.084 468.595H98.3809V601.545H237.084V468.595Z" fill="white"/>
<path opacity="0.4" d="M237.055 468.595H142.523V601.545H237.055V468.595Z" fill="white"/>
<path d="M232.331 475.398H147.248V491.859H232.331V475.398Z" fill="#407BFF"/>
<path d="M232.331 495.978H147.248V512.438H232.331V495.978Z" fill="#407BFF"/>
<path d="M232.331 516.543H147.248V533.004H232.331V516.543Z" fill="#407BFF"/>
<path d="M232.331 537.137H147.248V553.598H232.331V537.137Z" fill="#407BFF"/>
<path d="M232.331 557.716H147.248V574.177H232.331V557.716Z" fill="#407BFF"/>
<path d="M232.331 578.296H147.248V594.757H232.331V578.296Z" fill="#407BFF"/>
<path d="M137.585 475.398H103.336V491.859H137.585V475.398Z" fill="#407BFF"/>
<path d="M137.585 495.978H103.336V512.438H137.585V495.978Z" fill="#407BFF"/>
<path d="M137.585 516.543H103.336V533.004H137.585V516.543Z" fill="#407BFF"/>
<path d="M137.585 537.137H103.336V553.598H137.585V537.137Z" fill="#407BFF"/>
<path d="M137.585 557.716H103.336V574.177H137.585V557.716Z" fill="#407BFF"/>
<path d="M137.585 578.296H103.336V594.757H137.585V578.296Z" fill="#407BFF"/>
<path opacity="0.3" d="M228.167 477.536H226.186V489.72H228.167V477.536Z" fill="white"/>
<path opacity="0.3" d="M224.347 477.536H222.365V489.72H224.347V477.536Z" fill="white"/>
<path opacity="0.3" d="M220.527 477.536H218.545V489.72H220.527V477.536Z" fill="white"/>
<path opacity="0.3" d="M216.706 477.536H214.725V489.72H216.706V477.536Z" fill="white"/>
<path opacity="0.3" d="M212.872 477.536H210.891V489.72H212.872V477.536Z" fill="white"/>
<path opacity="0.3" d="M228.167 498.116H226.186V510.286H228.167V498.116Z" fill="white"/>
<path opacity="0.3" d="M224.347 498.116H222.365V510.286H224.347V498.116Z" fill="white"/>
<path opacity="0.3" d="M220.527 498.116H218.545V510.286H220.527V498.116Z" fill="white"/>
<path opacity="0.3" d="M216.706 498.116H214.725V510.286H216.706V498.116Z" fill="white"/>
<path opacity="0.3" d="M212.872 498.116H210.891V510.286H212.872V498.116Z" fill="white"/>
<path opacity="0.3" d="M228.167 518.696H226.186V530.865H228.167V518.696Z" fill="white"/>
<path opacity="0.3" d="M224.347 518.696H222.365V530.865H224.347V518.696Z" fill="white"/>
<path opacity="0.3" d="M220.527 518.696H218.545V530.865H220.527V518.696Z" fill="white"/>
<path opacity="0.3" d="M216.706 518.696H214.725V530.865H216.706V518.696Z" fill="white"/>
<path opacity="0.3" d="M212.872 518.696H210.891V530.865H212.872V518.696Z" fill="white"/>
<path opacity="0.3" d="M228.167 539.29H226.186V551.474H228.167V539.29Z" fill="white"/>
<path opacity="0.3" d="M224.347 539.29H222.365V551.474H224.347V539.29Z" fill="white"/>
<path opacity="0.3" d="M220.527 539.29H218.545V551.474H220.527V539.29Z" fill="white"/>
<path opacity="0.3" d="M216.706 539.29H214.725V551.474H216.706V539.29Z" fill="white"/>
<path opacity="0.3" d="M212.872 539.29H210.891V551.474H212.872V539.29Z" fill="white"/>
<path opacity="0.3" d="M228.167 559.869H226.186V572.039H228.167V559.869Z" fill="white"/>
<path opacity="0.3" d="M224.347 559.869H222.365V572.039H224.347V559.869Z" fill="white"/>
<path opacity="0.3" d="M220.527 559.869H218.545V572.039H220.527V559.869Z" fill="white"/>
<path opacity="0.3" d="M216.706 559.869H214.725V572.039H216.706V559.869Z" fill="white"/>
<path opacity="0.3" d="M212.872 559.869H210.891V572.039H212.872V559.869Z" fill="white"/>
<path opacity="0.3" d="M228.167 580.434H226.186V592.619H228.167V580.434Z" fill="white"/>
<path opacity="0.3" d="M224.347 580.434H222.365V592.619H224.347V580.434Z" fill="white"/>
<path opacity="0.3" d="M220.527 580.434H218.545V592.619H220.527V580.434Z" fill="white"/>
<path opacity="0.3" d="M216.706 580.434H214.725V592.619H216.706V580.434Z" fill="white"/>
<path opacity="0.3" d="M212.872 580.434H210.891V592.619H212.872V580.434Z" fill="white"/>
<path opacity="0.2" d="M157.141 483.621C157.141 484.741 156.237 485.645 155.117 485.645C153.996 485.645 153.092 484.741 153.092 483.621C153.092 482.502 153.996 481.598 155.117 481.598C156.237 481.598 157.141 482.502 157.141 483.621Z" fill="white"/>
<path opacity="0.2" d="M169.88 483.621C169.88 484.741 168.975 485.645 167.855 485.645C166.735 485.645 165.83 484.741 165.83 483.621C165.83 482.502 166.735 481.598 167.855 481.598C168.975 481.598 169.88 482.502 169.88 483.621Z" fill="white"/>
<path opacity="0.4" d="M182.616 483.621C182.616 484.741 181.711 485.645 180.591 485.645C179.471 485.645 178.566 484.741 178.566 483.621C178.566 482.502 179.471 481.598 180.591 481.598C181.711 481.598 182.616 482.502 182.616 483.621Z" fill="white"/>
<path opacity="0.4" d="M157.141 504.201C157.141 505.32 156.237 506.224 155.117 506.224C153.996 506.224 153.092 505.32 153.092 504.201C153.092 503.081 153.996 502.177 155.117 502.177C156.237 502.177 157.141 503.081 157.141 504.201Z" fill="white"/>
<path opacity="0.2" d="M169.88 504.201C169.88 505.32 168.975 506.224 167.855 506.224C166.735 506.224 165.83 505.32 165.83 504.201C165.83 503.081 166.735 502.177 167.855 502.177C168.975 502.177 169.88 503.081 169.88 504.201Z" fill="white"/>
<path opacity="0.4" d="M182.616 504.201C182.616 505.32 181.711 506.224 180.591 506.224C179.471 506.224 178.566 505.32 178.566 504.201C178.566 503.081 179.471 502.177 180.591 502.177C181.711 502.177 182.616 503.081 182.616 504.201Z" fill="white"/>
<path opacity="0.2" d="M157.141 524.78C157.141 525.9 156.237 526.804 155.117 526.804C153.996 526.804 153.092 525.9 153.092 524.78C153.092 523.661 153.996 522.757 155.117 522.757C156.237 522.757 157.141 523.661 157.141 524.78Z" fill="white"/>
<path opacity="0.4" d="M169.88 524.78C169.88 525.9 168.975 526.804 167.855 526.804C166.735 526.804 165.83 525.9 165.83 524.78C165.83 523.661 166.735 522.757 167.855 522.757C168.975 522.757 169.88 523.661 169.88 524.78Z" fill="white"/>
<path opacity="0.2" d="M182.616 524.78C182.616 525.9 181.711 526.804 180.591 526.804C179.471 526.804 178.566 525.9 178.566 524.78C178.566 523.661 179.471 522.757 180.591 522.757C181.711 522.757 182.616 523.661 182.616 524.78Z" fill="white"/>
<path opacity="0.4" d="M157.141 545.374C157.141 546.494 156.237 547.398 155.117 547.398C153.996 547.398 153.092 546.494 153.092 545.374C153.092 544.255 153.996 543.351 155.117 543.351C156.237 543.351 157.141 544.255 157.141 545.374Z" fill="white"/>
<path opacity="0.2" d="M169.88 545.374C169.88 546.494 168.975 547.398 167.855 547.398C166.735 547.398 165.83 546.494 165.83 545.374C165.83 544.255 166.735 543.351 167.855 543.351C168.975 543.351 169.88 544.255 169.88 545.374Z" fill="white"/>
<path opacity="0.2" d="M182.616 545.374C182.616 546.494 181.711 547.398 180.591 547.398C179.471 547.398 178.566 546.494 178.566 545.374C178.566 544.255 179.471 543.351 180.591 543.351C181.711 543.351 182.616 544.255 182.616 545.374Z" fill="white"/>
<path opacity="0.2" d="M157.141 565.954C157.141 567.073 156.237 567.978 155.117 567.978C153.996 567.978 153.092 567.073 153.092 565.954C153.092 564.835 153.996 563.931 155.117 563.931C156.237 563.931 157.141 564.835 157.141 565.954Z" fill="white"/>
<path opacity="0.4" d="M169.88 565.954C169.88 567.073 168.975 567.978 167.855 567.978C166.735 567.978 165.83 567.073 165.83 565.954C165.83 564.835 166.735 563.931 167.855 563.931C168.975 563.931 169.88 564.835 169.88 565.954Z" fill="white"/>
<path opacity="0.4" d="M182.616 565.954C182.616 567.073 181.711 567.978 180.591 567.978C179.471 567.978 178.566 567.073 178.566 565.954C178.566 564.835 179.471 563.931 180.591 563.931C181.711 563.931 182.616 564.835 182.616 565.954Z" fill="white"/>
<path opacity="0.4" d="M157.141 586.534C157.141 587.653 156.237 588.557 155.117 588.557C153.996 588.557 153.092 587.653 153.092 586.534C153.092 585.414 153.996 584.51 155.117 584.51C156.237 584.51 157.141 585.414 157.141 586.534Z" fill="white"/>
<path opacity="0.2" d="M169.88 586.534C169.88 587.653 168.975 588.557 167.855 588.557C166.735 588.557 165.83 587.653 165.83 586.534C165.83 585.414 166.735 584.51 167.855 584.51C168.975 584.51 169.88 585.414 169.88 586.534Z" fill="white"/>
<path opacity="0.4" d="M182.616 586.534C182.616 587.653 181.711 588.557 180.591 588.557C179.471 588.557 178.566 587.653 178.566 586.534C178.566 585.414 179.471 584.51 180.591 584.51C181.711 584.51 182.616 585.414 182.616 586.534Z" fill="white"/>
<path opacity="0.3" d="M142.523 468.595H98.3809V601.545H142.523V468.595Z" fill="black"/>
<path d="M572.232 501.589H502.385V601.358H572.232V501.589Z" fill="#407BFF"/>
<path opacity="0.2" d="M572.218 501.589H549.486V601.545H572.218V501.589Z" fill="black"/>
<path d="M472.817 530.449H410.193V601.545H472.817V530.449Z" fill="#407BFF"/>
<path opacity="0.2" d="M472.833 530.449H452.441V601.545H472.833V530.449Z" fill="black"/>
<path d="M667.094 443.71H598.826V601.545H667.094V443.71Z" fill="#407BFF"/>
<path opacity="0.2" d="M667.094 443.71H644.865V601.545H667.094V443.71Z" fill="black"/>
<path d="M613.286 264.478H560.729C555.975 264.478 552.127 268.324 552.127 273.075V301.433C552.127 306.183 555.975 310.029 560.729 310.029H573.294L573.394 318.611L582.857 310.029H613.272C618.025 310.029 621.873 306.183 621.873 301.433V273.075C621.873 268.324 618.025 264.478 613.272 264.478H613.286Z" fill="#407BFF"/>
<path d="M580.546 282.776L572.26 286.651L580.546 290.511V293.626L569.475 288.258V285.015L580.546 279.647V282.762V282.776Z" fill="white"/>
<path d="M605.763 285.029V288.273L594.691 293.64V290.526L602.977 286.665L594.691 282.79V279.676L605.763 285.043V285.029Z" fill="white"/>
<path d="M589.55 277.48L584.15 296.137H586.85L592.249 277.48H589.55Z" fill="white"/>
<path d="M601.166 262.541H574.17C573.969 262.541 573.811 262.383 573.811 262.182C573.811 261.981 573.969 261.823 574.17 261.823H601.166C601.367 261.823 601.525 261.981 601.525 262.182C601.525 262.383 601.367 262.541 601.166 262.541Z" fill="#407BFF"/>
<path d="M608.604 262.555H604.339C604.138 262.555 603.98 262.397 603.98 262.196C603.98 261.996 604.138 261.838 604.339 261.838H608.604C608.805 261.838 608.963 261.996 608.963 262.196C608.963 262.397 608.805 262.555 608.604 262.555Z" fill="#407BFF"/>
<path d="M615.972 67.8669H470.649C466.731 67.8669 463.555 71.041 463.555 74.9564V194.818C463.555 198.733 466.731 201.907 470.649 201.907H615.972C619.89 201.907 623.066 198.733 623.066 194.818V74.9564C623.066 71.041 619.89 67.8669 615.972 67.8669Z" fill="#407BFF"/>
<path opacity="0.5" d="M615.972 67.8669H470.649C466.731 67.8669 463.555 71.041 463.555 74.9564V194.818C463.555 198.733 466.731 201.907 470.649 201.907H615.972C619.89 201.907 623.066 198.733 623.066 194.818V74.9564C623.066 71.041 619.89 67.8669 615.972 67.8669Z" fill="white"/>
<path d="M470.203 67.8669H616.545C620.15 67.8669 623.079 70.7946 623.079 74.3967V91.2451H463.568V74.5115C463.568 70.852 466.541 67.8669 470.217 67.8669H470.203Z" fill="#407BFF"/>
<path opacity="0.5" d="M614.062 81.2709C614.062 84.0837 611.779 86.3799 608.95 86.3799C606.121 86.3799 603.838 84.0981 603.838 81.2709C603.838 78.4437 606.121 76.1619 608.95 76.1619C611.779 76.1619 614.062 78.4437 614.062 81.2709Z" fill="white"/>
<path opacity="0.5" d="M599.545 81.2709C599.545 84.0837 597.261 86.3799 594.432 86.3799C591.604 86.3799 589.32 84.0981 589.32 81.2709C589.32 78.4437 591.604 76.1619 594.432 76.1619C597.261 76.1619 599.545 78.4437 599.545 81.2709Z" fill="white"/>
<path opacity="0.5" d="M585.041 81.2709C585.041 84.0837 582.757 86.3799 579.929 86.3799C577.1 86.3799 574.816 84.0981 574.816 81.2709C574.816 78.4437 577.1 76.1619 579.929 76.1619C582.757 76.1619 585.041 78.4437 585.041 81.2709Z" fill="white"/>
<path opacity="0.6" d="M581.264 110.792H499.455V115.556H581.264V110.792Z" fill="white"/>
<path opacity="0.6" d="M559.278 121.081H500.732V125.846H559.278V121.081Z" fill="#263238"/>
<path d="M603.379 110.792H587.281V115.556H603.379V110.792Z" fill="#407BFF"/>
<path d="M493.783 110.792H477.686V115.556H493.783V110.792Z" fill="#407BFF"/>
<path d="M581.264 132.519H499.455V137.284H581.264V132.519Z" fill="#407BFF"/>
<path opacity="0.6" d="M603.379 132.519H587.281V137.284H603.379V132.519Z" fill="white"/>
<path d="M493.783 132.519H477.686V137.284H493.783V132.519Z" fill="#407BFF"/>
<path d="M581.264 177.826H499.455V182.591H581.264V177.826Z" fill="#407BFF"/>
<path opacity="0.6" d="M603.379 177.826H587.281V182.591H603.379V177.826Z" fill="white"/>
<path d="M581.264 143.971H499.455V148.736H581.264V143.971Z" fill="#407BFF"/>
<path opacity="0.6" d="M603.379 143.971H587.281V148.736H603.379V143.971Z" fill="#263238"/>
<path opacity="0.6" d="M493.783 143.971H477.686V148.736H493.783V143.971Z" fill="#263238"/>
<path d="M604.57 121.268H565.684V126.032H604.57V121.268Z" fill="#407BFF"/>
<path opacity="0.6" d="M558.001 153.96H499.455V158.724H558.001V153.96Z" fill="white"/>
<path d="M603.291 154.146H564.404V158.911H603.291V154.146Z" fill="#407BFF"/>
<path opacity="0.6" d="M528.721 164.307H499.455V169.072H528.721V164.307Z" fill="#263238"/>
<path d="M237.141 161.221V372.399C237.141 376.044 240.099 378.986 243.732 378.986H533.833V161.221C533.833 159.27 532.253 157.691 530.3 157.691H240.659C238.706 157.691 237.141 159.27 237.141 161.207V161.221Z" fill="#407BFF"/>
<path opacity="0.9" d="M527.414 157.705H243.56C240.014 157.705 237.141 160.577 237.141 164.12V372.586C237.141 376.129 240.014 379.001 243.56 379.001H527.414C530.959 379.001 533.833 376.129 533.833 372.586V164.12C533.833 160.577 530.959 157.705 527.414 157.705Z" fill="white"/>
<path d="M240.802 157.705H530.846C532.497 157.705 533.833 159.04 533.833 160.69V175.472H237.141V161.379C237.141 159.356 238.778 157.72 240.802 157.72V157.705Z" fill="#407BFF"/>
<path opacity="0.5" d="M529.323 165.842C529.825 168.497 527.542 170.794 524.885 170.291C523.406 170.019 522.2 168.799 521.927 167.335C521.425 164.68 523.708 162.384 526.365 162.886C527.844 163.173 529.05 164.379 529.323 165.842Z" fill="white"/>
<path opacity="0.5" d="M518.612 165.842C519.114 168.497 516.831 170.794 514.175 170.291C512.695 170.019 511.489 168.799 511.216 167.335C510.714 164.68 512.997 162.384 515.654 162.886C517.133 163.173 518.339 164.379 518.612 165.842Z" fill="white"/>
<path opacity="0.5" d="M507.883 165.842C508.386 168.497 506.103 170.794 503.446 170.291C501.967 170.019 500.761 168.799 500.488 167.335C499.985 164.68 502.268 162.384 504.925 162.886C506.404 163.173 507.61 164.379 507.883 165.857V165.842Z" fill="white"/>
<path d="M512.02 284.642C508.488 275.357 504.108 266.344 498.939 257.733C496.095 252.983 492.534 248.003 486.89 246.367C479.926 244.344 472.401 248.29 467.749 253.457C463.082 258.609 460.238 264.952 455.758 270.247C451.278 275.543 444.169 279.892 437.033 278.485C429.809 277.064 423.979 270.09 416.728 271.41C409.576 272.716 406.015 281.571 398.749 282.145C393.421 282.561 389.171 278.27 386.241 274.18C381.014 266.904 376.835 258.896 370.359 252.509C363.883 246.123 354.233 241.473 344.971 243.497C338.638 244.875 333.526 249.108 329.304 253.658C322.454 261.034 317.17 269.616 313.824 278.801C312.416 282.69 310.708 287.282 306.4 288.402C302.436 289.421 298.43 286.78 296.003 283.738C293.576 280.695 291.925 277.064 288.794 274.625C282.275 269.544 271.663 271.826 265.66 277.423C259.658 283.02 257.116 290.899 254.775 298.433V331.341H512.135L512.049 284.656L512.02 284.642Z" fill="#407BFF"/>
<g opacity="0.3">
<path d="M512.02 284.642C508.488 275.357 504.108 266.344 498.939 257.733C496.095 252.983 492.534 248.003 486.89 246.367C479.926 244.344 472.401 248.29 467.749 253.457C463.082 258.609 460.238 264.952 455.758 270.247C451.278 275.543 444.169 279.892 437.033 278.485C429.809 277.064 423.979 270.09 416.728 271.41C409.576 272.716 406.015 281.571 398.749 282.145C393.421 282.561 389.171 278.27 386.241 274.18C381.014 266.904 376.835 258.896 370.359 252.509C363.883 246.123 354.233 241.473 344.971 243.497C338.638 244.875 333.526 249.108 329.304 253.658C322.454 261.034 317.17 269.616 313.824 278.801C312.416 282.69 310.708 287.282 306.4 288.402C302.436 289.421 298.43 286.78 296.003 283.738C293.576 280.695 291.925 277.064 288.794 274.625C282.275 269.544 271.663 271.826 265.66 277.423C259.658 283.02 257.116 290.899 254.775 298.433V331.341H512.135L512.049 284.656L512.02 284.642Z" fill="white"/>
</g>
<path d="M512.538 284.498C510.068 278.04 507.225 271.726 503.994 265.612C501.179 260.288 498.278 254.432 493.97 250.127C490.151 246.31 485.067 244.544 479.725 245.635C474.053 246.783 469.271 250.543 465.739 254.992C461.703 260.087 458.903 266.114 454.452 270.893C450 275.672 443.524 279.332 436.918 277.911C431.49 276.749 427.268 272.702 421.969 271.209C417.231 269.874 413.195 271.64 409.605 274.696C405.786 277.954 401.865 282.647 396.236 281.441C389.947 280.107 386.156 273.276 382.924 268.339C376.247 258.164 369.196 247.472 356.947 243.655C351.433 241.933 345.574 242.09 340.29 244.501C334.747 247.027 330.281 251.49 326.418 256.083C322.325 260.934 318.821 266.301 316.079 272.027C314.801 274.696 313.781 277.437 312.718 280.178C311.742 282.733 310.493 285.603 308.066 287.096C304.864 289.048 301.13 287.742 298.473 285.503C296.09 283.494 294.596 280.724 292.801 278.227C289.786 274.022 285.75 271.439 280.495 271.266C275.627 271.109 270.629 272.831 266.766 275.773C262.214 279.26 259.285 284.412 257.188 289.65C256.054 292.477 255.149 295.376 254.245 298.275C254.044 298.936 255.077 299.223 255.278 298.562C258.725 287.469 263.579 275.055 276.416 272.658C282.548 271.51 288.005 273.505 291.71 278.542C294.783 282.719 297.425 287.899 303.025 289.004C307.98 289.966 311.268 286.292 313.077 282.159C314.169 279.647 315.002 277.036 316.107 274.524C317.4 271.611 318.879 268.798 320.545 266.071C323.891 260.575 327.954 255.365 332.693 251.002C337.432 246.64 343.205 243.454 349.796 243.554C363.337 243.755 372.628 254.676 379.478 265.052C384.188 272.199 391.497 286.766 402.368 281.7C406.604 279.734 409.318 275.629 413.296 273.29C418.623 270.161 423.807 272.816 428.661 275.514C433.515 278.212 437.909 280.078 443.294 278.901C448.679 277.724 453.49 273.979 456.922 269.659C460.942 264.593 463.757 258.652 468.122 253.844C472.129 249.438 478.045 245.922 484.191 246.424C490.337 246.927 494.803 252.064 497.934 257.13C501.452 262.814 504.554 268.769 507.34 274.84C508.833 278.112 510.226 281.441 511.504 284.8C511.748 285.445 512.796 285.158 512.538 284.513V284.498Z" fill="#407BFF"/>
<path d="M270.413 353.642C272.658 353.642 274.477 351.824 274.477 349.581C274.477 347.338 272.658 345.52 270.413 345.52C268.169 345.52 266.35 347.338 266.35 349.581C266.35 351.824 268.169 353.642 270.413 353.642Z" fill="#407BFF"/>
<path d="M279.804 348.017H353.887C354.577 348.017 354.577 346.94 353.887 346.94H279.804C279.115 346.94 279.115 348.017 279.804 348.017Z" fill="#263238"/>
<path d="M279.804 352.953H320.601C321.29 352.953 321.29 351.877 320.601 351.877H279.804C279.115 351.877 279.115 352.953 279.804 352.953Z" fill="#263238"/>
<path d="M386.556 353.642C388.801 353.642 390.62 351.824 390.62 349.581C390.62 347.338 388.801 345.52 386.556 345.52C384.312 345.52 382.492 347.338 382.492 349.581C382.492 351.824 384.312 353.642 386.556 353.642Z" fill="#407BFF"/>
<path d="M395.949 348.017H470.032C470.721 348.017 470.721 346.94 470.032 346.94H395.949C395.259 346.94 395.259 348.017 395.949 348.017Z" fill="#263238"/>
<path d="M395.949 352.953H436.745C437.435 352.953 437.435 351.877 436.745 351.877H395.949C395.259 351.877 395.259 352.953 395.949 352.953Z" fill="#263238"/>
<path d="M525.333 567.848L529.971 594.599L518.972 599.034L509.824 570.977L525.333 567.848Z" fill="#E9B376"/>
<path d="M526.553 592.403C525.806 594.412 524.025 595.388 522.115 595.015L520.837 593.207C519.732 591.657 518.195 591.097 516.515 592.231C515.682 592.791 514.978 594.384 515.065 596.35C515.208 599.895 513.801 602.162 513.801 602.162C513.801 602.162 507.784 610.242 505.343 612.595C503.893 614.002 501.983 615.968 501.695 618.436C501.609 619.14 501.609 619.929 501.695 620.804C501.782 621.522 502.471 622.885 502.485 622.914L522.876 612.552C522.876 612.552 524.341 610.285 525.246 609.869C526.854 609.122 528.247 610.141 528.247 610.141L535.686 606.424C535.686 606.424 535.24 605.205 534.609 603.439C534.321 602.636 533.991 601.732 533.646 600.77C532.153 596.651 530.43 591.384 529.999 590.222C529.238 588.184 526.553 592.375 526.553 592.375V592.403Z" fill="#263238"/>
<path d="M510.455 606.353C510.498 606.223 510.642 606.137 510.786 606.152C511.432 606.209 512.049 606.439 512.595 606.826C512.882 607.041 512.58 607.529 512.279 607.314C511.791 606.955 511.245 606.769 510.685 606.711C510.498 606.697 510.383 606.525 510.455 606.353Z" fill="#407BFF"/>
<path d="M511.604 604.702C511.647 604.573 511.79 604.487 511.934 604.501C512.58 604.559 513.198 604.788 513.743 605.176C514.031 605.391 513.729 605.879 513.427 605.664C512.939 605.305 512.393 605.118 511.833 605.061C511.647 605.047 511.532 604.874 511.604 604.702Z" fill="#407BFF"/>
<path d="M512.824 603.095C512.867 602.966 513.011 602.88 513.155 602.894C513.801 602.951 514.418 603.181 514.964 603.569C515.251 603.784 514.95 604.272 514.648 604.056C514.16 603.698 513.614 603.511 513.054 603.454C512.867 603.439 512.753 603.267 512.824 603.095Z" fill="#407BFF"/>
<path opacity="0.2" d="M501.666 619.742C501.666 620.101 501.695 620.489 501.738 620.89C501.824 621.608 502.513 622.971 502.528 623L522.919 612.638C522.919 612.638 524.384 610.371 525.288 609.955C526.897 609.208 528.289 610.227 528.289 610.227L535.728 606.51C535.728 606.51 535.283 605.291 534.651 603.525C534.593 603.382 534.536 603.224 534.493 603.081L501.666 619.742Z" fill="white"/>
<path d="M513.14 603.238C512.838 602.507 512.537 601.76 512.12 601.086C511.704 600.411 511.144 599.794 510.44 599.435C510.11 599.263 509.708 599.148 509.378 599.335C509.047 599.536 508.947 599.981 508.99 600.368C509.076 601.115 509.536 601.775 510.139 602.234C510.742 602.679 512.408 603.095 513.14 603.253" stroke="#407BFF" stroke-width="0.25" stroke-miterlimit="10"/>
<path d="M513.227 603.195C513.17 602.406 513.127 601.602 513.213 600.813C513.299 600.024 513.529 599.234 514.003 598.589C514.218 598.287 514.548 598.015 514.907 598.043C515.295 598.072 515.568 598.445 515.697 598.804C515.941 599.507 515.812 600.311 515.467 600.971C515.123 601.631 513.802 602.722 513.213 603.195" stroke="#407BFF" stroke-width="0.25" stroke-miterlimit="10"/>
<path d="M489.977 562.137L494.615 588.887L483.615 593.322L474.482 565.251L489.977 562.137Z" fill="#E9B376"/>
<path d="M491.212 586.692C490.465 588.701 488.684 589.677 486.774 589.303L485.496 587.495C484.391 585.945 482.854 585.386 481.174 586.519C480.341 587.079 479.637 588.672 479.709 590.638C479.853 594.183 478.445 596.45 478.445 596.45C478.445 596.45 472.429 604.53 469.987 606.884C468.537 608.29 466.627 610.256 466.34 612.725C466.254 613.428 466.254 614.217 466.34 615.093C466.426 615.81 467.115 617.174 467.13 617.202L487.521 606.841C487.521 606.841 488.986 604.573 489.89 604.157C491.499 603.411 492.892 604.43 492.892 604.43L500.33 600.713C500.33 600.713 499.885 599.493 499.253 597.728C498.966 596.924 498.636 596.02 498.291 595.058C496.798 590.94 495.074 585.673 494.644 584.51C493.882 582.472 491.197 586.663 491.197 586.663L491.212 586.692Z" fill="#263238"/>
<path d="M475.113 600.641C475.156 600.512 475.3 600.426 475.444 600.44C476.09 600.497 476.707 600.727 477.253 601.115C477.54 601.33 477.239 601.818 476.937 601.602C476.449 601.244 475.903 601.057 475.343 601C475.156 600.985 475.042 600.813 475.113 600.641Z" fill="#407BFF"/>
<path d="M476.248 598.99C476.291 598.861 476.435 598.775 476.578 598.79C477.225 598.847 477.842 599.077 478.388 599.464C478.675 599.679 478.373 600.167 478.072 599.952C477.584 599.593 477.038 599.407 476.478 599.349C476.291 599.335 476.176 599.163 476.248 598.99Z" fill="#407BFF"/>
<path d="M477.469 597.383C477.512 597.254 477.656 597.168 477.799 597.182C478.445 597.24 479.063 597.469 479.609 597.857C479.896 598.072 479.594 598.56 479.293 598.345C478.804 597.986 478.259 597.799 477.699 597.742C477.512 597.728 477.397 597.555 477.469 597.383Z" fill="#407BFF"/>
<path opacity="0.2" d="M466.311 614.016C466.311 614.375 466.339 614.762 466.382 615.164C466.468 615.882 467.158 617.245 467.172 617.274L487.563 606.912C487.563 606.912 489.028 604.645 489.933 604.229C491.541 603.482 492.934 604.501 492.934 604.501L500.372 600.784C500.372 600.784 499.927 599.564 499.295 597.799C499.238 597.656 499.181 597.498 499.137 597.354L466.311 614.016Z" fill="white"/>
<path d="M477.784 597.512C477.483 596.78 477.181 596.034 476.765 595.36C476.348 594.685 475.788 594.068 475.085 593.709C474.755 593.537 474.352 593.422 474.022 593.609C473.692 593.81 473.591 594.255 473.634 594.642C473.721 595.388 474.18 596.048 474.783 596.508C475.386 596.953 477.052 597.369 477.784 597.527" stroke="#407BFF" stroke-width="0.25" stroke-miterlimit="10"/>
<path d="M477.872 597.469C477.814 596.68 477.771 595.876 477.857 595.087C477.943 594.298 478.173 593.508 478.647 592.862C478.863 592.561 479.193 592.288 479.552 592.317C479.94 592.346 480.212 592.719 480.342 593.078C480.586 593.781 480.456 594.585 480.112 595.245C479.767 595.905 478.446 596.996 477.857 597.469" stroke="#407BFF" stroke-width="0.25" stroke-miterlimit="10"/>
<path d="M578.679 447.399C578.679 447.399 552.156 473.317 538.37 486.19C524.585 499.063 481.203 497.154 481.203 497.154L497.573 580.65L475.086 583.362C475.086 583.362 453.876 521.408 445.648 488.271C444.456 483.463 446.682 476.216 448.85 473.159C457.94 460.372 525.403 458.205 525.403 458.205L526.882 449.207L578.664 447.384L578.679 447.399Z" fill="#263238"/>
<path opacity="0.2" d="M484.492 513.974C484.492 513.974 472.616 493.064 470.075 484.698C467.547 476.331 468.323 473.202 474.555 470.676C480.787 468.151 524.93 462.855 524.93 462.855L525.633 459.21L534.738 469.141C534.738 469.141 482.539 472.628 483.128 481.196C483.717 489.764 484.492 513.974 484.492 513.974Z" fill="black"/>
<path d="M578.678 447.399C578.678 447.399 584.135 479.603 573.006 487.84C562.38 495.719 517.476 500.412 517.476 500.412L531.262 584.367L509.248 588.227C509.248 588.227 487.837 524.221 479.594 491.098C478.403 486.291 479.422 480.105 481.605 477.048C490.695 464.261 557.555 460.372 557.555 460.372L578.678 447.399Z" fill="#263238"/>
<path opacity="0.2" d="M517.476 500.412C517.476 500.412 513.957 495.303 511.301 493.208C511.301 493.208 518.912 495.734 520.362 500.24L517.476 500.412Z" fill="black"/>
<path d="M472.96 448.131L477.785 455.306C477.785 455.306 508.127 445.059 511.703 441.615C515.279 438.185 519.73 407.287 519.73 407.287V385.387L520.089 369.529C520.089 369.529 507.51 372.586 506.505 382.689C506.203 385.674 500.818 430.149 500.818 430.149L472.945 448.145L472.96 448.131Z" fill="#E9B376"/>
<path d="M482.882 466.084H527.097C527.097 466.084 527.097 466.084 527.097 466.098C527.097 467.792 525.201 469.141 522.889 469.141H487.133C487.133 469.141 487.09 469.141 487.076 469.141H450.874C448.576 469.126 446.738 467.763 446.738 466.084H482.882Z" fill="#263238"/>
<path d="M450.213 468.969H490.608C491.312 468.969 491.872 468.509 491.857 467.95C491.857 467.849 491.829 467.734 491.8 467.634L473.836 426.46C473.376 425.284 472.026 424.48 470.49 424.48H430.081C429.391 424.48 428.846 424.925 428.846 425.47C428.846 425.585 428.874 425.7 428.917 425.8L446.882 466.974C447.341 468.151 448.691 468.94 450.228 468.954L450.213 468.969Z" fill="#263238"/>
<path d="M430.067 424.494H470.476C472.013 424.494 473.362 425.298 473.822 426.475L491.111 466.084H527.098C527.098 466.084 527.098 466.084 527.098 466.098C527.098 467.792 525.202 469.141 522.89 469.141H487.134C487.134 469.141 487.091 469.141 487.076 469.141H450.875C450.142 469.141 449.467 468.983 448.879 468.739C447.945 468.423 447.184 467.792 446.868 466.988L428.904 425.815C428.861 425.7 428.832 425.599 428.832 425.47C428.832 424.925 429.392 424.48 430.067 424.48V424.494Z" fill="#407BFF"/>
<path d="M454.335 446.409C455.211 448.389 456.978 449.738 458.299 449.465C459.62 449.193 459.965 447.384 459.117 445.404C458.27 443.423 456.475 442.103 455.168 442.376C453.847 442.648 453.459 444.385 454.335 446.409Z" fill="white"/>
<path opacity="0.5" d="M430.067 424.494H470.476C472.013 424.494 473.362 425.298 473.822 426.475L491.111 466.084H527.098C527.098 466.084 527.098 466.084 527.098 466.098C527.098 467.792 525.202 469.141 522.89 469.141H487.134C487.134 469.141 487.091 469.141 487.076 469.141H450.875C450.142 469.141 449.467 468.983 448.879 468.739C447.945 468.423 447.184 467.792 446.868 466.988L428.904 425.815C428.861 425.7 428.832 425.599 428.832 425.47C428.832 424.925 429.392 424.48 430.067 424.48V424.494Z" fill="white"/>
<path d="M522.1 458.334C522.1 458.334 515.078 449.896 517.333 448.26L518.151 370.118L520.104 369.529L535.987 365.898L552.4 362.368L561.016 364.162L576.18 380.881C576.18 380.881 578.32 421.653 578.435 423.504C578.578 425.772 579.67 455.321 579.67 455.321C553.692 461.018 521.684 460.372 522.1 458.363V458.334Z" fill="#407BFF"/>
<path d="M530.589 367.262L537.209 377.164L549.371 362.181C549.371 362.181 546.126 359.67 543.398 357.331C541.229 355.479 535.356 348.06 535.356 348.06L533.748 349.466L523.523 358.278C523.523 358.278 530.818 362.44 530.646 363.99C530.933 365.339 531.249 366.716 530.488 367.247" fill="#E9B376"/>
<path opacity="0.2" d="M530.646 364.004C530.933 365.511 531.091 365.827 530.589 367.262C538.242 365.654 534.581 349.524 534.581 349.524H533.748L523.523 358.335C523.523 358.335 530.876 362.526 530.646 364.004Z" fill="black"/>
<path d="M503.778 333.737C502.73 338.1 504.08 346.811 509.838 343.539C515.597 340.281 505.573 326.246 503.778 333.737Z" fill="#263238"/>
<path d="M534.838 337.397C536.26 348.318 537.28 354.446 532.871 360.976C526.251 370.806 512.279 368.51 507.612 358.206C503.419 348.935 501.796 332.632 511.575 326.404C521.211 320.261 533.417 326.476 534.838 337.397Z" fill="#E9B376"/>
<path d="M534.193 322.715C531.565 317.061 523.236 315.253 519.661 319.099C519.129 319.673 524.141 320.376 523.567 320.29L525.591 328.987C526.209 328.729 527.602 329.231 528.636 331.097C528.636 331.097 529.253 342.822 534.868 346.711C545.509 339.076 542.694 323.677 534.193 322.715Z" fill="#263238"/>
<path d="M540.842 345.563C540.512 348.505 538.846 351.016 536.907 352.494C533.992 354.719 531.149 352.437 530.804 348.978C530.488 345.864 531.623 340.956 535.112 340.095C538.544 339.248 541.215 342.204 540.842 345.563Z" fill="#E9B376"/>
<path d="M519.991 343.482C520.207 344.587 519.79 345.591 519.058 345.72C518.34 345.85 517.579 345.06 517.363 343.955C517.148 342.85 517.565 341.846 518.283 341.716C519.001 341.587 519.762 342.377 519.977 343.482H519.991Z" fill="#263238"/>
<path d="M509.192 345.792C509.407 346.897 508.991 347.902 508.273 348.031C507.555 348.16 506.794 347.371 506.578 346.266C506.363 345.161 506.779 344.156 507.497 344.027C508.215 343.898 508.976 344.687 509.192 345.792Z" fill="#263238"/>
<path d="M512.595 344.501C512.595 344.501 510.154 350.657 509.465 353.111C511.274 354.202 513.802 353.054 513.802 353.054L512.595 344.501Z" fill="#D58745"/>
<path d="M521.255 337.11C521.111 337.21 520.896 337.239 520.724 337.153C518.584 336.163 516.918 337.153 516.904 337.153C516.66 337.311 516.33 337.225 516.172 336.981C516.014 336.737 516.1 336.407 516.344 336.263C516.43 336.206 518.512 334.971 521.169 336.206C521.427 336.335 521.542 336.636 521.427 336.909C521.384 336.995 521.327 337.067 521.255 337.11Z" fill="#263238"/>
<path d="M504.28 343.367C504.18 343.367 504.079 343.309 503.993 343.252C503.763 343.065 503.735 342.735 503.921 342.506C505.774 340.267 508.172 340.54 508.287 340.54C508.574 340.568 508.789 340.841 508.746 341.128C508.718 341.415 508.459 341.616 508.172 341.587C508.071 341.573 506.219 341.386 504.74 343.18C504.625 343.324 504.453 343.381 504.28 343.367Z" fill="#263238"/>
<path d="M533.791 323.089C535.112 321.496 536.821 320.276 538.286 319.817" stroke="#263238" stroke-width="0.5" stroke-linecap="round" stroke-linejoin="round"/>
<path d="M533.948 322.916C534.609 320.879 534.494 318.597 533.604 316.631" stroke="#263238" stroke-width="0.5" stroke-linecap="round" stroke-linejoin="round"/>
<path opacity="0.2" d="M537.798 343.051C537.238 342.491 536.304 342.42 535.586 342.75C534.868 343.08 534.337 343.74 534.007 344.458C533.605 345.319 533.418 346.28 533.49 347.227" stroke="black" stroke-width="0.5" stroke-linecap="round" stroke-linejoin="round"/>
<path d="M516.516 355.623C519.029 354.977 521.082 353.169 522.015 350.743C522.073 350.6 521.987 350.442 521.843 350.399C521.843 350.399 521.843 350.399 521.829 350.399C521.699 350.356 521.542 350.428 521.498 350.557C521.498 350.557 521.498 350.557 521.498 350.571C520.608 352.796 518.713 354.475 516.386 355.092C516.257 355.149 516.185 355.293 516.243 355.422C516.3 355.551 516.444 355.623 516.573 355.565L516.501 355.623H516.516Z" fill="#263238"/>
<path d="M527.758 367.778C527.973 367.463 530.888 365.382 530.888 365.382L536.718 369.974L545.09 358.378L552.4 362.354L536.934 381.785L527.758 367.764V367.778Z" fill="#407BFF"/>
<path opacity="0.1" d="M536.662 371.926C535.456 386.722 534.623 401.504 534.753 415.74C534.882 429.976 532.369 445.748 536.978 459.224" stroke="black" stroke-width="0.5" stroke-linecap="round" stroke-linejoin="round"/>
<path opacity="0.2" d="M560.384 418.208L553.031 418.912L555.544 387.64L557.368 414.362L577.989 415.209L560.384 418.208Z" fill="black"/>
<path opacity="0.2" d="M527.758 367.778C527.916 368.022 531.305 374.739 532.741 377.58C532.985 378.054 533.674 378.011 533.846 377.523L536.446 370.505L533.243 375.959L527.758 367.793V367.778Z" fill="black"/>
<path opacity="0.2" d="M536.979 370.089C537.194 370.304 542.938 376.461 542.938 376.461L551.367 362.354L544.159 378.427C543.828 379.173 542.794 379.245 542.364 378.556L536.979 370.074V370.089Z" fill="black"/>
<path d="M560.441 401.489C560.441 401.489 560.398 424.049 560.341 424.279C560.297 424.523 520.994 440.926 520.994 440.926C520.994 441.515 526.839 448.332 526.839 448.332C526.839 448.332 569.703 442.706 574.543 435.401C578.678 429.173 579.324 401.188 579.324 401.188L560.441 401.475V401.489Z" fill="#E9B376"/>
<path d="M561.017 364.147C576.669 365.468 580.518 377.121 580.231 394.859C579.958 411.937 580.374 415.726 580.374 415.726L556.896 415.209C556.896 415.209 556.508 384.727 556.508 381.785C556.508 378.843 561.017 364.133 561.017 364.133V364.147Z" fill="#407BFF"/>
<path d="M520.521 422.543L499.01 417.132C499.01 417.132 504.912 386.535 505.917 381.412C507.066 375.6 514.102 371.194 520.105 369.529L525.159 389.19L520.521 422.543Z" fill="#407BFF"/>
<path opacity="0.2" d="M517.334 421.739C517.104 421.681 513.859 390.525 513.859 390.525L512.078 420.433L517.334 421.753V421.739Z" fill="black"/>
<path d="M500.374 462.625C500.575 460.616 504.351 451.805 506.29 448.877C508.228 445.949 520.994 440.941 520.994 440.941L528.49 446.351C528.49 446.351 528.49 449.48 525.834 451.747C524.312 453.053 519.156 454.373 519.156 454.373C519.156 454.373 519.587 455.966 519.587 457.746C519.587 459.726 519.199 462.152 517.562 462.08C515.94 462.008 515.337 456.77 515.265 456.009C515.337 456.77 515.796 462.137 513.613 462.324C511.517 462.511 511.172 456.914 511.172 456.914C511.172 456.914 511.057 459.511 511 460.846C510.928 462.18 509.593 463.329 508.358 461.85C506.922 460.128 506.807 457.172 506.807 457.172C506.807 457.172 505.672 458.908 503.978 462.683C502.757 465.395 500.201 464.304 500.374 462.611V462.625Z" fill="#E9B376"/>
<path opacity="0.1" d="M515.336 456.813C515.293 455.809 515.235 454.79 515.379 453.799C515.522 452.809 515.853 451.805 516.499 451.044" stroke="black" stroke-width="0.5" stroke-linecap="round" stroke-linejoin="round"/>
<path opacity="0.1" d="M511.072 457.516C511.029 456.512 510.971 455.493 511.115 454.503C511.259 453.512 511.589 452.508 512.235 451.747" stroke="black" stroke-width="0.5" stroke-linecap="round" stroke-linejoin="round"/>
<path opacity="0.1" d="M506.836 457.143C506.793 456.139 506.735 455.12 506.879 454.129C507.022 453.139 507.353 452.135 507.999 451.374" stroke="black" stroke-width="0.5" stroke-linecap="round" stroke-linejoin="round"/>
<path d="M531.836 318.841C530.845 317.592 529.266 316.946 527.686 316.688C525.561 316.329 523.349 316.487 521.296 317.119C518.926 317.85 516.758 319.228 514.317 319.601C514.015 319.644 513.671 319.659 513.455 319.458C513.297 319.314 513.254 319.099 513.182 318.898C512.752 317.578 511.416 316.588 510.023 316.588C508.63 316.588 507.28 317.549 506.85 318.884C505.514 316.788 502.312 316.544 500.201 317.85C498.076 319.156 496.855 320.62 496.152 323.003C495.907 323.835 495.807 325.657 496.108 327.021C496.726 329.748 498.219 331.412 500.603 332.862C503.82 334.814 507.625 336.163 511.33 335.488C516.27 334.584 520.018 330.336 524.9 329.145C526.738 328.7 528.935 328.815 530.213 330.207L534.191 322.715C534.191 321.453 532.971 320.261 531.822 318.826L531.836 318.841Z" fill="#263238"/>
<path d="M288.836 592.748L298.989 592.303L302.751 565.911L287.285 566.428L288.836 592.748Z" fill="#B97964"/>
<path d="M300.224 587.667H296.619C295.801 587.667 295.04 588.084 294.566 588.744C292.483 591.585 290.918 590.509 288.649 587.84C287.213 587.667 286.826 589.318 286.711 589.763L284.011 599.579C283.781 600.397 284.255 601.258 285.074 601.488C285.217 601.531 285.375 601.545 285.519 601.545H314.124C318.676 601.545 319.624 596.967 317.743 596.537C309.313 594.671 303.34 592.202 300.74 589.748C300.252 589.318 300.74 589.002 300.224 587.667Z" fill="#263238"/>
<path d="M307.29 590.954C307.663 590.681 307.893 590.251 307.907 589.777C307.936 589.533 307.821 589.275 307.606 589.146C306.471 588.342 301.962 590.452 301.459 590.696C301.402 590.71 301.359 590.767 301.345 590.81C301.301 590.911 301.359 591.026 301.459 591.069C302.565 591.327 303.7 591.471 304.848 591.499C305.71 591.585 306.557 591.384 307.304 590.939L307.29 590.954ZM307.318 589.476C307.404 589.533 307.462 589.634 307.433 589.748C307.419 590.093 307.247 590.394 306.988 590.609C305.968 591.37 303.484 591.04 302.149 590.796C304.03 589.978 306.686 589.045 307.318 589.476Z" fill="#407BFF"/>
<path d="M301.602 591.112C302.952 590.552 305.795 588.313 305.651 587.136C305.623 586.892 305.45 586.591 304.833 586.505C302.363 586.218 301.3 590.667 301.3 590.853C301.272 590.925 301.3 591.011 301.358 591.069C301.401 591.069 301.458 591.069 301.501 591.069L301.602 591.097V591.112ZM304.747 586.878C305.206 586.921 305.206 587.093 305.206 587.151C305.335 587.868 303.268 589.72 301.803 590.495C302.104 589.461 303.024 586.864 304.589 586.864H304.747V586.878Z" fill="#407BFF"/>
<path d="M301.962 590.94C300.712 591.112 299.564 591.858 298.889 592.92" stroke="#407BFF" stroke-width="0.5" stroke-linecap="round" stroke-linejoin="round"/>
<path d="M304.202 592.633C302.953 592.805 301.804 593.551 301.129 594.613" stroke="#407BFF" stroke-width="0.5" stroke-linecap="round" stroke-linejoin="round"/>
<path d="M307.001 594.054C305.751 594.226 304.603 594.972 303.928 596.034" stroke="#407BFF" stroke-width="0.5" stroke-linecap="round" stroke-linejoin="round"/>
<path opacity="0.3" d="M300.697 580.291L300.209 583.692L288.29 583.477L288.104 580.291H300.697Z" fill="black"/>
<path d="M331.141 590.15L342.155 588.744L344.582 563.873L329.461 563.443L331.141 590.15Z" fill="#B97964"/>
<path d="M342.716 586.677H339.111C338.293 586.677 337.532 587.093 337.058 587.753C334.976 590.595 333.41 589.519 331.142 586.849C329.706 586.677 329.318 588.328 329.203 588.772L326.503 598.589C326.273 599.407 326.747 600.268 327.566 600.497C327.709 600.54 327.867 600.555 328.011 600.555H356.616C361.168 600.555 362.116 595.977 360.235 595.546C351.806 593.681 345.832 591.212 343.233 588.758C342.744 588.328 343.233 588.012 342.716 586.677Z" fill="#263238"/>
<path d="M350.542 589.461C350.915 589.189 351.145 588.744 351.159 588.285C351.188 588.041 351.073 587.782 350.857 587.653C349.723 586.849 345.214 588.959 344.711 589.203C344.654 589.217 344.611 589.275 344.597 589.318C344.553 589.418 344.611 589.533 344.711 589.576C345.817 589.834 346.952 589.978 348.1 590.007C348.962 590.093 349.809 589.892 350.556 589.447L350.542 589.461ZM350.57 587.983C350.656 588.04 350.714 588.141 350.685 588.256C350.671 588.6 350.498 588.902 350.24 589.117C349.22 589.877 346.736 589.547 345.401 589.303C347.282 588.485 349.938 587.553 350.57 587.983Z" fill="#407BFF"/>
<path d="M344.869 589.619C346.219 589.059 349.063 586.821 348.919 585.644C348.89 585.4 348.718 585.098 348.1 585.027C345.631 584.74 344.568 589.189 344.568 589.375C344.539 589.447 344.568 589.533 344.625 589.59C344.668 589.59 344.726 589.59 344.769 589.59L344.869 589.619ZM348.014 585.386C348.474 585.429 348.474 585.601 348.474 585.658C348.603 586.376 346.535 588.227 345.071 589.002C345.372 587.969 346.291 585.371 347.856 585.371H348.014V585.386Z" fill="#407BFF"/>
<path d="M345.214 589.461C343.964 589.634 342.816 590.38 342.141 591.442" stroke="#407BFF" stroke-width="0.5" stroke-linecap="round" stroke-linejoin="round"/>
<path d="M347.47 591.14C346.22 591.313 345.071 592.059 344.396 593.121" stroke="#407BFF" stroke-width="0.5" stroke-linecap="round" stroke-linejoin="round"/>
<path d="M350.255 592.561C349.005 592.733 347.857 593.48 347.182 594.542" stroke="#407BFF" stroke-width="0.5" stroke-linecap="round" stroke-linejoin="round"/>
<path opacity="0.3" d="M343.118 578.798L342.788 582.214L330.639 582.128L330.424 578.798H343.118Z" fill="black"/>
<path d="M282.503 305.293C279.602 290.21 289.008 292.994 285.806 273.792C282.273 252.639 297.365 249.582 297.365 249.582C297.365 249.582 299.146 239.048 308.997 239.593C318.848 240.139 343.518 245.363 338.564 271.51C335.678 286.751 340.747 287.871 343.332 294.745C346.994 304.461 335.319 313.186 342.944 319.831C342.944 319.831 323.4 325.557 294.881 323.648C294.881 323.648 284.269 314.492 282.503 305.293Z" fill="#263238"/>
<path d="M335.621 310.962C335.621 310.962 349.034 344.501 351.159 344.702C353.284 344.903 380.496 334.311 380.496 334.311L384.733 339.09C384.733 339.09 370.487 358.134 347.928 364.176C343.878 365.267 338.766 360.674 333.884 354.403C332.922 353.183 331.988 351.892 331.069 350.571C326.058 343.137 321.549 335.359 317.6 327.308L335.636 310.962H335.621Z" fill="#407BFF"/>
<path opacity="0.6" d="M335.621 310.962C335.621 310.962 349.034 344.501 351.159 344.702C353.284 344.903 380.496 334.311 380.496 334.311L384.733 339.09C384.733 339.09 370.487 358.134 347.928 364.176C343.878 365.267 338.766 360.674 333.884 354.403C332.922 353.183 331.988 351.892 331.069 350.571C326.058 343.137 321.549 335.359 317.6 327.308L335.636 310.962H335.621Z" fill="white"/>
<path opacity="0.2" d="M335.621 315.411C336.669 320.061 339.139 327.021 341.077 331.972C341.709 333.579 341.982 335.302 341.695 337.009C340.862 341.889 336.64 343.453 335.233 347.342C334.443 349.624 333.998 352.006 333.883 354.417C332.921 353.197 331.988 351.906 331.069 350.586L328.986 342.362L335.635 315.411H335.621Z" fill="black"/>
<path d="M346.636 348.433C345.372 348.074 344.626 346.754 344.985 345.476L354.075 307.245C354.62 305.437 356.243 304.159 358.138 304.088L387.289 303.485C387.605 303.442 387.921 303.471 388.237 303.557C389.501 303.915 390.247 305.236 389.888 306.513L380.798 344.745C380.253 346.553 378.63 347.83 376.735 347.916L347.584 348.519C347.268 348.562 346.952 348.533 346.636 348.447V348.433Z" fill="#263238"/>
<path opacity="0.2" d="M346.636 348.433C345.372 348.074 344.626 346.754 344.985 345.476L354.075 307.245C354.62 305.437 356.243 304.159 358.138 304.088L387.289 303.485C387.605 303.442 387.921 303.471 388.237 303.557C389.501 303.915 390.247 305.236 389.888 306.513L380.798 344.745C380.253 346.553 378.63 347.83 376.735 347.916L347.584 348.519C347.268 348.562 346.952 348.533 346.636 348.447V348.433Z" fill="white"/>
<path d="M349.636 348.375C348.372 348.017 347.626 346.696 347.985 345.433L357.075 307.202C357.62 305.394 359.243 304.131 361.124 304.03L390.289 303.427C390.605 303.384 390.921 303.413 391.237 303.499C392.501 303.858 393.247 305.178 392.888 306.456L383.784 344.687C383.238 346.495 381.616 347.758 379.735 347.859L350.569 348.462C350.254 348.505 349.938 348.462 349.636 348.39V348.375Z" fill="#263238"/>
<path opacity="0.3" d="M349.636 348.375C348.372 348.017 347.626 346.696 347.985 345.433L357.075 307.202C357.62 305.394 359.243 304.131 361.124 304.03L390.289 303.427C390.605 303.384 390.921 303.413 391.237 303.499C392.501 303.858 393.247 305.178 392.888 306.456L383.784 344.687C383.238 346.495 381.616 347.758 379.735 347.859L350.569 348.462C350.254 348.505 349.938 348.462 349.636 348.39V348.375Z" fill="white"/>
<path opacity="0.2" d="M375.943 325.844C375.785 324.165 374.292 322.945 372.626 323.103C370.256 323.232 368.232 324.868 367.6 327.15C367.485 327.523 367.456 327.925 367.485 328.312C367.657 329.977 369.136 331.183 370.802 331.01C373.172 330.881 375.211 329.26 375.842 326.978C375.943 326.605 375.986 326.217 375.943 325.844Z" fill="white"/>
<path d="M385.794 327.667C385.22 327.624 382.778 328.829 381.63 328.025C380.481 327.222 381.558 326.562 381.558 326.562C383.654 326.045 385.966 323.419 387.244 324.179C388.522 324.926 390.633 325.873 390.332 327.064C389.987 328.169 389.556 329.245 389.068 330.307C389.398 330.838 389.441 331.498 389.183 332.072C388.924 332.733 388.336 333.221 387.646 333.35C388.049 333.752 388.25 334.311 388.221 334.885C388.12 335.789 385.737 336.981 385.737 336.981C385.737 336.981 386.196 338.401 385.65 338.947C384.717 339.707 383.482 339.994 382.305 339.707C380.912 339.377 379.949 338.889 380.05 337.483C380.151 336.076 382.664 336.076 382.664 336.076C382.664 336.076 377.925 334.641 378.93 333.752C379.935 332.862 383.712 332.962 383.712 332.962C383.712 332.962 377.307 331.699 378.327 330.379C379.346 329.059 385.722 329.417 385.722 329.417C385.722 329.417 386.368 327.695 385.794 327.652V327.667Z" fill="#B97964"/>
<path d="M307.763 381.699L336.066 381.814C336.066 381.814 345.96 431.569 345.372 487.353C346.52 520.102 345.601 580.32 345.601 580.32H327.192C327.192 580.32 315.46 531.411 320.155 492.662C318.447 485.975 316.163 474.408 314.828 468.509C311.066 452.594 308.237 436.463 306.356 420.218C303.125 389.764 307.748 381.699 307.748 381.699H307.763Z" fill="#263238"/>
<path opacity="0.2" d="M310.275 401.245C310.275 401.245 320.485 447.054 314.842 468.509C311.079 452.594 308.25 436.463 306.369 420.218L310.275 401.231V401.245Z" fill="black"/>
<path d="M283.968 368.668C281.498 379.719 271.819 393.223 269.852 407.359C266.506 431.512 281.038 461.549 284.829 489.878C279.085 531.784 287.888 582.601 286.725 581.496H305.206C305.766 577.765 309.557 520.992 311.438 487.353C313.032 457.904 315.574 383.866 315.574 383.866L283.953 368.668H283.968Z" fill="#263238"/>
<path d="M283.279 361.995C283.25 360.014 279.416 345.792 279.315 343.697C278.841 333.551 277.707 323.462 275.926 313.459C275.854 313.028 275.797 312.584 275.768 312.153C275.28 305.279 280.478 299.309 287.357 298.835C289.338 298.692 291.421 298.62 293.575 298.562C295.729 298.505 297.782 298.505 299.764 298.505C305.192 298.405 310.62 298.663 316.005 299.266L317.197 299.423C319.222 299.682 321.275 300.026 323.257 300.356C331.858 301.806 337.933 309.584 337.272 318.281C336.31 329.661 344.897 336.607 333.912 344.285C332.49 354.044 334.601 374.896 338.694 389.276C340.144 394.385 298.744 393.711 275.51 386.033L283.264 362.009" fill="#407BFF"/>
<path opacity="0.6" d="M283.279 361.995C283.25 360.014 279.416 345.792 279.315 343.697C278.841 333.551 277.707 323.462 275.926 313.459C275.854 313.028 275.797 312.584 275.768 312.153C275.28 305.279 280.478 299.309 287.357 298.835C289.338 298.692 291.421 298.62 293.575 298.562C295.729 298.505 297.782 298.505 299.764 298.505C305.192 298.405 310.62 298.663 316.005 299.266L317.197 299.423C319.222 299.682 321.275 300.026 323.257 300.356C331.858 301.806 337.933 309.584 337.272 318.281C336.31 329.661 344.897 336.607 333.912 344.285C332.49 354.044 334.601 374.896 338.694 389.276C340.144 394.385 298.744 393.711 275.51 386.033L283.264 362.009" fill="white"/>
<path d="M297.725 298.505C297.725 298.505 302.047 301.834 307.619 306.628C308.782 307.632 310.06 308.493 311.41 309.211C315.057 311.148 318.389 312.253 319.279 310.503C319.48 310.115 319.638 309.699 319.753 309.254C320.514 306.312 320.198 302.179 317.829 300.284C315.143 298.146 313.851 296.324 314.339 293.439C314.598 291.803 315.186 290.109 315.876 288.459L312.774 286.593L301.731 275.457C302.995 282.288 303.555 294.487 297.739 298.519L297.725 298.505Z" fill="#B97964"/>
<path opacity="0.2" d="M314.224 294.056C311.179 292.248 307.848 289.134 308.25 285.56C308.422 284.053 308.753 282.633 309.112 281.714L315.286 289.88C314.784 291.2 314.597 292.061 314.224 294.056Z" fill="black"/>
<path d="M299.562 262.885C300.596 274.223 300.797 279.045 306.656 284.986C315.473 293.927 329.029 290.928 331.355 279.676C333.451 269.559 331.398 252.71 320.255 247.931C309.269 243.239 298.514 251.533 299.548 262.871L299.562 262.885Z" fill="#B97964"/>
<path d="M314.268 266.574C314.325 267.779 314.971 268.755 315.718 268.769C316.465 268.784 317.025 267.822 316.967 266.631C316.91 265.425 316.264 264.45 315.517 264.435C314.77 264.421 314.21 265.382 314.268 266.574Z" fill="#263238"/>
<path d="M325.469 266.545C325.526 267.707 326.173 268.669 326.919 268.683C327.666 268.698 328.226 267.765 328.169 266.602C328.111 265.44 327.465 264.478 326.718 264.464C325.972 264.45 325.411 265.382 325.469 266.545Z" fill="#263238"/>
<path d="M311.898 262.397C312.041 262.412 312.185 262.369 312.3 262.268C314.052 260.647 316.019 261.221 316.033 261.221C316.32 261.307 316.622 261.134 316.694 260.847C316.766 260.546 316.579 260.245 316.277 260.144C316.177 260.116 313.707 259.398 311.539 261.407C311.323 261.608 311.323 261.967 311.539 262.196C311.639 262.311 311.768 262.383 311.912 262.397H311.898Z" fill="#263238"/>
<path d="M329.231 260.847C329.346 260.804 329.446 260.718 329.489 260.603C329.59 260.345 329.461 260.015 329.202 259.872C326.603 258.408 324.679 259.527 324.607 259.57C324.377 259.699 324.32 260.029 324.478 260.288C324.636 260.546 324.952 260.646 325.181 260.517C325.253 260.474 326.761 259.642 328.829 260.804C328.958 260.876 329.102 260.89 329.231 260.847Z" fill="#263238"/>
<path d="M322.425 265.985C322.425 265.985 324.205 270.233 326.201 272.874C326.546 273.333 326.33 274.008 325.785 274.208C324.377 274.725 322.74 274.251 322.74 274.251L322.41 265.971L322.425 265.985Z" fill="#A24E3F"/>
<path d="M315.102 264.478L317.701 263.861C317.701 263.861 316.279 265.799 315.102 264.478Z" fill="#263238"/>
<path d="M326.445 264.493L329.044 263.875C329.044 263.875 327.623 265.813 326.445 264.493Z" fill="#263238"/>
<path d="M303.511 266.803C303.511 266.803 309.37 257.992 309.069 250.859C309.069 250.859 320.269 247.946 329.216 259.872C330.637 261.766 331.485 264.938 332.763 267.679C332.763 267.679 334.902 246.094 315.732 244.329C296.59 242.564 292.842 269.444 302.176 278.499C302.176 278.499 299.893 272.328 303.511 266.818V266.803Z" fill="#263238"/>
<path d="M296.131 272.127C297.467 274.452 299.649 275.916 301.645 276.418C304.647 277.165 306.197 272.343 305.178 269.329C304.259 266.617 301.301 264.823 298.371 265.425C295.485 266.014 294.595 269.472 296.117 272.127H296.131Z" fill="#B97964"/>
<path opacity="0.2" d="M302.477 271.525C302.406 270.448 301.889 269.415 301.085 268.698C300.28 267.994 299.175 267.607 298.098 267.679" stroke="black" stroke-width="0.5" stroke-linecap="round" stroke-linejoin="round"/>
<path d="M315.633 275.285C315.633 275.285 316.739 278.27 320.099 277.581" stroke="#263238" stroke-width="0.5" stroke-linecap="round" stroke-linejoin="round"/>
<path opacity="0.2" d="M280.708 369.96L278.195 377.767C278.195 377.767 306.37 372.816 320.5 360.201C330.552 351.217 328.987 347.428 328.987 347.428L317.599 348.533L280.723 369.974L280.708 369.96Z" fill="black"/>
<path opacity="0.2" d="M291.996 329.805L290.459 355.264C286.209 357.962 283.394 354.216 282.748 350.342V343.008L291.996 329.791V329.805Z" fill="black"/>
<path d="M293.518 325.945C293.518 325.945 282.848 352.351 284.772 353.571C286.697 354.79 317.413 346.395 317.413 346.395L322.252 353.341C321.218 357.905 268.215 386.65 263.893 362.612C261.265 348.002 277.162 305.537 277.162 305.537C290.229 300.428 293.518 325.959 293.518 325.959V325.945Z" fill="#407BFF"/>
<path opacity="0.6" d="M293.518 325.945C293.518 325.945 282.848 352.351 284.772 353.571C286.697 354.79 317.413 346.395 317.413 346.395L322.252 353.341C321.218 357.905 268.215 386.65 263.893 362.612C261.265 348.002 277.162 305.537 277.162 305.537C290.229 300.428 293.518 325.959 293.518 325.959V325.945Z" fill="white"/>
<path d="M322.711 354.015C326.344 354.302 326.473 348.835 328.355 348.619C329.46 348.519 330.523 348.246 331.543 347.801C331.543 347.801 330.351 351.088 331.543 350.829C332.734 350.571 336.569 350.37 337.516 347.242C338.464 344.113 335.046 337.425 334.271 336.493C333.495 335.56 329.403 335.847 329.403 335.847C329.403 335.847 333.797 334.713 336.21 334.383C338.622 334.053 339.082 331.297 335.707 331.9C334.328 332.144 323.4 332.23 322.223 333.35C321.045 334.469 316.651 345.505 316.651 345.505C315.029 346.438 319.15 355.695 322.697 354.001L322.711 354.015Z" fill="#B97964"/>
</g>
<defs>
<clipPath id="clip0_1801_2585">
<rect width="718" height="623" fill="white"/>
</clipPath>
</defs>
</svg>
