<svg width="1920" height="846" viewBox="0 0 1920 846" fill="none" xmlns="http://www.w3.org/2000/svg">
<path d="M-148.425 -614.859L2311.73 -181.067C2311.73 -181.067 2563.55 714.446 2133.41 830.231C1904 891.983 1854.2 746.24 1592.35 676.897C1330.5 607.553 1184.87 720.907 893.428 669.518C601.987 618.129 503.912 461.804 234.135 437.407C-35.6416 413.01 -132.291 532.929 -326.744 396.439C-691.342 140.52 -148.425 -614.859 -148.425 -614.859Z" fill="#FFD27A"/>
<mask id="mask0_1807_1001" style="mask-type:alpha" maskUnits="userSpaceOnUse" x="-454" y="-615" width="2839" height="1468">
<path d="M-148.425 -614.859L2311.73 -181.067C2311.73 -181.067 2562.51 720.338 2132.14 837.451C1902.61 899.911 1852.97 753.219 1591.14 683.715C1329.32 614.211 1183.53 728.528 892.084 677.139C600.643 625.75 502.738 468.462 232.933 444.226C-36.8722 419.989 -133.689 540.857 -328.017 403.659C-692.381 146.413 -148.425 -614.859 -148.425 -614.859Z" fill="#FFDD9B"/>
</mask>
<g mask="url(#mask0_1807_1001)">
<rect opacity="0.16" x="1653.3" y="36" width="150.574" height="150.574" rx="21.0996" transform="rotate(45 1653.3 36)" fill="white"/>
<rect opacity="0.16" x="1730.74" y="210.226" width="150.574" height="150.574" rx="21.0996" transform="rotate(45 1730.74 210.226)" fill="white"/>
<rect opacity="0.16" x="1604.91" y="336.056" width="150.574" height="150.574" rx="21.0996" transform="rotate(45 1604.91 336.056)" fill="white"/>
<rect opacity="0.16" x="1527.47" y="161.829" width="150.574" height="150.574" rx="21.0996" transform="rotate(45 1527.47 161.829)" fill="white"/>
</g>
</svg>
