<svg width="667" height="493" viewBox="0 0 667 493" fill="none" xmlns="http://www.w3.org/2000/svg">
<path d="M434.625 137.792C391.25 97.1346 340.431 86.6389 327.004 84.4969C336.054 60.0917 350.03 23.8119 353.511 18.4435C354.636 18.2963 356.925 18.0553 360.298 18.0553C370.165 18.0553 391.277 20.1036 421.84 33.8524C465.952 53.7059 477.773 76.0361 480.089 81.4981L434.625 137.779V137.792Z" fill="white"/>
<path d="M360.297 20.7328C369.949 20.7328 390.633 22.7543 420.741 36.3023C460.649 54.2682 473.554 74.3358 476.955 81.1366L434.342 133.883C408.706 110.535 381.061 97.6433 361.957 90.8559C348.395 86.0364 337.311 83.5732 330.657 82.3817C340.658 55.5132 351.528 27.8682 355.183 20.947C356.374 20.8399 358.088 20.7328 360.31 20.7328M360.31 15.3778C354.942 15.3778 352.184 15.9401 352.184 15.9401C349.051 16.9843 323.348 86.679 323.348 86.679C323.348 86.679 384.341 92.9042 434.891 141.728L483.139 81.9934C483.139 81.9934 475.094 54.8706 422.95 31.4159C392.4 17.667 371.1 15.3778 360.31 15.3778Z" fill="#A0C6F4"/>
<path d="M332.291 92.1008C332.291 92.1008 392.267 98.1653 429.229 132.089" stroke="#2A1E17" stroke-linecap="round" stroke-linejoin="round"/>
<path d="M384.086 89.1692L406.456 45.6602L429.456 91.0434L384.086 89.1692Z" fill="#A0C6F4"/>
<path d="M388.436 88.5533L410.806 45.0443L433.805 90.4142L388.436 88.5533Z" stroke="#2A1E17" stroke-linecap="round" stroke-linejoin="round"/>
<path d="M367.432 12.7272C367.432 12.7272 434.677 18.7917 476.485 68.4589" stroke="#2A1E17" stroke-linecap="round" stroke-linejoin="round"/>
<path d="M401.796 205.532C398.101 202.815 395.678 200.994 395.678 200.994C396.695 199.629 412.88 182.386 422.252 168.49C422.252 168.49 403.295 206.63 401.796 205.519V205.532Z" fill="#2A1E17"/>
<path d="M172.482 79.865C174.29 82.8638 175.08 81.6723 180.287 81.2707C185.495 80.869 192.898 84.6711 195.509 91.0836C198.106 97.4962 197.316 98.4869 195.91 99.2901C194.505 100.093 184.491 101.298 184.089 103.293" stroke="#2A1E17" stroke-linecap="round" stroke-linejoin="round"/>
<path d="M307.387 405.794L302.728 397.909L286.168 425.5L290.519 428.847L307.387 405.794Z" fill="#F9865F"/>
<path d="M197.492 337.385C197.492 337.385 188.91 323.435 192.592 316.607L219.956 319.539L197.492 337.385Z" fill="#F9865F"/>
<path d="M197.491 337.385L199.124 341.147L194.064 360.853C193.421 363.329 194.251 365.967 196.192 367.64L221.213 330.651C223.596 327.143 223.048 322.418 219.942 319.526L214.346 314.332L197.478 337.371L197.491 337.385Z" fill="black"/>
<path d="M184.103 103.293C191.935 103.105 201.868 102.61 199.887 96.6527C197.906 90.6953 190.449 75.7951 173.567 80.2665C173.567 80.2665 167.61 85.2333 175.053 94.1626C182.497 103.092 184.103 103.279 184.103 103.279V103.293Z" fill="#2A1E33"/>
<path d="M223.755 319.874C223.755 319.874 210.381 280.381 221.693 263.045C231.038 248.733 261.548 272.014 265.738 275.147L287.573 235.707C287.573 235.707 282.526 228.639 270.156 221.718C257.786 214.796 206.659 194.073 182.629 231.986C173.753 246.002 173.619 306.112 190.648 329.151L223.755 319.861V319.874Z" fill="#7595EC"/>
<path d="M223.756 319.874C223.756 319.874 210.382 280.381 221.694 263.044C231.039 248.733 261.548 272.014 265.739 275.147" stroke="#2A1E17" stroke-linecap="round" stroke-linejoin="round"/>
<path d="M287.576 235.707C277.642 246.163 248.203 297.089 241.576 321.427C232.714 353.985 236.047 380.987 284.724 433.854L308.259 399.582C308.259 399.582 291.712 374.454 294.805 350.785C299.276 316.527 323.654 283.313 335.984 262.241L287.576 235.707Z" fill="#7595EC"/>
<path d="M291.311 240.139L330.455 270.849L342.156 253.071L291.311 240.139Z" fill="#2A1E17"/>
<path d="M516.111 207.835C522.216 209.147 526.861 211.463 530.061 214.81C533.261 218.157 531.801 219.897 530.637 220.914C529.472 221.932 524.974 220.767 521.051 217.286C517.129 213.806 516.111 207.835 516.111 207.835Z" fill="#FF8A66"/>
<path d="M395.678 200.994C396.695 199.628 412.88 182.385 422.252 168.489C422.252 168.489 450.566 200.217 453.645 201.248C454.783 201.623 461.731 201.543 470.353 201.449C484.918 201.302 504.29 201.154 508.574 203.296C515.401 206.71 519.498 208.41 521.198 213.19C522.898 217.969 523.581 221.088 519.498 221.383C514.718 221.717 511.653 215.586 511.653 215.586C511.653 215.586 507.744 217.942 497.663 221.731C497.663 221.731 461.37 235.814 437.112 229C430.485 227.139 395.678 200.994 395.678 200.994Z" fill="#F9865F"/>
<path d="M175.683 74.2556C172.564 75.447 170.676 76.8527 172.484 79.8649C174.291 82.877 175.081 81.6722 180.288 81.2706C185.496 80.8689 192.899 84.6709 195.51 91.0835C198.107 97.4961 197.317 98.4867 195.912 99.29C194.506 100.093 184.492 101.298 184.09 103.293C183.689 105.288 188.147 111.205 197.357 110.803L199.566 110.401C199.566 110.401 218.938 129.318 221.736 132.129C224.534 134.941 245.137 148.89 256.489 151.728C265.111 153.884 282.595 151.099 293.091 149.051C298.191 148.06 301.645 147.23 301.645 147.23C301.645 147.23 293.76 133.04 292.167 111.205C292.167 111.205 273.317 114.23 260.787 116.988C260.787 116.988 231.549 100.682 217.331 93.4798C217.331 93.4798 204.921 78.2584 199.111 76.2637C193.301 74.2689 179.887 72.6625 175.683 74.2556Z" fill="#F9865F"/>
<path d="M293.103 149.064C298.203 148.073 301.657 147.243 301.657 147.243C301.657 147.243 292.125 135.222 290.519 113.4C290.519 113.4 286.208 118.046 287.547 130.402C289.234 145.945 293.089 149.051 293.089 149.051L293.103 149.064Z" fill="#2A1E17"/>
<path d="M290.065 110.95C290.065 110.95 290.333 137.618 297.482 148.756L300.039 147.726C300.039 147.726 266.356 187.125 255.472 212.869C253.692 217.086 325.394 262.884 335.984 262.241C335.984 262.241 370.925 208.919 382.866 193.122L395.705 203.069C395.705 203.069 420.887 177.566 422.239 168.503C422.239 168.503 397.914 138.903 378.007 130.228C358.1 121.567 340.321 106.707 318.942 107.122C300.44 107.47 290.052 110.95 290.052 110.95H290.065Z" fill="#FFF7C9"/>
<path d="M395.717 203.069L382.865 193.109L384.913 187.54L395.717 203.069Z" fill="#2A1E17"/>
<path d="M415.249 97.5898C413 104.578 406.507 124.806 399.264 127.31C392.022 129.813 384.485 126.667 384.485 126.667L376.774 130.616C375.917 133.2 369.826 135.423 361.967 135.73C356.144 135.958 352.596 128.475 354.323 123.066C355.113 120.576 358.071 108.326 358.071 108.326C358.071 108.326 364.31 85.3537 370.053 80.6012C375.796 75.8487 381.191 71.1631 396.52 77.3481C420.001 86.8398 415.249 97.5764 415.249 97.5764V97.5898Z" fill="#F9865F"/>
<path d="M368.703 98.5938C367.672 102.891 363.201 111.472 360.283 109.933C357.364 108.393 356.333 104.431 358.395 96.8802C360.457 89.3298 362.17 72.1404 368.007 69.0613C373.844 65.9822 376.428 69.57 376.428 69.57C376.428 69.57 373.857 57.026 381.408 55.3124C381.408 55.3124 383.978 54.1076 382.947 62.7023C382.947 62.7023 385.866 54.8037 395.317 55.8345C404.769 56.8653 408.022 70.0921 408.022 70.0921C408.022 70.0921 408.705 66.4909 413.002 66.4909C417.299 66.4909 423.819 72.8499 422.28 79.8917C422.28 79.8917 433.271 76.4511 439.108 85.2198C444.944 93.9752 444.262 103.601 430.178 107.376C415.452 111.325 415.572 94.1492 413.35 91.9135C411.128 89.6778 408.718 87.1075 400.471 90.1999C392.225 93.2924 383.643 84.189 383.643 84.189C383.643 84.189 382.265 95.18 380.899 96.2109C379.534 97.2417 376.776 98.6206 377.459 93.4665C378.141 88.3123 378.998 88.8344 378.489 87.4555C377.981 86.0766 375.651 81.7525 370.765 85.5679C365.263 89.8653 368.703 98.6206 368.703 98.6206V98.5938Z" fill="#2A1E33"/>
<path d="M371.046 100.508C367.766 97.7505 365.503 92.9043 368.382 88.058C371.26 83.2118 375.986 82.5558 377.418 84.3899C378.85 86.2239 379.413 89.3164 378.061 92.9846" stroke="#2A1E33" stroke-linecap="round" stroke-linejoin="round"/>
<path d="M290.52 428.847L292.154 432.609L287.093 452.315C286.451 454.792 287.281 457.429 289.222 459.103L314.243 422.113C316.626 418.606 316.077 413.88 312.971 410.989L307.375 405.794L290.507 428.834L290.52 428.847Z" fill="black"/>
<path d="M376.439 69.5565C376.439 69.5565 374.524 63.318 368.781 61.6847" stroke="#2A1E33" stroke-linecap="round" stroke-linejoin="round"/>
<path d="M254.693 210.981L324.013 114.15" stroke="#2A1E17" stroke-linecap="round" stroke-linejoin="round"/>
<path d="M352.583 120.924C350.079 124.177 348.942 138.14 360.441 139.05C371.941 139.961 379.277 134.914 379.277 134.914" stroke="#2A1E17" stroke-linecap="round" stroke-linejoin="round"/>
<path d="M199.109 76.2637C199.109 76.2637 207.035 86.746 208.28 90.4811" stroke="#2A1E17" stroke-linecap="round" stroke-linejoin="round"/>
<path d="M495.816 216.871C495.816 216.871 501.104 221.236 511.654 215.586C515.482 213.538 512.751 208.705 507.919 209.91C503.086 211.115 497.329 209.307 497.329 209.307" stroke="#2A1E17" stroke-linecap="round" stroke-linejoin="round"/>
<path d="M517.932 208.437C517.932 208.437 523.005 214.368 522.872 217.889" stroke="#2A1E17" stroke-linecap="round" stroke-linejoin="round"/>
<path d="M443.176 207.795C443.176 207.795 447.768 201.677 453.645 201.262" stroke="#2A1E17" stroke-linecap="round" stroke-linejoin="round"/>
<path d="M249.527 126.881C249.527 126.881 252.205 118.528 260.8 116.988" stroke="#2A1E17" stroke-linecap="round" stroke-linejoin="round"/>
<path d="M272.811 253.633L262.569 273.232C262.569 273.232 228.779 330.423 240.239 367.359" stroke="#2A1E17" stroke-linecap="round" stroke-linejoin="round"/>
<path d="M302.742 319.231L335.983 262.241C335.983 262.241 379.559 199.039 384.017 190.123L399.399 161.675" stroke="#2A1E17" stroke-linecap="round" stroke-linejoin="round"/>
<path d="M259.326 217.059C259.326 217.059 318.445 260.166 335.982 262.241" stroke="#2A1E17" stroke-linecap="round" stroke-linejoin="round"/>
<path d="M290.064 110.95C290.064 110.95 290.011 138.006 297.307 149.091" stroke="#2A1E17" stroke-linecap="round" stroke-linejoin="round"/>
<path d="M420.348 164.219C418.487 175.371 393.814 198.785 393.814 198.785" stroke="#2A1E17" stroke-linecap="round" stroke-linejoin="round"/>
<path d="M236.195 303.073C238.132 303.073 239.702 301.503 239.702 299.565C239.702 297.628 238.132 296.058 236.195 296.058C234.258 296.058 232.688 297.628 232.688 299.565C232.688 301.503 234.258 303.073 236.195 303.073Z" fill="#2A1E17"/>
<path d="M565.576 375.003L563.635 361.576L575.094 369.193L569.097 370.505L565.576 375.003Z" stroke="#2A1E17" stroke-linecap="round" stroke-linejoin="round"/>
<path d="M185.724 145.771C164.023 126.627 128.158 174.38 259.395 326.367C335.1 414.054 394.58 421.913 402.64 391.403C417.098 336.675 364.887 322.846 384.312 344.279C412.56 375.445 492.911 382.032 552.779 352.941C611.858 324.238 575.538 279.672 571.87 277.075" stroke="#2A1E17" stroke-linecap="round" stroke-linejoin="round"/>
<path d="M553.73 356.181C555.667 356.181 557.238 354.61 557.238 352.673C557.238 350.736 555.667 349.166 553.73 349.166C551.793 349.166 550.223 350.736 550.223 352.673C550.223 354.61 551.793 356.181 553.73 356.181Z" fill="#2A1E17"/>
<path d="M502.643 381.336L606.716 322.672" stroke="#2A1E17" stroke-linecap="round" stroke-linejoin="round"/>
<path d="M187.892 152.117C189.829 152.117 191.4 150.547 191.4 148.609C191.4 146.672 189.829 145.102 187.892 145.102C185.955 145.102 184.385 146.672 184.385 148.609C184.385 150.547 185.955 152.117 187.892 152.117Z" fill="#2A1E17"/>
<path d="M277.412 83.6671C281.575 83.6671 284.949 80.2926 284.949 76.13C284.949 71.9674 281.575 68.5929 277.412 68.5929C273.249 68.5929 269.875 71.9674 269.875 76.13C269.875 80.2926 273.249 83.6671 277.412 83.6671Z" fill="#FF6D66"/>
<path d="M140.742 18.6713C138.908 18.6713 137.436 20.1573 137.436 21.978C137.436 23.7986 138.922 25.2846 140.742 25.2846C142.563 25.2846 144.049 23.7986 144.049 21.978C144.049 20.1573 142.563 18.6713 140.742 18.6713Z" fill="#A0C6F4"/>
<path d="M584.389 429.905C586.215 429.905 587.695 428.425 587.695 426.598C587.695 424.772 586.215 423.292 584.389 423.292C582.562 423.292 581.082 424.772 581.082 426.598C581.082 428.425 582.562 429.905 584.389 429.905Z" fill="#FAD8B0"/>
<path d="M525.226 277.061L489.629 260.354C486.751 259.002 486.804 254.905 489.709 253.62L555.923 224.489C556.86 224.074 557.931 224.074 558.868 224.489L604.359 244.008L525.226 277.061Z" fill="#2A1E33"/>
<path d="M523.029 222.173C523.123 236.899 525.238 277.075 525.238 277.075L604.371 244.021L602.59 188.129C602.483 184.702 598.922 182.479 595.79 183.912L527.648 214.957C524.81 216.242 523.002 219.067 523.016 222.186L523.029 222.173Z" fill="#C6CBCB"/>
<path d="M525.225 277.061L604.357 244.008L602.577 188.115C602.577 188.115 602.055 182.011 595.776 183.898" stroke="#2A1E17" stroke-linecap="round" stroke-linejoin="round"/>
<path d="M563.527 236.886L568.882 224.261" stroke="#2A1E17" stroke-linecap="round" stroke-linejoin="round"/>
<path d="M568.883 236.886L574.224 224.261" stroke="#2A1E17" stroke-linecap="round" stroke-linejoin="round"/>
<path d="M155.012 374.642C156.838 374.642 158.318 373.161 158.318 371.335C158.318 369.509 156.838 368.028 155.012 368.028C153.186 368.028 151.705 369.509 151.705 371.335C151.705 373.161 153.186 374.642 155.012 374.642Z" fill="#FF6D66"/>
<path d="M434.181 392.353C436.725 392.353 438.787 390.292 438.787 387.748C438.787 385.205 436.725 383.143 434.181 383.143C431.638 383.143 429.576 385.205 429.576 387.748C429.576 390.292 431.638 392.353 434.181 392.353Z" fill="#FF6D66"/>
<path d="M189.326 420.427C194.708 423.011 210.384 429.53 231.135 429.396C232.273 429.396 233.143 430.387 233.009 431.525L230.117 454.458C230.01 455.274 229.394 455.93 228.591 456.077C222.728 457.175 199.112 460.415 181.441 445.434C180.892 444.966 180.664 444.216 180.852 443.52L186.689 421.658C186.997 420.521 188.255 419.931 189.326 420.44V420.427Z" fill="#FFF7DC"/>
<path d="M191.4 427.174C191.4 427.174 201.602 441.512 205.243 443.573C208.884 445.622 228.537 433.921 228.537 433.921" stroke="#2A1E17" stroke-linecap="round" stroke-linejoin="round"/>
<path d="M214.869 441.565L225.592 452.583" stroke="#2A1E17" stroke-linecap="round" stroke-linejoin="round"/>
<path d="M199.968 439.437L187.438 442.851" stroke="#2A1E17" stroke-linecap="round" stroke-linejoin="round"/>
<path d="M517.65 149.212H505.668V161.193H517.65V149.212Z" fill="#FFE1C0"/>
<path d="M507.29 310.797L510.851 316.956L514.412 323.127H507.29H500.168L503.729 316.956L507.29 310.797Z" fill="#A0C6F4"/>
<path d="M219.38 37.5875L220.303 9.59444C220.21 6.9839 221.267 6.15389 222.874 5.79243C230.478 4.10562 253.598 -1.04853 278.739 6.39486C281.992 7.35875 281.885 9.07234 281.832 10.6253L280.935 37.3197C280.868 39.2743 278.82 40.6933 276.53 40.3587C269.194 39.2877 259.207 38.953 249.06 39.0333C238.577 39.127 229.246 39.9035 222.713 41.1619C220.223 41.6438 219.286 39.783 219.353 37.6009L219.38 37.5875Z" stroke="#2A1E17" stroke-linecap="round" stroke-linejoin="round"/>
<path d="M227.84 33.4909L242.472 16.3551L258.671 32.3396C253.088 30.5189 227.84 33.4776 227.84 33.4776V33.4909Z" stroke="#2A1E17" stroke-linecap="round" stroke-linejoin="round"/>
<path d="M251.455 24.2939L263.276 14.8157L273.25 21.9378L273.625 33.0627L258.684 32.3532" stroke="#2A1E17" stroke-linecap="round" stroke-linejoin="round"/>
<path d="M234.179 15.0935C234.315 13.7473 233.143 12.5265 231.561 12.3667C229.98 12.2069 228.587 13.1686 228.451 14.5148C228.315 15.861 229.487 17.0818 231.069 17.2416C232.65 17.4015 234.043 16.4397 234.179 15.0935Z" stroke="#2A1E17" stroke-linecap="round" stroke-linejoin="round"/>
<path d="M502.392 401.323L512.205 419.449C513.236 421.069 512.875 421.993 511.978 422.823C507.774 426.719 495.002 438.593 476.26 443.212C473.837 443.814 473.261 442.677 472.726 441.672L463.368 424.389C462.685 423.118 463.448 421.458 465.028 420.815C470.088 418.767 476.555 415.273 482.967 411.444C489.594 407.494 495.23 403.532 498.911 400.305C500.317 399.074 501.602 399.904 502.365 401.323H502.392Z" stroke="#2A1E17" stroke-linecap="round" stroke-linejoin="round"/>
<path d="M498.536 407.066L495.604 423.385L479.365 419.249C483.596 418.325 498.523 407.053 498.523 407.053L498.536 407.066Z" stroke="#2A1E17" stroke-linecap="round" stroke-linejoin="round"/>
<path d="M486.956 421.685L482.966 432.1L473.983 431.284L469.605 424.363L479.378 419.249" stroke="#2A1E17" stroke-linecap="round" stroke-linejoin="round"/>
<path d="M503.995 421.966C505.058 421.48 505.585 420.356 505.173 419.455C504.762 418.554 503.566 418.217 502.504 418.703C501.441 419.188 500.914 420.312 501.326 421.213C501.738 422.115 502.933 422.451 503.995 421.966Z" stroke="#2A1E17" stroke-linecap="round" stroke-linejoin="round"/>
<path d="M454.596 91.8333L494.49 122.356C495.36 123.026 496.619 122.852 497.275 121.968L503.299 113.802C503.928 112.945 503.768 111.754 502.951 111.098L463.632 79.6373C462.749 78.9278 461.464 79.1152 460.808 80.0256L454.221 89.129C453.592 89.9992 453.766 91.204 454.623 91.8466L454.596 91.8333Z" fill="white" stroke="#2A1E17" stroke-linecap="round" stroke-linejoin="round"/>
<path d="M457.541 90.4679L467.22 97.2553L472.923 90.4411L463.244 82.3685L457.541 90.4679Z" fill="#FF6D66"/>
<path d="M470.861 99.9059L480.54 107.59L485.735 101.204L475.989 93.2925L470.861 99.9059Z" fill="#FAD8B0"/>
<path d="M483.807 110.536L493.472 117.323L498.078 111.406L488.921 103.735L483.807 110.536Z" fill="#A0C6F4"/>
<path d="M534.183 49.1542L543.273 125.543C543.474 127.216 545.014 128.408 546.674 128.18L562.069 126.078C563.676 125.864 564.814 124.405 564.666 122.798L557.21 46.035C557.049 44.3214 555.469 43.0897 553.769 43.3441L536.754 45.8342C535.134 46.0751 533.996 47.5477 534.197 49.181L534.183 49.1542Z" fill="white" stroke="#2A1E17" stroke-linecap="round" stroke-linejoin="round"/>
<path d="M538.828 50.9347L541.706 68.8069L555.281 67.7894L553.809 48.5518L538.828 50.9347Z" fill="#FF6D66"/>
<path d="M542.697 75.6212L544.598 94.4572L557.156 93.3327L555.429 74.1887L542.697 75.6212Z" fill="#91BA83"/>
<path d="M544.84 101.191L547.718 119.063L559.138 117.791L557.772 99.5443L544.84 101.191Z" fill="#FAD8B0"/>
<path d="M514.344 65.4065L539.512 139.399C539.94 140.67 541.333 141.34 542.591 140.885L558.361 135.208C559.58 134.767 560.222 133.455 559.834 132.223L536.192 57.508C535.777 56.196 534.358 55.4999 533.073 55.9818L515.776 62.3944C514.558 62.8495 513.915 64.1883 514.344 65.4199V65.4065Z" fill="white" stroke="#2A1E17" stroke-linecap="round" stroke-linejoin="round"/>
<path d="M519.445 66.7587L525.978 83.6402L539.044 79.8248L533.609 61.3101L519.445 66.7587Z" fill="#A0C6F4"/>
<path d="M528.361 90.1063L534.145 108.139L546.193 104.431L540.517 86.0499L528.361 90.1063Z" fill="#F9865F"/>
<path d="M535.775 114.672L542.308 131.54L553.219 127.926L548.092 110.375L535.775 114.672Z" fill="#FAD8B0"/>
<path d="M324.645 158.864H197.532C193.48 158.864 190.195 162.148 190.195 166.2V183.403C190.195 187.455 193.48 190.739 197.532 190.739H324.645C328.697 190.739 331.981 187.455 331.981 183.403V166.2C331.981 162.148 328.697 158.864 324.645 158.864Z" fill="#7595EC"/>
<path d="M277.011 168.248H207.718C206.38 168.248 205.295 169.333 205.295 170.672C205.295 172.01 206.38 173.095 207.718 173.095H277.011C278.349 173.095 279.434 172.01 279.434 170.672C279.434 169.333 278.349 168.248 277.011 168.248Z" fill="white"/>
<path d="M205.994 179.387H323.79" stroke="#2A1E17" stroke-linecap="round" stroke-linejoin="round"/>
<path d="M145.736 98.9073L147.741 101.102C148.589 102.031 148.524 103.468 147.595 104.317L144.314 107.315C143.385 108.163 141.947 108.098 141.098 107.169L139.094 104.975L145.736 98.9073Z" fill="#91BA83"/>
<path d="M127.668 94.6222L137.121 104.971C137.61 105.506 138.44 105.544 138.975 105.055L145.508 99.0869C146.043 98.5982 146.081 97.7684 145.592 97.2334L136.139 86.8844C135.65 86.3495 134.82 86.3119 134.285 86.8006L127.752 92.7687C127.217 93.2574 127.179 94.0872 127.668 94.6222Z" stroke="#2A1E17" stroke-linecap="round" stroke-linejoin="round"/>
<path d="M117.81 141.648H105.936V152.492H117.81V141.648Z" fill="#FF6D66"/>
<path d="M105.935 134.673V141.648H98.8262" stroke="#2A1E17" stroke-linecap="round" stroke-linejoin="round"/>
<path d="M509.054 19.1934H497.18V30.0371H509.054V19.1934Z" fill="#FAD8B0"/>
<path d="M497.179 12.2186V19.1935H490.07" stroke="#2A1E17" stroke-linecap="round" stroke-linejoin="round"/>
<path d="M175.766 86.2241C52.6558 35.1914 -42.1269 133.482 189.943 283.983C208.217 295.83 236.237 299.994 236.237 299.994" stroke="#2A1E17" stroke-linecap="round" stroke-linejoin="round"/>
<path d="M62.5329 93.1588C64.47 93.1588 66.0404 91.5884 66.0404 89.6513C66.0404 87.7142 64.47 86.1438 62.5329 86.1438C60.5957 86.1438 59.0254 87.7142 59.0254 89.6513C59.0254 91.5884 60.5957 93.1588 62.5329 93.1588Z" fill="#2A1E17"/>
<path d="M40.1895 70.3868L44.0317 66.6919L52.8673 71.7523L57.2985 85.4476L43.7505 79.7714L40.1895 70.3868Z" stroke="#2A1E17" stroke-linecap="round" stroke-linejoin="round"/>
<path d="M44.0327 66.692L40.1905 70.3869L38.0352 67.7763L41.7301 64.2421L44.0327 66.692Z" stroke="#2A1E17" stroke-linecap="round" stroke-linejoin="round"/>
<path d="M57.3011 85.4476L48.4922 75.7686" stroke="#2A1E17" stroke-linecap="round" stroke-linejoin="round"/>
<path d="M78.6525 331.213L88.2244 380.519C88.4386 381.603 89.4962 382.3 90.5672 382.072L100.487 379.97C101.518 379.756 102.201 378.752 102.013 377.708L93.4857 328.067C93.2983 326.956 92.2139 326.233 91.1161 326.474L80.1519 328.911C79.1076 329.138 78.4383 330.156 78.6391 331.213H78.6525Z" fill="white" stroke="#2A1E17" stroke-linecap="round" stroke-linejoin="round"/>
<path d="M81.7598 332.164L84.4908 343.65L93.2863 342.351L91.3987 329.888L81.7598 332.164Z" fill="#FF6D66"/>
<path d="M85.4531 348.055L87.5951 360.224L95.7213 358.898L93.6864 346.502L85.4531 348.055Z" fill="#FAD8B0"/>
<path d="M88.0762 364.601L90.8072 376.101L98.1836 374.722L96.4165 362.915L88.0762 364.601Z" fill="#A0C6F4"/>
<path d="M352.664 454.806L393.107 443.975L394.647 448.353L353.748 458.969L352.664 454.806Z" stroke="#2A1E17" stroke-linecap="round" stroke-linejoin="round"/>
<path d="M347.053 449.143L348.217 452.811" stroke="#2A1E17" stroke-linecap="round" stroke-linejoin="round"/>
<path d="M345.916 451.539L349.33 450.361" stroke="#2A1E17" stroke-linecap="round" stroke-linejoin="round"/>
<path d="M345.09 463.159L347.299 470.094" stroke="#2A1E17" stroke-linecap="round" stroke-linejoin="round"/>
<path d="M343.215 467.564L349.293 465.623" stroke="#2A1E17" stroke-linecap="round" stroke-linejoin="round"/>
<path d="M335.85 451.74L338.714 460.91" stroke="#2A1E17" stroke-linecap="round" stroke-linejoin="round"/>
<path d="M332.998 457.443L341.512 454.725" stroke="#2A1E17" stroke-linecap="round" stroke-linejoin="round"/>
<path d="M57.792 15.4718L32.1953 3.93184L33.2529 1L58.9969 12.8478L57.792 15.4718Z" stroke="#2A1E17" stroke-width="0.67" stroke-linecap="round" stroke-linejoin="round"/>
<path d="M58.3008 20.7999L59.2513 18.3901" stroke="#2A1E17" stroke-width="0.67" stroke-linecap="round" stroke-linejoin="round"/>
<path d="M59.907 20.0368L57.6445 19.1934" stroke="#2A1E17" stroke-width="0.67" stroke-linecap="round" stroke-linejoin="round"/>
<path d="M65.2734 14.3471L67.0673 9.82214" stroke="#2A1E17" stroke-width="0.67" stroke-linecap="round" stroke-linejoin="round"/>
<path d="M68.1128 12.8611L64.1367 11.2948" stroke="#2A1E17" stroke-width="0.67" stroke-linecap="round" stroke-linejoin="round"/>
<path d="M65.2227 24.2136L67.619 18.2295" stroke="#2A1E17" stroke-width="0.67" stroke-linecap="round" stroke-linejoin="round"/>
<path d="M69.118 22.4599L63.5488 20.251" stroke="#2A1E17" stroke-width="0.67" stroke-linecap="round" stroke-linejoin="round"/>
<path d="M153.434 231.611C135.401 218.625 117.677 198.437 125.441 177.713C125.441 177.713 137.878 169.427 157.571 179.788L177.264 190.15L153.421 231.611H153.434Z" fill="#FAD8B0"/>
<path d="M145.255 318.134C137.142 314.292 102.482 296.259 96.3109 265.428C90.9827 238.8 111.358 202.882 121.559 187.018C120.904 208.076 142.056 225.895 152.257 233.244C162.592 240.688 170.196 244.329 180.678 248.265L145.255 318.134Z" fill="white"/>
<path d="M120.005 193.27C122.214 207.259 132.897 221.771 151.077 234.864C160.89 241.933 168.28 245.628 177.879 249.336L144.357 315.456C134.142 310.369 103.913 293.153 98.2908 265.013C93.6186 241.625 109.469 210.606 120.018 193.256M125.454 177.687C125.454 177.687 87.0989 229.509 94.3549 265.789C101.611 302.069 146.177 320.731 146.177 320.731L183.488 247.14C171.828 242.87 164.25 239.389 153.433 231.598C135.401 218.612 117.676 198.424 125.44 177.7L125.454 177.687Z" fill="#FAD8B0"/>
<path d="M115.359 207.822C115.359 207.822 117.595 228.639 138.412 239.791" stroke="#2A1E17" stroke-linecap="round" stroke-linejoin="round"/>
<path d="M149.566 247.234L170.384 258.386" stroke="#2A1E17" stroke-linecap="round" stroke-linejoin="round"/>
<path d="M118.334 237.568C118.334 237.568 125.028 252.442 146.595 262.107" stroke="#2A1E17" stroke-linecap="round" stroke-linejoin="round"/>
<path d="M101.225 239.791C101.225 239.791 101.974 255.4 112.376 260.608" stroke="#2A1E17" stroke-linecap="round" stroke-linejoin="round"/>
<path d="M125.026 185.518C125.026 185.518 123.099 205.573 153.435 231.611" stroke="#2A1E17" stroke-linecap="round" stroke-linejoin="round"/>
<path d="M136.178 189.24C136.178 189.24 145.843 188.49 159.967 198.906" stroke="#2A1E17" stroke-linecap="round" stroke-linejoin="round"/>
<path d="M90.7141 253.258C90.0983 263.205 91.3299 299.258 143.541 322.244" stroke="#2A1E17" stroke-linecap="round" stroke-linejoin="round"/>
<path d="M424.1 233.204L401.957 277.583C401.957 277.583 416.978 283.112 405.237 300.329C405.237 300.329 433.002 311.842 451.169 281.934C469.336 252.027 424.113 233.191 424.113 233.191L424.1 233.204Z" fill="#91BA83"/>
<path d="M373.416 368.845C362.211 368.845 350.377 364.267 338.234 355.244L379.668 286.62L404.314 302.136L404.475 302.203C404.703 302.297 410.192 304.532 417.93 304.532C424.155 304.532 432.013 303.073 439.657 297.664L409.375 349.474C409.308 349.581 396.269 368.859 373.416 368.859V368.845Z" fill="white"/>
<path d="M380.336 289.391L403.095 303.729L403.376 303.916L403.684 304.05C403.925 304.157 409.775 306.54 417.915 306.54C422.667 306.54 428.317 305.737 434.127 303.14L407.7 348.349C406.83 349.607 394.567 366.85 373.415 366.85C363.093 366.85 352.169 362.767 340.91 354.708L380.336 289.404M451.169 281.948C440.901 298.842 427.58 302.511 417.928 302.511C410.498 302.511 405.237 300.328 405.237 300.328L379.011 283.808L335.596 355.739C350.134 366.944 362.812 370.84 373.428 370.84C397.686 370.84 411.114 350.464 411.114 350.464L451.169 281.934V281.948Z" fill="#96BD89"/>
<path d="M401.957 277.583C401.957 277.583 418.477 283.42 405.237 300.329" stroke="#2A1E17" stroke-linecap="round" stroke-linejoin="round"/>
<path d="M378.488 282.269C378.488 282.269 400.992 302.872 413.443 302.738C425.893 302.604 440.499 299.632 449.12 284.772" stroke="#2A1E17" stroke-linecap="round" stroke-linejoin="round"/>
<path d="M381.26 308.937C381.26 308.937 396.709 322.645 413.965 318.241" stroke="#2A1E17" stroke-linecap="round" stroke-linejoin="round"/>
<path d="M397.473 329.433C397.473 329.433 405.572 335.511 416.898 329.767" stroke="#2A1E17" stroke-linecap="round" stroke-linejoin="round"/>
<path d="M360.203 337.88C360.203 337.88 378.892 356.475 408.331 344.212" stroke="#2A1E17" stroke-linecap="round" stroke-linejoin="round"/>
<path d="M370.377 319.74C370.377 319.74 378.008 325.189 382.787 326.929" stroke="#2A1E17" stroke-linecap="round" stroke-linejoin="round"/>
<path d="M427.9 246.083C427.9 246.083 444.969 251.665 447.018 274.183" stroke="#2A1E17" stroke-linecap="round" stroke-linejoin="round"/>
<path d="M436.484 273.915C436.484 273.915 444.343 286.071 431.062 298.24" stroke="#2A1E17" stroke-linecap="round" stroke-linejoin="round"/>
<path d="M337.176 359.139C337.176 359.139 380.029 395.847 411.141 352.927" stroke="#2A1E17" stroke-linecap="round" stroke-linejoin="round"/>
<path d="M27.8066 219.348H37.7937" stroke="#FF6D66" stroke-linecap="round" stroke-linejoin="round"/>
<path d="M584.389 99.183H594.389" stroke="#FF6D66" stroke-linecap="round" stroke-linejoin="round"/>
<path d="M316.451 30.6263H326.438" stroke="#FAD8B0" stroke-miterlimit="10"/>
<path d="M603.465 151.005L613.305 152.773" stroke="#FAD8B0" stroke-miterlimit="10"/>
<path d="M210.986 400.305H220.973" stroke="#A0C6F4" stroke-linecap="round" stroke-linejoin="round"/>
<path d="M624.99 279.069C626.817 279.069 628.297 277.589 628.297 275.762C628.297 273.936 626.817 272.456 624.99 272.456C623.164 272.456 621.684 273.936 621.684 275.762C621.684 277.589 623.164 279.069 624.99 279.069Z" fill="#91BA83"/>
<path d="M3.30669 120.255C5.13292 120.255 6.61337 118.774 6.61337 116.948C6.61337 115.122 5.13292 113.641 3.30669 113.641C1.48045 113.641 0 115.122 0 116.948C0 118.774 1.48045 120.255 3.30669 120.255Z" fill="#91BA83"/>
<path d="M663.494 492.437C665.431 492.437 667.001 490.867 667.001 488.93C667.001 486.993 665.431 485.422 663.494 485.422C661.557 485.422 659.986 486.993 659.986 488.93C659.986 490.867 661.557 492.437 663.494 492.437Z" fill="#2A1E17"/>
</svg>
