<svg width="765" height="645" viewBox="0 0 765 645" fill="none" xmlns="http://www.w3.org/2000/svg">
<g clip-path="url(#clip0_1798_1631)">
<mask id="mask0_1798_1631" style="mask-type:luminance" maskUnits="userSpaceOnUse" x="63" y="132" width="448" height="188">
<path d="M63.5458 319.896L510.232 319.896V132.549L63.5458 132.549V319.896Z" fill="white"/>
</mask>
<g mask="url(#mask0_1798_1631)">
<path d="M85.2637 321.47H135.445L135.445 180.701H85.2637L85.2637 321.47Z" fill="#F4E3FF"/>
<path d="M166.11 321.47H207.928V206.034H166.11V321.47Z" fill="#F4E3FF"/>
<path d="M103.84 321.47H152.164V230.435H103.84L103.84 321.47Z" fill="#F4E3FF"/>
<path d="M197.706 321.478H233.018V235.139H197.706V321.478Z" fill="#F4E3FF"/>
<path d="M120.568 321.478H308.291V269.863H120.568V321.478Z" fill="#F4E3FF"/>
<path d="M292.497 321.47H337.105V291.441H292.497V321.47Z" fill="#F4E3FF"/>
<path d="M249.48 275.293H286.41V263.568H249.48V275.293Z" fill="#F4E3FF"/>
<path d="M173.505 214.022H200.941V191.64H173.505V214.022Z" fill="#F4E3FF"/>
<path d="M100.269 201.236H134.494V142.539H100.269V201.236Z" fill="#F4E3FF"/>
<path d="M184.06 195.548H190.678V158.147H184.06V195.548Z" fill="#F4E3FF"/>
<path d="M63.2027 322.402H97.6758L97.6758 207.531H63.2027L63.2027 322.402Z" fill="#F4E3FF"/>
<path d="M330.538 321.701H395.195V313.088H330.538V321.701Z" fill="#F4E3FF"/>
<path d="M348.499 318.527H362.418V302.654H348.499V318.527Z" fill="#F4E3FF"/>
</g>
<path d="M207.695 235.541V256.272" stroke="#252D3B" stroke-width="2" stroke-miterlimit="10" stroke-linecap="round"/>
<path d="M100.193 178.383V207.531" stroke="#252D3B" stroke-width="2" stroke-miterlimit="10" stroke-linecap="round"/>
<path d="M288.172 268.203V291.441" stroke="#252D3B" stroke-width="2" stroke-miterlimit="10" stroke-linecap="round"/>
<path d="M344.055 445.483H63.793" stroke="#252D3B" stroke-width="2" stroke-miterlimit="10" stroke-linecap="round"/>
<path d="M711.445 524.578H0.855469" stroke="#252D3B" stroke-width="2" stroke-miterlimit="10" stroke-linecap="round"/>
<path d="M454.254 642.656C625.874 642.656 765 631.755 765 618.307C765 604.859 625.874 593.958 454.254 593.958C282.633 593.958 143.508 604.859 143.508 618.307C143.508 631.755 282.633 642.656 454.254 642.656Z" fill="#F4E3FF"/>
<path d="M224.156 599.551C224.156 599.551 250.3 622.155 301.458 620.539C352.615 618.914 415.175 612.799 430.747 624.302C444.64 634.565 421.69 644.221 421.69 644.221" stroke="white" stroke-width="2" stroke-miterlimit="10"/>
<path d="M379.821 382.63L356.587 444.004C349.662 445.27 341.47 444.372 331.873 444.56C275.357 445.646 212.557 429.328 212.557 429.328L177.99 439.805C166.442 444.329 134.948 444.911 115.926 444.816C106.15 444.765 97.1787 439.437 92.4191 430.901C91.5887 429.413 90.7584 427.874 89.9622 426.326C79.7324 406.466 63.9811 371.443 65.659 346.7C68.1244 310.3 98.3772 319.571 98.3772 319.571C133.39 328.038 126.13 383.271 129.178 391.739C129.46 392.525 156.203 387.787 156.203 387.787C156.203 387.787 216.264 361.496 247.124 371.973C271.633 380.287 310.489 393.03 331.976 394.125C337.557 394.407 341.957 393.902 344.646 392.337C376.148 373.898 379.812 382.639 379.812 382.639L379.821 382.63Z" fill="#F4E3FF"/>
<path d="M378.476 382.63L356.193 444.765C349.268 446.031 336.958 445.193 329.664 445.663C334.235 433.116 332.472 406.5 330.64 394.116C336.221 394.398 341.315 392.628 344.003 391.054C375.506 372.615 378.476 382.621 378.476 382.621V382.63Z" fill="#252D3B"/>
<path d="M155.784 382.399C145.802 394.167 119.616 416.584 84.3551 425.906C74.1253 406.047 64.2122 362.762 64.4091 337.959C64.6831 303.68 98.3857 315.397 98.3857 315.397C110.208 318.254 120.378 325.729 128.459 334.991C137.285 345.101 133.638 356.313 137.096 361.83C145.785 375.668 154.337 378.396 155.775 382.407L155.784 382.399Z" fill="#B4D2FF"/>
<path d="M154.439 387.154C152.958 387.154 151.597 386.188 151.16 384.699C150.621 382.886 151.657 380.988 153.472 380.449L207.454 364.498L220.406 315.679C220.894 313.849 222.769 312.763 224.592 313.25C226.424 313.738 227.511 315.611 227.023 317.433L213.087 369.972L155.415 387.009C155.09 387.103 154.764 387.154 154.439 387.154Z" fill="#252D3B"/>
<path d="M114.735 279.578C109.556 275.935 99.6346 277.124 94.7123 283.709C91.6733 287.772 89.8671 294.7 91.4336 299.532L83.9004 315.534C83.9004 315.534 96.6127 320.443 105.952 317.86C105.952 317.86 104.754 313.806 106.457 310.026C107.776 310.385 109.085 310.394 110.224 309.744C114.684 307.221 115.72 301.234 115.72 301.234C115.72 301.234 118.065 302.192 118.57 301.49C119.075 300.789 117.406 297.24 118.348 294.494C119.289 291.749 119.923 283.222 114.744 279.578H114.735Z" fill="white" stroke="#252D3B" stroke-width="2" stroke-miterlimit="10" stroke-linecap="round"/>
<path d="M91.6222 302.602C90.6292 304.039 88.4206 303.364 88.3521 301.619C88.3008 300.199 88.0439 298.446 87.4447 296.282C85.082 287.755 89.4735 272.155 104.831 271.556C118.203 271.034 121.601 281.392 119.247 284.856C118.742 285.6 116.696 284.838 115.9 284.411C113.451 283.085 106.646 280.032 99.0442 281.965C98.3422 282.144 97.8457 282.752 97.7601 283.47C97.3834 286.78 95.9453 296.367 91.6137 302.611L91.6222 302.602Z" fill="#252D3B"/>
<path d="M103.581 295.05C103.581 295.05 103.984 290.133 100.131 290.552C96.2792 290.971 96.8956 298.754 99.8233 298.822C102.751 298.891 103.581 295.05 103.581 295.05Z" fill="white"/>
<path d="M102.187 295.529C102.187 295.529 102.82 292.467 99.7383 292.818L102.187 295.529Z" fill="white"/>
<path d="M102.187 295.529C102.187 295.529 102.82 292.467 99.7383 292.818" stroke="#252D3B" stroke-width="2" stroke-miterlimit="10" stroke-linecap="round"/>
<path d="M113.614 295.94C113.649 296.624 113.957 297.163 114.299 297.146C114.642 297.129 114.89 296.564 114.856 295.88C114.822 295.196 114.513 294.657 114.171 294.674C113.828 294.691 113.58 295.256 113.614 295.94Z" fill="#252D3B"/>
<path d="M112.552 293.442C112.552 293.442 113.613 293.083 114.992 293.186C116.378 293.288 116.122 291.621 114.281 291.929C112.441 292.237 111.91 293.511 112.552 293.442Z" fill="#252D3B"/>
<path d="M106.826 309.692C106.826 309.692 101.09 307.546 100.697 308.333C100.303 309.119 104.72 315.371 105.653 314.371C105.747 314.268 105.525 311.232 106.826 309.701V309.692Z" fill="#252D3B"/>
<path d="M112.133 304.877C112.133 304.877 112.509 306.058 113.639 306.16L112.133 304.877Z" fill="white"/>
<path d="M112.133 304.877C112.133 304.877 112.509 306.058 113.639 306.16" stroke="#252D3B" stroke-width="2" stroke-miterlimit="10" stroke-linecap="round"/>
<path d="M194.606 352.789C194.606 352.789 187.424 348.12 180.558 348.659C183.486 346.837 187.415 344.348 187.45 343.604C187.492 342.578 183.991 342.706 179.309 344.126C177.109 344.793 174.412 347.153 172.169 349.462C170.645 351.036 168.839 352.285 166.879 353.217C164.276 354.449 161.948 355.586 161.614 355.851C143.74 363.643 127.783 372.401 127.783 372.401C111.98 349.941 101.81 342.663 101.81 342.663L76.7539 353.893C76.7539 353.893 95.6041 404.396 116.671 409.947C137.739 415.498 172.46 374.445 172.46 374.445C172.46 374.445 180.755 364.652 186.148 363.429C191.542 362.206 194.897 360.478 193.117 359.734C191.345 358.99 188.306 358.323 188.306 358.323C188.306 358.323 193.939 358.691 193.314 357.16C192.774 355.826 189.35 354.62 188.477 354.329C188.451 354.32 188.451 354.278 188.485 354.278C189.787 354.363 196.584 354.705 194.606 352.798V352.789Z" fill="white" stroke="#252D3B" stroke-width="2" stroke-miterlimit="10" stroke-linecap="round"/>
<path d="M83.2169 324.677C83.2169 324.677 58.811 327.362 79.4075 372.341C79.2449 372.726 102.589 365.55 121.414 353.602C121.414 353.602 101.845 321.863 83.2169 324.677Z" fill="white" stroke="#252D3B" stroke-width="2" stroke-miterlimit="10" stroke-linecap="round"/>
<path d="M121.225 376.865C121.225 376.865 125.522 373.401 127.782 372.392L121.225 376.865Z" fill="white"/>
<path d="M121.225 376.865C121.225 376.865 125.522 373.401 127.782 372.392" stroke="#252D3B" stroke-width="2" stroke-miterlimit="10" stroke-linecap="round"/>
<path d="M188.485 354.269C188.485 354.269 182.852 351.421 176.363 355.039L188.485 354.269Z" fill="white"/>
<path d="M188.485 354.269C188.485 354.269 182.852 351.421 176.363 355.039" stroke="#252D3B" stroke-width="2" stroke-miterlimit="10" stroke-linecap="round"/>
<path d="M188.306 358.315C188.306 358.315 183.067 357.562 178.658 359.7L188.306 358.315Z" fill="white"/>
<path d="M188.306 358.315C188.306 358.315 183.067 357.562 178.658 359.7" stroke="#252D3B" stroke-width="2" stroke-miterlimit="10" stroke-linecap="round"/>
<path d="M180.558 348.658C180.558 348.658 177.81 348.932 174.445 352.259L180.558 348.658Z" fill="white"/>
<path d="M180.558 348.658C180.558 348.658 177.81 348.932 174.445 352.259" stroke="#252D3B" stroke-width="2" stroke-miterlimit="10" stroke-linecap="round"/>
<path d="M86.1877 375.146C86.1877 375.146 103.643 367.166 116.355 357.416L115.978 357.254C115.978 357.254 90.5364 369.861 84.2188 370.989L86.1877 375.146Z" fill="#252D3B"/>
<path d="M300.438 524.433H222.401C222.401 524.433 219.584 517.89 215.92 507.704C209.329 489.41 200.015 459.39 199.399 434.493C199.399 434.493 113.237 448.126 98.3848 437.478L182.637 392.876C184.075 394.313 219.987 379.953 235.798 387.616C249.315 394.159 263.2 464.462 272.608 491.206C274.209 495.722 275.673 498.997 276.974 500.511C286.065 511.031 300.438 524.433 300.438 524.433Z" fill="#F4E3FF"/>
<path d="M300.438 524.433H222.4C222.4 524.433 219.584 517.89 215.92 507.704C227.887 507.593 256.873 505.523 272.608 491.197C274.208 495.713 275.672 498.989 276.973 500.503C286.065 511.022 300.438 524.424 300.438 524.424V524.433Z" fill="#252D3B"/>
<path d="M256.891 433.193C256.891 433.193 250.659 394.159 244.837 387.514C231.629 372.427 170.43 391.251 163.367 392.5" stroke="#252D3B" stroke-width="2" stroke-miterlimit="10" stroke-linecap="round"/>
<path d="M92.3501 277.32C92.3501 277.32 82.6339 277.936 82.4285 288.268C82.223 298.599 85.8612 308.598 77.0953 312.874C60.9844 320.725 61.7549 338.053 70.7177 345.631C83.5499 356.484 90.073 342.047 94.6358 336.437C96.228 334.478 98.7705 333.127 103.444 333.486C109.625 333.965 112.587 327.14 105.901 322.453C95.9113 315.448 107.434 312.301 106.603 300.729C105.773 289.166 105.379 286.198 118.194 284.958C118.194 284.958 113.649 265.338 92.3501 277.312V277.32Z" fill="#252D3B"/>
<path d="M85.7328 290.056C85.7328 290.056 61.5409 293.981 73.5341 314.02C85.5274 334.059 92.3501 301.422 85.7328 290.056Z" fill="#252D3B"/>
<path d="M213.035 498.792C214.011 498.467 244.504 502.034 269.817 480.644" stroke="white" stroke-width="2" stroke-miterlimit="10"/>
<path d="M68.9025 326.174C68.9025 326.174 60.479 315.603 76.6754 308.273" stroke="#252D3B" stroke-width="2" stroke-miterlimit="10" stroke-linecap="round"/>
<path d="M594.996 212.987C568.818 233.907 570.564 260.754 570.564 260.754C567.774 263.149 565.359 264.697 563.296 265.595C562.56 254.579 563.211 236.011 572.542 218.418C576.762 210.473 582.866 197.977 587.677 187.962C586.752 191.683 587.694 188.039 587.694 188.039C599.208 182.121 621.174 192.067 594.996 212.987Z" fill="#F4E3FF"/>
<path d="M589.945 174.158C589.482 181.377 587.471 188.415 584.312 194.924C580.246 203.297 575.828 212.226 572.541 218.41C563.202 236.003 562.56 254.57 563.296 265.586C561.601 266.33 560.137 266.638 558.87 266.638C555.865 266.638 553.973 264.893 552.801 262.995C551.363 260.677 551.003 258.103 551.003 258.103C536.33 218.145 546.492 158.952 573.705 154.419C587.993 152.041 590.647 163.108 589.945 174.167V174.158Z" fill="white" stroke="#252D3B" stroke-width="2" stroke-miterlimit="10" stroke-linecap="round"/>
<path d="M587.907 159.653C587.907 159.653 576.522 169.907 580.443 173.619C583.148 176.177 589.953 169.942 589.953 169.942" stroke="#252D3B" stroke-width="2" stroke-miterlimit="10" stroke-linecap="round"/>
<path d="M544.275 221.181C544.275 221.181 548.042 225.868 549.985 223.558C552.211 220.924 544.815 208.249 544.815 208.249" stroke="#252D3B" stroke-width="2" stroke-miterlimit="10" stroke-linecap="round"/>
<path d="M572.841 167.042C572.841 167.042 548.837 212.243 557.141 258.984" stroke="#252D3B" stroke-width="2" stroke-miterlimit="10" stroke-linecap="round"/>
<path d="M551.005 258.103H573.373C575.89 258.103 577.936 260.147 577.936 262.661V282.204H546.434V262.661C546.434 260.147 548.48 258.103 550.996 258.103H551.005Z" fill="white" stroke="#252D3B" stroke-width="2" stroke-miterlimit="10" stroke-linecap="round"/>
<path d="M731.135 159.123C704.273 160.842 705.788 190.006 691.749 192.871C682.906 194.702 679.875 205.196 679.002 214.518" fill="white"/>
<path d="M731.135 159.123C704.273 160.842 705.788 190.006 691.749 192.871C682.906 194.702 679.875 205.196 679.002 214.518" stroke="#252D3B" stroke-width="2" stroke-miterlimit="10" stroke-linecap="round"/>
<path d="M679.001 214.527H659.629V143.061H731.135V159.122" fill="white"/>
<path d="M679.001 214.527H659.629V143.061H731.135V159.122" stroke="#252D3B" stroke-width="2" stroke-miterlimit="10" stroke-linecap="round"/>
<path d="M731.135 159.123V214.527H679.002C679.875 205.204 682.906 194.702 691.749 192.88C705.788 190.006 704.273 160.842 731.135 159.131V159.123Z" fill="#F4E3FF"/>
<path d="M714.708 175.227C718.391 175.227 721.376 172.244 721.376 168.564C721.376 164.885 718.391 161.902 714.708 161.902C711.025 161.902 708.039 164.885 708.039 168.564C708.039 172.244 711.025 175.227 714.708 175.227Z" fill="#AF8CFF"/>
<path d="M432.347 353.542H323.852V548.235H432.347V353.542Z" stroke="#252D3B" stroke-width="2" stroke-miterlimit="10" stroke-linecap="round"/>
<path d="M414.166 352.841H305.67V548.218H414.166V352.841Z" stroke="#252D3B" stroke-width="2" stroke-miterlimit="10" stroke-linecap="round"/>
<path d="M443.408 369.681H315.95C305.19 369.681 296.467 360.966 296.467 350.215C296.467 339.464 305.19 330.749 315.95 330.749H443.408C454.168 330.749 462.891 339.464 462.891 350.215C462.891 360.966 454.168 369.681 443.408 369.681Z" fill="#252D3B"/>
<path d="M431.807 495.491H305.797" stroke="#252D3B" stroke-width="2" stroke-miterlimit="10" stroke-linecap="round"/>
<path d="M445.411 495.072H370.233C370.233 495.072 368.872 487.391 368.333 474.802C367.211 448.212 369.754 399.727 396.574 355.791C396.574 355.791 321.395 361.83 326.335 305.912C327.533 292.433 332.515 284.377 339.415 279.895C361.176 265.775 401.847 287.242 401.847 287.242C401.847 287.242 443.28 289.175 461.548 308.717C490.345 339.541 457.482 413.377 428.384 447.912C428.384 447.912 423.385 454.515 423.659 462.76C423.83 468.165 426.253 474.263 433.872 479.711C453.099 493.421 445.403 495.08 445.403 495.08L445.411 495.072Z" fill="#B4D2FF"/>
<path d="M420.422 495.072H349.627C347.067 495.072 344.927 493.147 344.602 490.616C344.063 486.211 343.352 478.753 343.164 469.131C342.693 443.396 346.092 402.275 367.167 363.455C368.974 360.119 366.68 356.031 362.879 355.954C343.241 355.56 297.442 349.933 301.337 305.904C303.837 277.637 322.037 275.285 339.414 279.886C353.753 283.632 367.527 292.134 371.516 294.708C372.278 295.213 373.16 295.469 374.059 295.512C381.267 295.811 414.858 298.086 431.953 314.662C451.163 333.306 432.493 413.368 403.413 447.904C403.413 447.904 397.514 455.661 398.876 464.889C399.569 469.722 402.274 474.956 408.9 479.694C428.11 493.404 420.414 495.063 420.414 495.063L420.422 495.072Z" fill="#B4D2FF"/>
<path d="M343.164 469.131C348.651 469.148 356.381 470.098 365.395 473.81C366.388 474.22 367.356 474.554 368.323 474.802C382.302 478.608 394.92 468.515 398.875 464.898C399.714 464.137 400.159 463.666 400.159 463.666C400.159 463.666 414.627 474.254 423.435 462.973C423.495 462.896 423.564 462.828 423.658 462.751C423.829 468.156 426.252 474.254 433.871 479.702C453.097 493.412 445.402 495.072 445.402 495.072H349.61C347.05 495.072 344.91 493.147 344.585 490.616C344.045 486.211 343.335 478.753 343.146 469.131" fill="white"/>
<path d="M343.164 469.508C348.651 469.525 356.381 470.474 365.395 474.186C366.388 474.597 367.356 474.93 368.323 475.178C382.302 478.984 394.92 468.892 398.875 465.274C399.714 464.513 400.159 464.043 400.159 464.043C400.159 464.043 414.627 474.631 423.435 463.35C423.495 463.273 423.564 463.204 423.658 463.127C423.829 468.533 426.252 474.631 433.871 480.079C453.097 493.789 445.402 495.448 445.402 495.448H349.61C347.05 495.448 344.91 493.524 344.585 490.992C344.045 486.587 343.335 479.13 343.146 469.508" fill="white"/>
<path d="M343.164 469.508C348.651 469.525 356.381 470.474 365.395 474.186C366.388 474.597 367.356 474.93 368.323 475.178C382.302 478.984 394.92 468.892 398.875 465.274C399.714 464.513 400.159 464.043 400.159 464.043C400.159 464.043 414.627 474.631 423.435 463.35C423.495 463.273 423.564 463.204 423.658 463.127C423.829 468.533 426.252 474.631 433.871 480.079C453.097 493.789 445.402 495.448 445.402 495.448H349.61C347.05 495.448 344.91 493.524 344.585 490.992C344.045 486.587 343.335 479.13 343.146 469.508" stroke="#252D3B" stroke-width="2" stroke-miterlimit="10" stroke-linecap="round"/>
<path d="M388.371 292.031C408.677 295.401 430.258 303.389 438.245 313.764C459.261 341.055 427.681 409.673 405.424 448.306C405.424 448.306 391.701 466.403 410.911 480.105C430.121 493.814 422.433 495.457 422.433 495.457" stroke="#252D3B" stroke-width="2" stroke-miterlimit="10" stroke-linecap="round"/>
<path d="M391.214 471.338C391.214 471.338 399.817 488.717 413.385 482.029C413.385 482.029 401.794 473.972 400.819 462.691C400.819 462.691 393.833 460.083 391.205 471.338H391.214Z" fill="#252D3B"/>
<path d="M416.801 468.533C416.801 468.533 419.985 485.493 432.929 479.583C432.929 479.583 425.678 474.374 424.24 461.981C424.24 461.981 416.518 458.877 416.801 468.524V468.533Z" fill="#252D3B"/>
<path d="M344.834 488.931H444.033" stroke="#252D3B" stroke-width="2" stroke-miterlimit="10" stroke-linecap="round"/>
<path d="M486.004 283.026C486.004 283.026 474.251 263.705 445.436 259.54C421.193 256.033 408.215 225.132 402.488 215.006C399.68 209.267 396.016 204.384 390.897 200.851C376.447 190.879 355.14 191.144 343.532 189.887C311.053 186.389 294.215 180.077 274.063 226.373C266.727 243.238 265.186 264.15 266.847 271.633C273.302 300.67 294.883 286.883 294.883 286.883C294.883 286.883 315.976 289.38 348.18 289.936C379.58 290.475 400.356 292.972 424.617 284.24C424.617 284.24 392.994 295.085 389.861 284.24L485.996 283.026H486.004Z" fill="white" stroke="#252D3B" stroke-width="2" stroke-miterlimit="10" stroke-linecap="round"/>
<path d="M376.473 277.971C376.473 277.971 385.992 274.165 385.435 281.212L376.473 277.971Z" fill="white"/>
<path d="M376.473 277.971C376.473 277.971 385.992 274.165 385.435 281.212" stroke="#252D3B" stroke-width="2" stroke-miterlimit="10" stroke-linecap="round"/>
<path d="M376.609 228.896C376.609 228.896 382.045 237.996 379.563 247.934C377.071 257.872 371.113 275.55 372.997 285.899" stroke="white" stroke-width="2" stroke-miterlimit="10" stroke-linecap="round"/>
<path d="M356.527 268.067C356.527 268.067 311.242 247.232 290.996 256.94L356.527 268.067Z" fill="white"/>
<path d="M356.527 268.067C356.527 268.067 311.242 247.232 290.996 256.94" stroke="#252D3B" stroke-width="2" stroke-miterlimit="10" stroke-linecap="round"/>
<path d="M317.507 233.745C317.507 233.745 310.796 239.244 307.098 253.604L317.507 233.745Z" fill="white"/>
<path d="M317.507 233.745C317.507 233.745 310.796 239.244 307.098 253.604" stroke="#252D3B" stroke-width="2" stroke-miterlimit="10" stroke-linecap="round"/>
<path d="M360.524 184.712C360.524 184.712 357.485 189.767 359.077 195.626C359.077 195.626 358.418 205.564 352.229 213.851C350.38 216.323 346.57 216.024 345.055 213.33C341.828 207.617 337.325 197.892 338.25 189.399C338.25 189.399 343.069 177.323 343.994 169.309C343.994 169.309 359.668 183.31 360.515 184.712H360.524Z" fill="white"/>
<path d="M346.76 284.924C346.76 284.924 347.513 271.334 356.964 267.93C356.964 267.93 371.996 268.067 383.75 264.055C395.495 260.044 401.795 282.948 401.795 282.948C401.795 282.948 399.672 285.266 394.639 280.237C393.646 279.254 391.976 280.211 392.31 281.571L392.918 284.094" fill="white"/>
<path d="M346.76 284.924C346.76 284.924 347.513 271.334 356.964 267.93C356.964 267.93 371.996 268.067 383.75 264.055C395.495 260.044 401.795 282.948 401.795 282.948C401.795 282.948 399.672 285.266 394.639 280.237C393.646 279.254 391.976 280.211 392.31 281.571L392.918 284.094" stroke="#252D3B" stroke-width="2" stroke-miterlimit="10" stroke-linecap="round"/>
<path d="M377.037 274.387C377.037 274.387 381.514 270.248 384.433 269.683C387.344 269.127 391.624 276.731 391.624 276.731" fill="white"/>
<path d="M377.037 274.387C377.037 274.387 381.514 270.248 384.433 269.683C387.344 269.127 391.624 276.731 391.624 276.731" stroke="#252D3B" stroke-width="2" stroke-miterlimit="10" stroke-linecap="round"/>
<path d="M423.479 282.658H517.045C518.543 282.658 519.81 281.546 519.998 280.058L527.223 222.336C527.446 220.565 526.059 219 524.27 219H430.704C429.206 219 427.939 220.112 427.751 221.6L420.525 279.322C420.303 281.092 421.69 282.658 423.479 282.658Z" fill="#252D3B"/>
<path d="M471.306 255.494C472.521 257.222 475.654 257.119 478.3 255.263C480.945 253.407 482.1 250.499 480.885 248.772C479.669 247.044 476.536 247.147 473.891 249.003C471.246 250.859 470.09 253.767 471.306 255.494Z" fill="#252D3B" stroke="white" stroke-width="2" stroke-miterlimit="10"/>
<path d="M440 278.416H367.116C365.926 278.416 364.959 279.382 364.959 280.571C364.959 281.76 365.926 282.726 367.116 282.726H440C441.19 282.726 442.158 281.76 442.158 280.571C442.158 279.382 441.19 278.416 440 278.416Z" fill="#252D3B"/>
<path d="M395.682 269.17C395.682 269.17 412.691 275.679 413.41 278.39L395.682 269.17Z" fill="white"/>
<path d="M395.682 269.17C395.682 269.17 412.691 275.679 413.41 278.39" stroke="#252D3B" stroke-width="2" stroke-miterlimit="10" stroke-linecap="round"/>
<path d="M315.574 236.712C315.574 236.712 310.669 243.298 314.658 254.784L306.996 254.622C306.996 254.622 308.434 242.793 315.574 236.712Z" fill="#252D3B"/>
<path d="M387.961 263.354C387.961 263.354 383.038 248.455 386.129 236.687C386.129 236.687 394.826 251.834 398.473 260.797C402.12 269.76 409.062 274.199 409.062 274.199L395.417 268.896C395.417 268.896 392.164 263.91 387.961 263.354Z" fill="#252D3B"/>
<path d="M328.936 189.04C328.936 189.04 334.672 208.685 352.221 207.026C368.631 205.487 363.949 192.717 363.949 192.717L328.928 189.031L328.936 189.04Z" fill="#AF8CFF"/>
<path d="M360.413 185.277C359.557 187.561 358.641 192.615 358.889 195.335C358.992 196.524 357.04 200.86 349.19 198.978C339.731 196.712 338.027 189.109 338.027 189.109C342.684 180.479 343.951 167.898 343.951 167.898" fill="white"/>
<path d="M360.413 185.277C359.557 187.561 358.641 192.615 358.889 195.335C358.992 196.524 357.04 200.86 349.19 198.978C339.731 196.712 338.027 189.109 338.027 189.109C342.684 180.479 343.951 167.898 343.951 167.898" stroke="#252D3B" stroke-width="2" stroke-miterlimit="10" stroke-linecap="round"/>
<path d="M376.035 157.301C376.035 157.301 381.146 144.891 370.377 137.775C366.559 135.252 358.272 134.448 350.491 136.124C336.314 139.178 323.816 150.476 343.163 174.637L376.035 157.301Z" fill="#AF8CFF"/>
<path d="M366.097 155.069C371.122 154.008 376.54 154.692 375.291 160.474C374.486 164.203 374.606 165.195 373.947 171.019C372.543 183.472 362.15 188.595 352.545 181.411C342.778 174.115 342.093 168.385 347.538 155.052C351.535 145.259 355.995 150.921 355.995 150.921C355.995 150.921 358.444 156.677 366.097 155.069Z" fill="white"/>
<path d="M372.602 164.46C372.268 165.358 371.635 165.956 371.181 165.785C370.736 165.623 370.642 164.75 370.984 163.852C371.318 162.954 371.952 162.356 372.405 162.527C372.85 162.689 372.945 163.562 372.602 164.46Z" fill="#252D3B"/>
<path d="M360.892 162.236C360.781 163.177 360.302 163.938 359.822 163.929C359.334 163.929 359.035 163.151 359.137 162.21C359.249 161.269 359.728 160.508 360.207 160.517C360.695 160.517 360.995 161.295 360.892 162.236Z" fill="#252D3B"/>
<path d="M360.523 184.712C360.523 184.712 355.095 183.866 350.61 179.051C346.124 174.235 349.856 187.697 358.879 190.562C358.879 190.562 358.785 188.33 360.523 184.704V184.712Z" fill="#252D3B"/>
<path d="M370.719 158.789C370.719 158.789 373.441 159.285 374.956 160.979C376.471 162.672 375.667 153.307 370.719 158.789Z" fill="#252D3B"/>
<path d="M363.271 158.404C363.271 158.404 358.263 158.225 356.928 159.063C355.592 159.893 361.011 151.827 363.271 158.404Z" fill="#252D3B"/>
<path d="M347.931 163.1C347.931 163.1 346.201 158.875 342.957 158.353C339.704 157.831 338.617 167.744 345.585 168.283C352.553 168.821 347.931 163.1 347.931 163.1Z" fill="white"/>
<path d="M345.277 163.544C345.277 163.544 345.243 160.936 342.932 160.363" stroke="#252D3B" stroke-width="2" stroke-miterlimit="10" stroke-linecap="round"/>
<path d="M345.715 159.875C345.715 159.875 353.291 158.635 357.28 147.978C361.261 137.322 340.921 143.659 345.715 159.875Z" fill="#AF8CFF"/>
<path d="M375.513 157.387C375.83 178.469 367.278 187.466 358.777 184.541" stroke="#252D3B" stroke-width="2" stroke-miterlimit="10" stroke-linecap="round"/>
<path d="M359.247 174.261C359.247 174.261 357.681 176.792 361.422 178.434" stroke="#252D3B" stroke-width="2" stroke-miterlimit="10" stroke-linecap="round"/>
<path d="M359.531 166.504C363.002 166.504 365.815 164.842 365.815 162.792C365.815 160.742 363.002 159.08 359.531 159.08C356.061 159.08 353.248 160.742 353.248 162.792C353.248 164.842 356.061 166.504 359.531 166.504Z" stroke="#252D3B" stroke-width="2" stroke-miterlimit="10" stroke-linecap="round"/>
<path d="M373.912 168.813C377.383 168.813 380.196 167.151 380.196 165.101C380.196 163.051 377.383 161.389 373.912 161.389C370.442 161.389 367.629 163.051 367.629 165.101C367.629 167.151 370.442 168.813 373.912 168.813Z" stroke="#252D3B" stroke-width="2" stroke-miterlimit="10" stroke-linecap="round"/>
<path d="M372.046 151.032C372.046 151.032 373.921 161.646 380.632 157.669C387.344 153.683 378.338 148.936 378.338 148.936C378.338 148.936 393.439 144.532 384.63 136.569C375.821 128.607 356.731 129.026 345.611 135.312C345.611 135.312 343.189 136.287 340.929 138.733C339.747 140.007 341.391 139.434 338.532 140.538C324.655 145.9 338.771 168.402 338.771 168.402C338.771 168.402 333.858 147.884 348.958 143.48C364.059 139.075 372.029 151.023 372.029 151.023L372.046 151.032Z" fill="#AF8CFF"/>
<path d="M339.773 161.517C339.773 161.517 338.848 157.036 341.622 156.899C344.396 156.771 353.256 162.783 353.256 162.783" stroke="#252D3B" stroke-width="2" stroke-miterlimit="10" stroke-linecap="round"/>
<path d="M365.814 162.792L368.023 163.502" stroke="#252D3B" stroke-width="2" stroke-miterlimit="10" stroke-linecap="round"/>
<path d="M341.828 140.692C341.828 140.692 325.846 133.55 336.358 162.356" stroke="#AF8CFF" stroke-width="2" stroke-miterlimit="10" stroke-linecap="round"/>
<path d="M385.906 139.793C385.906 139.793 391.898 150.134 377.191 149.595" stroke="#AF8CFF" stroke-width="2" stroke-miterlimit="10" stroke-linecap="round"/>
<path d="M343.574 451.684C343.574 451.684 378.638 449.914 374.64 434.39C370.643 418.867 351.861 417.927 365.523 401.582C396.761 364.224 389.955 339.216 371.927 341.85C369.915 342.141 347.632 345.006 332.112 333.683C312.868 319.648 317.525 294.024 317.525 294.024" stroke="white" stroke-width="2" stroke-miterlimit="10"/>
<path d="M748.907 282.495H247.39C244.776 282.495 242.656 284.61 242.656 287.22C242.656 289.83 244.776 291.945 247.39 291.945H748.907C751.521 291.945 753.641 289.83 753.641 287.22C753.641 284.61 751.521 282.495 748.907 282.495Z" fill="white" stroke="#252D3B" stroke-width="2" stroke-miterlimit="10" stroke-linecap="round"/>
<path d="M271.805 292.091V549.116" stroke="#252D3B" stroke-width="2" stroke-miterlimit="10" stroke-linecap="round"/>
<path d="M32.9323 557.951C32.9323 557.951 36.2538 517.899 8.95437 474.041C-18.345 430.183 29.1828 394.296 45.7816 438.692C62.3719 483.081 61.3018 528.538 61.3018 528.538C61.3018 528.538 45.7816 585.764 32.9323 557.951Z" fill="#F4E3FF"/>
<path d="M47.5801 576.587C47.5801 573.782 41.9729 491.839 78.4235 471.526C114.874 451.214 73.5184 556.275 58.0924 571.686C42.6663 587.098 47.5801 576.587 47.5801 576.587Z" fill="white" stroke="#252D3B" stroke-width="2" stroke-miterlimit="10" stroke-linecap="round"/>
<path d="M81.9764 549.51H24.9121V622.071H81.9764V549.51Z" fill="white" stroke="#252D3B" stroke-width="2" stroke-miterlimit="10" stroke-linecap="round"/>
<path d="M75.794 492.643C75.794 492.643 58.6901 522.671 57.6543 549.073L75.794 492.643Z" fill="white"/>
<path d="M75.794 492.643C75.794 492.643 58.6901 522.671 57.6543 549.073" stroke="#252D3B" stroke-width="2" stroke-miterlimit="10" stroke-linecap="round"/>
<path d="M90.168 497.706C90.168 497.706 73.6976 506.062 75.9833 511.878C78.2604 517.702 85.8621 514.666 85.8621 514.666" stroke="#252D3B" stroke-width="2" stroke-miterlimit="10" stroke-linecap="round"/>
<path d="M49.8906 526.417C49.8906 526.417 52.0821 530.976 55.181 528.607C58.2885 526.238 52.6214 514.016 52.6214 514.016" stroke="#252D3B" stroke-width="2" stroke-miterlimit="10" stroke-linecap="round"/>
<path d="M76.8047 549.065C76.8047 549.065 83.8243 519.533 109.514 504.138" stroke="#252D3B" stroke-width="2" stroke-miterlimit="10" stroke-linecap="round"/>
<path d="M134.52 483.945C133.578 484.355 105.063 500.366 109.514 504.822C113.966 509.278 146.504 504.48 147.874 499.006C149.244 493.532 132.628 492.215 133.655 492.215C134.682 492.215 146.162 478.813 134.52 483.953V483.945Z" fill="#AF8CFF"/>
<path d="M91.7942 607.685H13.5684V626.92H91.7942V607.685Z" fill="#252D3B"/>
<path d="M488.111 581.06C488.111 581.06 495.679 595.6 477.051 603.451C458.423 611.302 463.542 615.989 463.542 615.989C463.542 615.989 501.286 622.25 527.763 616.451C527.763 616.451 564.454 601.604 549.361 577.468C534.269 553.341 488.111 581.052 488.111 581.052V581.06Z" fill="white"/>
<path d="M605.596 300.771C605.596 300.771 594.75 330.27 625.781 340.807" stroke="white" stroke-width="2" stroke-miterlimit="10" stroke-linecap="round"/>
<path d="M649.279 298.36C649.279 298.36 638.133 320.631 665.544 338.096" stroke="white" stroke-width="2" stroke-miterlimit="10" stroke-linecap="round"/>
<path d="M600.63 311.993H716.427C733.146 311.993 746.697 325.532 746.697 342.235V497.594C746.697 518.163 730.004 534.833 709.425 534.833H569.529C569.529 534.833 571.13 403.66 570.377 342.586C570.171 325.745 583.783 311.993 600.638 311.993H600.63Z" fill="#252D3B"/>
<path d="M720.135 325.652C723.747 331.698 727.026 339.173 729.988 348.376C732.539 356.27 737.906 374.941 736.776 381.826C730.621 419.62 679.9 415.155 679.9 415.155C679.9 415.155 709.665 466.035 576.704 418.183C576.704 418.183 590.854 410.597 597.334 394.578L538.532 392.046C538.532 392.046 537.308 382.287 567.244 373.735C583.672 369.048 588.697 364.113 593.79 351.737C595.888 346.648 597.223 341.295 598.071 335.864C599.038 329.62 600.425 324.737 602.351 320.768" fill="white"/>
<path d="M720.135 325.652C723.747 331.698 727.026 339.173 729.988 348.376C732.539 356.27 737.906 374.941 736.776 381.826C730.621 419.62 679.9 415.155 679.9 415.155C679.9 415.155 709.665 466.035 576.704 418.183C576.704 418.183 590.854 410.597 597.334 394.578L538.532 392.046C538.532 392.046 537.308 382.287 567.244 373.735C583.672 369.048 588.697 364.113 593.79 351.737C595.888 346.648 597.223 341.295 598.071 335.864C599.038 329.62 600.425 324.737 602.351 320.768" stroke="#252D3B" stroke-width="2" stroke-miterlimit="10" stroke-linecap="round"/>
<path d="M627.305 427.266C627.305 427.266 607.016 417.601 570.78 418.131C548.094 418.465 513.989 427.3 496.055 441.189C481.519 452.445 468.019 469.217 466.967 493.01C465.588 524.381 489.087 585.61 489.087 585.61C489.087 585.61 519.168 592.512 552.708 580.128C552.708 580.128 550.954 526.69 537.394 499.63C536.23 497.303 537.942 494.558 540.544 494.532C561.449 494.319 629.162 491.813 627.296 468.532C625.096 441.01 627.296 427.274 627.296 427.274L627.305 427.266Z" fill="#B4D2FF"/>
<path d="M552.931 579.905C552.931 579.905 553.796 586.482 555.636 595.197C558.161 607.128 558.392 613.329 558.392 613.329C558.392 613.329 499.625 623.686 461.65 615.775C461.65 615.775 463.482 607.111 482.589 600.492C490.345 597.806 489.284 586.217 489.284 586.217" stroke="#252D3B" stroke-width="2" stroke-miterlimit="10" stroke-linecap="round"/>
<path d="M558.025 609.284C558.025 609.284 505.712 619.213 463.766 612.465" stroke="#252D3B" stroke-width="2" stroke-miterlimit="10" stroke-linecap="round"/>
<path d="M683.443 360.923C683.443 360.923 690.18 368.099 693.733 381.911L683.443 360.923Z" fill="white"/>
<path d="M683.443 360.923C683.443 360.923 690.18 368.099 693.733 381.911" stroke="#252D3B" stroke-width="2" stroke-miterlimit="10" stroke-linecap="round"/>
<path d="M708.123 612.919H715.657V523.74H696.832L708.123 612.919Z" fill="#252D3B"/>
<path d="M612.298 582.172C612.298 582.172 613.163 588.749 615.003 597.464C617.529 609.395 617.76 615.596 617.76 615.596C617.76 615.596 558.992 625.953 521.018 618.042C521.018 618.042 522.85 609.378 541.957 602.758C549.712 600.073 548.651 588.484 548.651 588.484" fill="white"/>
<path d="M612.298 582.172C612.298 582.172 613.163 588.749 615.003 597.464C617.529 609.395 617.76 615.596 617.76 615.596C617.76 615.596 558.992 625.953 521.018 618.042C521.018 618.042 522.85 609.378 541.957 602.758C549.712 600.073 548.651 588.484 548.651 588.484" stroke="#252D3B" stroke-width="2" stroke-miterlimit="10" stroke-linecap="round"/>
<path d="M686.672 429.532C686.672 429.532 666.383 419.868 630.147 420.398C607.461 420.732 573.357 429.566 555.422 443.456C540.887 454.711 527.387 471.483 526.334 495.277C524.955 526.648 548.454 587.876 548.454 587.876C548.454 587.876 578.536 594.779 612.076 582.394C612.076 582.394 610.321 528.957 596.761 501.896C595.597 499.57 597.309 496.825 599.911 496.799C620.816 496.585 688.529 494.079 686.663 470.799C684.463 443.276 686.663 429.541 686.663 429.541L686.672 429.532Z" fill="#B4D2FF"/>
<path d="M545.927 582.651C545.927 582.651 504.537 498.886 525.793 463.914C545.645 431.243 608.727 422.28 608.727 422.28" stroke="#252D3B" stroke-width="2" stroke-miterlimit="10" stroke-linecap="round"/>
<path d="M648.696 458.56C648.696 458.56 624.419 477.821 582.173 480.361C573.698 480.874 568.014 489.247 570.736 497.278C577.884 518.403 589.543 555.71 594.44 587.475" stroke="#252D3B" stroke-width="2" stroke-miterlimit="10" stroke-linecap="round"/>
<path d="M617.383 611.55C617.383 611.55 565.069 621.48 523.123 614.732" stroke="#252D3B" stroke-width="2" stroke-miterlimit="10" stroke-linecap="round"/>
<path d="M668.344 397.263H736.272V515.418H636.756V428.822C636.756 411.401 650.915 397.254 668.353 397.254L668.344 397.263Z" fill="#252D3B"/>
<path d="M513.715 585.644C514.426 565.674 484.472 573.217 484.472 573.217C484.472 573.217 485.876 579.854 487.494 585.875C489.378 592.889 489.771 597.267 482.598 600.492C482.598 600.492 512.705 613.877 513.707 585.644H513.715Z" fill="#252D3B"/>
<path d="M511.473 600.628C511.071 600.628 500.173 591.828 486.725 593.307" stroke="white" stroke-width="2" stroke-miterlimit="10"/>
<path d="M483.592 598.704C483.592 598.704 495.654 596.814 504.257 604.392" stroke="white" stroke-width="2" stroke-miterlimit="10"/>
<path d="M539.834 603.485C539.834 603.485 549.439 610.336 559.438 605.444C569.436 600.551 570.018 581.547 564.146 577.049C558.265 572.541 542.582 574.697 542.582 574.697C542.582 574.697 546.323 589.878 546.759 596.874C546.991 600.586 539.834 603.485 539.834 603.485Z" fill="#252D3B"/>
<path d="M566.413 604.323C566.413 604.323 556.047 596.335 546.057 597.096" stroke="white" stroke-width="2" stroke-miterlimit="10"/>
<path d="M561.628 608.591C561.628 608.591 551.262 600.603 541.271 601.364" stroke="white" stroke-width="2" stroke-miterlimit="10"/>
<path d="M616.802 341.029C616.802 341.029 610.595 378.806 596.205 391.49" stroke="#252D3B" stroke-width="2" stroke-miterlimit="10" stroke-linecap="round"/>
<path d="M719.372 326.199C719.321 326.233 719.621 326.524 719.621 326.524C649.604 332.819 602.676 321.914 602.676 321.914C602.71 321.623 603.044 321.067 603.078 320.785C605.843 315.029 608.993 311.198 614.361 307.93C633.391 296.376 647.918 303.971 659.064 302.765C684.292 300.036 704.229 300.84 719.364 326.199H719.372Z" fill="#AF8CFF"/>
<path d="M628.442 261.104C622.835 263.208 616.252 261.421 618.127 268.049C619.334 272.334 619.265 273.497 620.447 280.228C622.972 294.622 635.445 299.848 646.111 290.799C656.957 281.596 657.342 274.883 650.049 259.753C644.69 248.643 639.905 255.554 639.905 255.554C639.905 255.554 635.436 258.479 628.442 261.104Z" fill="#F4E3FF"/>
<path d="M621.578 274.027C622.032 275.054 622.819 275.695 623.324 275.473C623.829 275.25 623.872 274.233 623.418 273.206C622.965 272.18 622.177 271.538 621.672 271.761C621.167 271.983 621.124 273.001 621.578 274.027Z" fill="#252D3B"/>
<path d="M632.621 270.649C632.809 271.735 633.425 272.59 633.99 272.548C634.555 272.505 634.855 271.59 634.667 270.495C634.478 269.4 633.862 268.554 633.297 268.596C632.732 268.639 632.432 269.554 632.621 270.649Z" fill="#252D3B"/>
<path d="M637.072 295.221C637.072 295.221 639.752 299.121 639.846 304.415C639.931 309.222 643.45 313.344 648.244 313.763C648.329 313.763 648.415 313.78 648.509 313.78C653.371 314.148 666.897 311.924 665.211 302.106C665.211 302.106 655.803 283.239 654.142 273.976C654.142 273.976 637.963 293.527 637.072 295.221Z" fill="#F4E3FF"/>
<path d="M637.072 295.221C637.072 295.221 643.33 293.853 648.201 287.925C653.08 281.998 649.699 297.941 639.401 301.926C639.401 301.926 639.349 299.326 637.072 295.229V295.221Z" fill="#252D3B"/>
<path d="M630.163 266.441C630.163 266.441 637.448 265.509 638.295 264.457C639.451 263.028 629.29 258.598 630.163 266.441Z" fill="#252D3B"/>
<path d="M624.599 268.118C624.599 268.118 617.973 271.273 616.68 270.846C614.943 270.273 621.081 261.053 624.599 268.118Z" fill="#252D3B"/>
<path d="M650.179 269.152C650.179 269.152 651.891 264.106 655.632 263.268C659.381 262.422 661.359 273.899 653.286 275.02C645.214 276.14 650.179 269.152 650.179 269.152Z" fill="#F4E3FF"/>
<path d="M653.294 269.486C653.294 269.486 653.149 266.441 655.803 265.612" stroke="#252D3B" stroke-width="2" stroke-miterlimit="10" stroke-linecap="round"/>
<path d="M654.475 275.097C654.475 275.097 659.44 293.117 665.483 302.833" stroke="#252D3B" stroke-width="2" stroke-miterlimit="10" stroke-linecap="round"/>
<path d="M619.625 276.833C623.392 290.919 629.401 298.907 639.092 294.896" stroke="#252D3B" stroke-width="2" stroke-miterlimit="10" stroke-linecap="round"/>
<path d="M637.259 285.753C637.259 285.753 633.947 288.832 631.652 287.583" stroke="#252D3B" stroke-width="2" stroke-miterlimit="10" stroke-linecap="round"/>
<path d="M643.954 251.97C643.954 251.97 628.828 267.647 611.236 265.381L614.326 262.482L609.943 259.48C609.943 259.48 613.924 259.42 618.812 256.289C623.709 253.159 634.135 244.906 642.781 248.481C651.427 252.064 643.954 251.962 643.954 251.962V251.97Z" fill="#252D3B"/>
<path d="M640.248 253.963C640.248 253.963 643.022 260.429 647.002 261.489C650.991 262.55 651.462 266.416 651.462 266.416C651.462 266.416 653.508 263.944 654.972 263.405C654.972 263.405 652.541 244.41 640.77 247.497L640.248 253.963Z" fill="#252D3B"/>
<path d="M637.158 495.277V509.748" stroke="white" stroke-width="2" stroke-miterlimit="10" stroke-linecap="round"/>
<path d="M655.194 261.079C655.194 261.079 644.562 255.691 631.978 256.828C619.385 257.974 615.131 257.478 615.131 257.478C615.131 257.478 612.349 251.927 613.984 246.531C613.984 246.531 624.941 239.013 629.024 238.2C633.108 237.388 639.982 236.892 647.994 241.63C656.007 246.368 655.185 261.07 655.185 261.07L655.194 261.079Z" fill="#AF8CFF"/>
<path d="M619.308 253.133C618.384 252.766 608.83 259.71 598.523 259.522C588.216 259.334 605.885 262.285 618.777 262.285C631.669 262.285 633.784 247.292 633.784 247.292L619.308 253.133Z" fill="#AF8CFF"/>
<path d="M625.251 250.755C625.251 252.141 624.155 253.261 622.811 253.261C621.467 253.261 620.371 252.141 620.371 250.755C620.371 249.37 621.467 248.25 622.811 248.25C624.155 248.25 625.251 249.37 625.251 250.755Z" fill="white" stroke="#252D3B" stroke-width="2" stroke-miterlimit="10" stroke-linecap="round"/>
<path d="M642.021 257.127C642.021 257.127 640.18 266.287 644.683 264.474C644.683 264.474 646.404 271.085 651.506 266.338C651.506 266.338 652.268 258.521 642.021 257.119V257.127Z" fill="#252D3B"/>
<path d="M692.031 376.497C693.298 375.992 658.337 387.385 634.137 404.652" stroke="#252D3B" stroke-width="2" stroke-miterlimit="10" stroke-linecap="round"/>
<path d="M626.071 422.553H536.066C534.628 422.553 533.404 421.484 533.233 420.047L526.29 364.523C526.076 362.821 527.412 361.316 529.124 361.316H619.129C620.567 361.316 621.791 362.385 621.962 363.822L628.905 419.346C629.119 421.048 627.783 422.562 626.071 422.562V422.553Z" fill="#252D3B"/>
<path d="M580.067 396.425C578.894 398.092 575.881 397.99 573.338 396.202C570.796 394.415 569.683 391.618 570.856 389.959C572.028 388.291 575.042 388.394 577.584 390.181C580.127 391.969 581.239 394.766 580.067 396.425Z" fill="#252D3B" stroke="white" stroke-width="2" stroke-miterlimit="10"/>
<path d="M610.184 418.465H680.286C681.433 418.465 682.366 419.397 682.366 420.543C682.366 421.689 681.433 422.621 680.286 422.621H610.184C609.037 422.621 608.104 421.689 608.104 420.543C608.104 419.397 609.037 418.465 610.184 418.465Z" fill="#252D3B"/>
<path d="M598.979 329.902C598.979 329.902 663.627 344.613 724.569 332.981" stroke="#252D3B" stroke-width="2" stroke-miterlimit="10" stroke-linecap="round"/>
<path d="M570.736 360.914H589.218" stroke="white" stroke-width="2" stroke-miterlimit="10" stroke-linecap="round"/>
</g>
<defs>
<clipPath id="clip0_1798_1631">
<rect width="765" height="645" fill="white"/>
</clipPath>
</defs>
</svg>
