<svg width="374" height="132" viewBox="0 0 374 132" fill="none" xmlns="http://www.w3.org/2000/svg">
<path d="M78.98 73.6767H92.42V81.5967H68.72V39.4767H78.98V73.6767ZM129.074 64.3167C129.074 65.2767 129.014 66.2767 128.894 67.3167H105.674C105.834 69.3967 106.494 70.9967 107.654 72.1167C108.854 73.1967 110.314 73.7367 112.034 73.7367C114.594 73.7367 116.374 72.6567 117.374 70.4967H128.294C127.734 72.6967 126.714 74.6767 125.234 76.4367C123.794 78.1967 121.974 79.5767 119.774 80.5767C117.574 81.5767 115.114 82.0767 112.394 82.0767C109.114 82.0767 106.194 81.3767 103.634 79.9767C101.074 78.5767 99.0738 76.5767 97.6338 73.9767C96.1938 71.3767 95.4738 68.3367 95.4738 64.8567C95.4738 61.3767 96.1738 58.3367 97.5738 55.7367C99.0138 53.1367 101.014 51.1367 103.574 49.7367C106.134 48.3367 109.074 47.6367 112.394 47.6367C115.634 47.6367 118.514 48.3167 121.034 49.6767C123.554 51.0367 125.514 52.9767 126.914 55.4967C128.354 58.0167 129.074 60.9567 129.074 64.3167ZM118.574 61.6167C118.574 59.8567 117.974 58.4567 116.774 57.4167C115.574 56.3767 114.074 55.8567 112.274 55.8567C110.554 55.8567 109.094 56.3567 107.894 57.3567C106.734 58.3567 106.014 59.7767 105.734 61.6167H118.574ZM149.926 82.0767C146.646 82.0767 143.686 81.3767 141.046 79.9767C138.446 78.5767 136.386 76.5767 134.866 73.9767C133.386 71.3767 132.646 68.3367 132.646 64.8567C132.646 61.4167 133.406 58.3967 134.926 55.7967C136.446 53.1567 138.526 51.1367 141.166 49.7367C143.806 48.3367 146.766 47.6367 150.046 47.6367C153.326 47.6367 156.286 48.3367 158.926 49.7367C161.566 51.1367 163.646 53.1567 165.166 55.7967C166.686 58.3967 167.446 61.4167 167.446 64.8567C167.446 68.2967 166.666 71.3367 165.106 73.9767C163.586 76.5767 161.486 78.5767 158.806 79.9767C156.166 81.3767 153.206 82.0767 149.926 82.0767ZM149.926 73.1967C151.886 73.1967 153.546 72.4767 154.906 71.0367C156.306 69.5967 157.006 67.5367 157.006 64.8567C157.006 62.1767 156.326 60.1167 154.966 58.6767C153.646 57.2367 152.006 56.5167 150.046 56.5167C148.046 56.5167 146.386 57.2367 145.066 58.6767C143.746 60.0767 143.086 62.1367 143.086 64.8567C143.086 67.5367 143.726 69.5967 145.006 71.0367C146.326 72.4767 147.966 73.1967 149.926 73.1967ZM191.75 72.8967V81.5967H186.53C182.81 81.5967 179.91 80.6967 177.83 78.8967C175.75 77.0567 174.71 74.0767 174.71 69.9567V56.6367H170.63V48.1167H174.71V39.9567H184.97V48.1167H191.69V56.6367H184.97V70.0767C184.97 71.0767 185.21 71.7967 185.69 72.2367C186.17 72.6767 186.97 72.8967 188.09 72.8967H191.75ZM229.225 64.3167C229.225 65.2767 229.165 66.2767 229.045 67.3167H205.825C205.985 69.3967 206.645 70.9967 207.805 72.1167C209.005 73.1967 210.465 73.7367 212.185 73.7367C214.745 73.7367 216.525 72.6567 217.525 70.4967H228.445C227.885 72.6967 226.865 74.6767 225.385 76.4367C223.945 78.1967 222.125 79.5767 219.925 80.5767C217.725 81.5767 215.265 82.0767 212.545 82.0767C209.265 82.0767 206.345 81.3767 203.785 79.9767C201.225 78.5767 199.225 76.5767 197.785 73.9767C196.345 71.3767 195.625 68.3367 195.625 64.8567C195.625 61.3767 196.325 58.3367 197.725 55.7367C199.165 53.1367 201.165 51.1367 203.725 49.7367C206.285 48.3367 209.225 47.6367 212.545 47.6367C215.785 47.6367 218.665 48.3167 221.185 49.6767C223.705 51.0367 225.665 52.9767 227.065 55.4967C228.505 58.0167 229.225 60.9567 229.225 64.3167ZM218.725 61.6167C218.725 59.8567 218.125 58.4567 216.925 57.4167C215.725 56.3767 214.225 55.8567 212.425 55.8567C210.705 55.8567 209.245 56.3567 208.045 57.3567C206.885 58.3567 206.165 59.7767 205.885 61.6167H218.725ZM232.797 64.8567C232.797 61.3767 233.497 58.3367 234.897 55.7367C236.337 53.1367 238.317 51.1367 240.837 49.7367C243.397 48.3367 246.317 47.6367 249.597 47.6367C253.797 47.6367 257.297 48.7367 260.097 50.9367C262.937 53.1367 264.797 56.2367 265.677 60.2367H254.757C253.837 57.6767 252.057 56.3967 249.417 56.3967C247.537 56.3967 246.037 57.1367 244.917 58.6167C243.797 60.0567 243.237 62.1367 243.237 64.8567C243.237 67.5767 243.797 69.6767 244.917 71.1567C246.037 72.5967 247.537 73.3167 249.417 73.3167C252.057 73.3167 253.837 72.0367 254.757 69.4767H265.677C264.797 73.3967 262.937 76.4767 260.097 78.7167C257.257 80.9567 253.757 82.0767 249.597 82.0767C246.317 82.0767 243.397 81.3767 240.837 79.9767C238.317 78.5767 236.337 76.5767 234.897 73.9767C233.497 71.3767 232.797 68.3367 232.797 64.8567ZM291.945 47.7567C295.785 47.7567 298.865 49.0367 301.185 51.5967C303.505 54.1167 304.665 57.5967 304.665 62.0367V81.5967H294.465V63.4167C294.465 61.1767 293.885 59.4367 292.725 58.1967C291.565 56.9567 290.005 56.3367 288.045 56.3367C286.085 56.3367 284.525 56.9567 283.365 58.1967C282.205 59.4367 281.625 61.1767 281.625 63.4167V81.5967H271.365V37.1967H281.625V52.6167C282.665 51.1367 284.085 49.9567 285.885 49.0767C287.685 48.1967 289.705 47.7567 291.945 47.7567Z" fill="#0B63E5"/>
<rect x="15" y="15" width="346" height="101" stroke="#0B63E5" stroke-width="8"/>
<circle cx="14" cy="118" r="10" fill="white" stroke="#0B63E5" stroke-width="8"/>
<circle cx="360" cy="118" r="10" fill="white" stroke="#0B63E5" stroke-width="8"/>
<circle cx="14" cy="14" r="10" fill="white" stroke="#0B63E5" stroke-width="8"/>
<circle cx="360" cy="14" r="10" fill="white" stroke="#0B63E5" stroke-width="8"/>
</svg>
